ISO-10303-21;
HEADER;
/* Generated by software containing ST-Developer
 * from STEP Tools, Inc. (www.steptools.com) 
 */
/* OPTION: using custom renumber hook */

FILE_DESCRIPTION(
/* description */ ('STEP AP242 Edition 2',
'CAx-IF Rec.Pracs.---Representation and Presentation of Product Manufa
cturing Information (PMI)---4.0---2014-10-13',
'CAx-IF Rec.Pracs.---3D Tessellated Geometry---0.4---2014-09-14','2;1',
'CAx-IF Rec.Pracs.---User Defined Attributes---1.5---2016-08-15'),
/* implementation_level */ '2;1');

FILE_NAME(
/* name */ 'Part Studio 1 - Part 1',
/* time_stamp */ '2026-09-22T16:52:04Z',
/* author */ (''),
/* organization */ (''),
/* preprocessor_version */ 'ST-DEVELOPER v20',
/* originating_system */ 'ONSHAPE BY PTC INC, 1.221',
/* authorisation */ '  ');

FILE_SCHEMA (('AP242_MANAGED_MODEL_BASED_3D_ENGINEERING_MIM_LF { 1 0 10303 442 3 1 4 }'));
ENDSEC;

DATA;
#10=SHAPE_REPRESENTATION_RELATIONSHIP('','',#1215,#11);
#11=ADVANCED_BREP_SHAPE_REPRESENTATION('',(#1213),#1991);
#12=CYLINDRICAL_SURFACE('',#1246,0.00605);
#13=CYLINDRICAL_SURFACE('',#1247,0.00237897702804138);
#14=CYLINDRICAL_SURFACE('',#1257,0.00123769197681095);
#15=CYLINDRICAL_SURFACE('',#1260,0.00245997075337974);
#16=CYLINDRICAL_SURFACE('',#1264,0.00114633174210417);
#17=CYLINDRICAL_SURFACE('',#1267,0.0024479890031546);
#18=CYLINDRICAL_SURFACE('',#1271,0.00328890805708686);
#19=CYLINDRICAL_SURFACE('',#1272,0.00262115708655024);
#20=CYLINDRICAL_SURFACE('',#1274,0.00112558652026083);
#21=CYLINDRICAL_SURFACE('',#1278,0.0025382419722264);
#22=CYLINDRICAL_SURFACE('',#1280,0.00125492106310364);
#23=CYLINDRICAL_SURFACE('',#1286,0.00248638049713083);
#24=CYLINDRICAL_SURFACE('',#1288,0.00109790846316902);
#25=CYLINDRICAL_SURFACE('',#1292,0.0024583760241677);
#26=CYLINDRICAL_SURFACE('',#1294,0.00110283458433918);
#27=CYLINDRICAL_SURFACE('',#1310,0.05);
#28=CYLINDRICAL_SURFACE('',#1311,0.05);
#29=CYLINDRICAL_SURFACE('',#1318,0.05);
#30=CYLINDRICAL_SURFACE('',#1319,0.05);
#31=CIRCLE('',#1219,0.00605);
#32=CIRCLE('',#1221,0.00262115708655024);
#33=CIRCLE('',#1222,0.0025382419722264);
#34=CIRCLE('',#1224,0.00605);
#35=CIRCLE('',#1226,0.00237897702804138);
#36=CIRCLE('',#1228,0.00328890805708686);
#37=CIRCLE('',#1230,0.0024583760241677);
#38=CIRCLE('',#1231,0.00248638049713083);
#39=CIRCLE('',#1232,0.00328890805708686);
#40=CIRCLE('',#1233,0.0024479890031546);
#41=CIRCLE('',#1234,0.00245997075337974);
#42=CIRCLE('',#1238,0.00237897702804138);
#43=CIRCLE('',#1258,0.00123769197681095);
#44=CIRCLE('',#1259,0.00123769197681095);
#45=CIRCLE('',#1261,0.00245997075337974);
#46=CIRCLE('',#1265,0.00114633174210417);
#47=CIRCLE('',#1266,0.00114633174210417);
#48=CIRCLE('',#1268,0.0024479890031546);
#49=CIRCLE('',#1273,0.00262115708655024);
#50=CIRCLE('',#1275,0.00112558652026083);
#51=CIRCLE('',#1276,0.00112558652026083);
#52=CIRCLE('',#1279,0.0025382419722264);
#53=CIRCLE('',#1281,0.00125492106310364);
#54=CIRCLE('',#1282,0.00125492106310364);
#55=CIRCLE('',#1287,0.00248638049713083);
#56=CIRCLE('',#1289,0.00109790846316902);
#57=CIRCLE('',#1290,0.00109790846316902);
#58=CIRCLE('',#1293,0.0024583760241677);
#59=CIRCLE('',#1295,0.00110283458433918);
#60=CIRCLE('',#1296,0.00110283458433918);
#61=CIRCLE('',#1305,0.05);
#62=CIRCLE('',#1306,0.05);
#63=CIRCLE('',#1308,0.05);
#64=CIRCLE('',#1309,0.05);
#65=CIRCLE('',#1313,0.05);
#66=CIRCLE('',#1314,0.05);
#67=CIRCLE('',#1316,0.05);
#68=CIRCLE('',#1317,0.05);
#69=ORIENTED_EDGE('',*,*,#369,.F.);
#70=ORIENTED_EDGE('',*,*,#370,.T.);
#71=ORIENTED_EDGE('',*,*,#371,.T.);
#72=ORIENTED_EDGE('',*,*,#372,.F.);
#73=ORIENTED_EDGE('',*,*,#373,.F.);
#74=ORIENTED_EDGE('',*,*,#374,.T.);
#75=ORIENTED_EDGE('',*,*,#375,.T.);
#76=ORIENTED_EDGE('',*,*,#376,.T.);
#77=ORIENTED_EDGE('',*,*,#377,.F.);
#78=ORIENTED_EDGE('',*,*,#378,.T.);
#79=ORIENTED_EDGE('',*,*,#379,.T.);
#80=ORIENTED_EDGE('',*,*,#369,.T.);
#81=ORIENTED_EDGE('',*,*,#380,.T.);
#82=ORIENTED_EDGE('',*,*,#381,.F.);
#83=ORIENTED_EDGE('',*,*,#382,.F.);
#84=ORIENTED_EDGE('',*,*,#383,.T.);
#85=ORIENTED_EDGE('',*,*,#384,.F.);
#86=ORIENTED_EDGE('',*,*,#385,.F.);
#87=ORIENTED_EDGE('',*,*,#386,.T.);
#88=ORIENTED_EDGE('',*,*,#387,.F.);
#89=ORIENTED_EDGE('',*,*,#388,.T.);
#90=ORIENTED_EDGE('',*,*,#389,.F.);
#91=ORIENTED_EDGE('',*,*,#390,.F.);
#92=ORIENTED_EDGE('',*,*,#391,.F.);
#93=ORIENTED_EDGE('',*,*,#373,.T.);
#94=ORIENTED_EDGE('',*,*,#392,.F.);
#95=ORIENTED_EDGE('',*,*,#393,.F.);
#96=ORIENTED_EDGE('',*,*,#394,.T.);
#97=ORIENTED_EDGE('',*,*,#395,.T.);
#98=ORIENTED_EDGE('',*,*,#396,.T.);
#99=ORIENTED_EDGE('',*,*,#397,.F.);
#100=ORIENTED_EDGE('',*,*,#398,.F.);
#101=ORIENTED_EDGE('',*,*,#371,.F.);
#102=ORIENTED_EDGE('',*,*,#399,.T.);
#103=ORIENTED_EDGE('',*,*,#400,.T.);
#104=ORIENTED_EDGE('',*,*,#401,.F.);
#105=ORIENTED_EDGE('',*,*,#402,.F.);
#106=ORIENTED_EDGE('',*,*,#403,.F.);
#107=ORIENTED_EDGE('',*,*,#404,.T.);
#108=ORIENTED_EDGE('',*,*,#405,.T.);
#109=ORIENTED_EDGE('',*,*,#406,.F.);
#110=ORIENTED_EDGE('',*,*,#407,.F.);
#111=ORIENTED_EDGE('',*,*,#408,.T.);
#112=ORIENTED_EDGE('',*,*,#409,.T.);
#113=ORIENTED_EDGE('',*,*,#410,.F.);
#114=ORIENTED_EDGE('',*,*,#411,.T.);
#115=ORIENTED_EDGE('',*,*,#412,.T.);
#116=ORIENTED_EDGE('',*,*,#413,.F.);
#117=ORIENTED_EDGE('',*,*,#414,.F.);
#118=ORIENTED_EDGE('',*,*,#415,.T.);
#119=ORIENTED_EDGE('',*,*,#416,.T.);
#120=ORIENTED_EDGE('',*,*,#380,.F.);
#121=ORIENTED_EDGE('',*,*,#376,.F.);
#122=ORIENTED_EDGE('',*,*,#417,.T.);
#123=ORIENTED_EDGE('',*,*,#418,.T.);
#124=ORIENTED_EDGE('',*,*,#419,.T.);
#125=ORIENTED_EDGE('',*,*,#420,.F.);
#126=ORIENTED_EDGE('',*,*,#421,.T.);
#127=ORIENTED_EDGE('',*,*,#422,.T.);
#128=ORIENTED_EDGE('',*,*,#423,.F.);
#129=ORIENTED_EDGE('',*,*,#424,.F.);
#130=ORIENTED_EDGE('',*,*,#425,.T.);
#131=ORIENTED_EDGE('',*,*,#426,.F.);
#132=ORIENTED_EDGE('',*,*,#427,.F.);
#133=ORIENTED_EDGE('',*,*,#428,.F.);
#134=ORIENTED_EDGE('',*,*,#429,.F.);
#135=ORIENTED_EDGE('',*,*,#430,.F.);
#136=ORIENTED_EDGE('',*,*,#372,.T.);
#137=ORIENTED_EDGE('',*,*,#405,.F.);
#138=ORIENTED_EDGE('',*,*,#431,.F.);
#139=ORIENTED_EDGE('',*,*,#392,.T.);
#140=ORIENTED_EDGE('',*,*,#432,.F.);
#141=ORIENTED_EDGE('',*,*,#433,.F.);
#142=ORIENTED_EDGE('',*,*,#434,.T.);
#143=ORIENTED_EDGE('',*,*,#435,.F.);
#144=ORIENTED_EDGE('',*,*,#436,.F.);
#145=ORIENTED_EDGE('',*,*,#383,.F.);
#146=ORIENTED_EDGE('',*,*,#437,.F.);
#147=ORIENTED_EDGE('',*,*,#438,.T.);
#148=ORIENTED_EDGE('',*,*,#439,.F.);
#149=ORIENTED_EDGE('',*,*,#395,.F.);
#150=ORIENTED_EDGE('',*,*,#440,.T.);
#151=ORIENTED_EDGE('',*,*,#402,.T.);
#152=ORIENTED_EDGE('',*,*,#441,.F.);
#153=ORIENTED_EDGE('',*,*,#442,.T.);
#154=ORIENTED_EDGE('',*,*,#443,.T.);
#155=ORIENTED_EDGE('',*,*,#444,.T.);
#156=ORIENTED_EDGE('',*,*,#445,.F.);
#157=ORIENTED_EDGE('',*,*,#446,.F.);
#158=ORIENTED_EDGE('',*,*,#437,.T.);
#159=ORIENTED_EDGE('',*,*,#382,.T.);
#160=ORIENTED_EDGE('',*,*,#447,.F.);
#161=ORIENTED_EDGE('',*,*,#448,.T.);
#162=ORIENTED_EDGE('',*,*,#438,.F.);
#163=ORIENTED_EDGE('',*,*,#446,.T.);
#164=ORIENTED_EDGE('',*,*,#449,.T.);
#165=ORIENTED_EDGE('',*,*,#417,.F.);
#166=ORIENTED_EDGE('',*,*,#375,.F.);
#167=ORIENTED_EDGE('',*,*,#450,.F.);
#168=ORIENTED_EDGE('',*,*,#451,.T.);
#169=ORIENTED_EDGE('',*,*,#452,.F.);
#170=ORIENTED_EDGE('',*,*,#453,.T.);
#171=ORIENTED_EDGE('',*,*,#454,.F.);
#172=ORIENTED_EDGE('',*,*,#455,.F.);
#173=ORIENTED_EDGE('',*,*,#445,.T.);
#174=ORIENTED_EDGE('',*,*,#381,.T.);
#175=ORIENTED_EDGE('',*,*,#416,.F.);
#176=ORIENTED_EDGE('',*,*,#449,.F.);
#177=ORIENTED_EDGE('',*,*,#456,.F.);
#178=ORIENTED_EDGE('',*,*,#457,.T.);
#179=ORIENTED_EDGE('',*,*,#458,.T.);
#180=ORIENTED_EDGE('',*,*,#459,.T.);
#181=ORIENTED_EDGE('',*,*,#440,.F.);
#182=ORIENTED_EDGE('',*,*,#394,.F.);
#183=ORIENTED_EDGE('',*,*,#460,.T.);
#184=ORIENTED_EDGE('',*,*,#403,.T.);
#185=ORIENTED_EDGE('',*,*,#461,.F.);
#186=ORIENTED_EDGE('',*,*,#462,.T.);
#187=ORIENTED_EDGE('',*,*,#463,.T.);
#188=ORIENTED_EDGE('',*,*,#464,.T.);
#189=ORIENTED_EDGE('',*,*,#460,.F.);
#190=ORIENTED_EDGE('',*,*,#393,.T.);
#191=ORIENTED_EDGE('',*,*,#431,.T.);
#192=ORIENTED_EDGE('',*,*,#404,.F.);
#193=ORIENTED_EDGE('',*,*,#465,.T.);
#194=ORIENTED_EDGE('',*,*,#418,.F.);
#195=ORIENTED_EDGE('',*,*,#466,.F.);
#196=ORIENTED_EDGE('',*,*,#432,.T.);
#197=ORIENTED_EDGE('',*,*,#433,.T.);
#198=ORIENTED_EDGE('',*,*,#466,.T.);
#199=ORIENTED_EDGE('',*,*,#421,.F.);
#200=ORIENTED_EDGE('',*,*,#467,.F.);
#201=ORIENTED_EDGE('',*,*,#468,.F.);
#202=ORIENTED_EDGE('',*,*,#434,.F.);
#203=ORIENTED_EDGE('',*,*,#467,.T.);
#204=ORIENTED_EDGE('',*,*,#420,.T.);
#205=ORIENTED_EDGE('',*,*,#435,.T.);
#206=ORIENTED_EDGE('',*,*,#468,.T.);
#207=ORIENTED_EDGE('',*,*,#419,.F.);
#208=ORIENTED_EDGE('',*,*,#465,.F.);
#209=ORIENTED_EDGE('',*,*,#377,.T.);
#210=ORIENTED_EDGE('',*,*,#398,.T.);
#211=ORIENTED_EDGE('',*,*,#406,.T.);
#212=ORIENTED_EDGE('',*,*,#451,.F.);
#213=ORIENTED_EDGE('',*,*,#407,.T.);
#214=ORIENTED_EDGE('',*,*,#469,.F.);
#215=ORIENTED_EDGE('',*,*,#470,.F.);
#216=ORIENTED_EDGE('',*,*,#471,.T.);
#217=ORIENTED_EDGE('',*,*,#410,.T.);
#218=ORIENTED_EDGE('',*,*,#472,.F.);
#219=ORIENTED_EDGE('',*,*,#473,.F.);
#220=ORIENTED_EDGE('',*,*,#469,.T.);
#221=ORIENTED_EDGE('',*,*,#409,.F.);
#222=ORIENTED_EDGE('',*,*,#474,.F.);
#223=ORIENTED_EDGE('',*,*,#475,.T.);
#224=ORIENTED_EDGE('',*,*,#472,.T.);
#225=ORIENTED_EDGE('',*,*,#386,.F.);
#226=ORIENTED_EDGE('',*,*,#476,.F.);
#227=ORIENTED_EDGE('',*,*,#477,.T.);
#228=ORIENTED_EDGE('',*,*,#478,.T.);
#229=ORIENTED_EDGE('',*,*,#385,.T.);
#230=ORIENTED_EDGE('',*,*,#479,.F.);
#231=ORIENTED_EDGE('',*,*,#480,.F.);
#232=ORIENTED_EDGE('',*,*,#476,.T.);
#233=ORIENTED_EDGE('',*,*,#388,.F.);
#234=ORIENTED_EDGE('',*,*,#481,.F.);
#235=ORIENTED_EDGE('',*,*,#482,.T.);
#236=ORIENTED_EDGE('',*,*,#479,.T.);
#237=ORIENTED_EDGE('',*,*,#387,.T.);
#238=ORIENTED_EDGE('',*,*,#478,.F.);
#239=ORIENTED_EDGE('',*,*,#483,.F.);
#240=ORIENTED_EDGE('',*,*,#481,.T.);
#241=ORIENTED_EDGE('',*,*,#408,.F.);
#242=ORIENTED_EDGE('',*,*,#471,.F.);
#243=ORIENTED_EDGE('',*,*,#484,.T.);
#244=ORIENTED_EDGE('',*,*,#474,.T.);
#245=ORIENTED_EDGE('',*,*,#477,.F.);
#246=ORIENTED_EDGE('',*,*,#480,.T.);
#247=ORIENTED_EDGE('',*,*,#482,.F.);
#248=ORIENTED_EDGE('',*,*,#483,.T.);
#249=ORIENTED_EDGE('',*,*,#470,.T.);
#250=ORIENTED_EDGE('',*,*,#473,.T.);
#251=ORIENTED_EDGE('',*,*,#475,.F.);
#252=ORIENTED_EDGE('',*,*,#484,.F.);
#253=ORIENTED_EDGE('',*,*,#485,.T.);
#254=ORIENTED_EDGE('',*,*,#486,.F.);
#255=ORIENTED_EDGE('',*,*,#487,.F.);
#256=ORIENTED_EDGE('',*,*,#430,.T.);
#257=ORIENTED_EDGE('',*,*,#485,.F.);
#258=ORIENTED_EDGE('',*,*,#487,.T.);
#259=ORIENTED_EDGE('',*,*,#486,.T.);
#260=ORIENTED_EDGE('',*,*,#488,.T.);
#261=ORIENTED_EDGE('',*,*,#489,.F.);
#262=ORIENTED_EDGE('',*,*,#490,.F.);
#263=ORIENTED_EDGE('',*,*,#429,.T.);
#264=ORIENTED_EDGE('',*,*,#488,.F.);
#265=ORIENTED_EDGE('',*,*,#490,.T.);
#266=ORIENTED_EDGE('',*,*,#489,.T.);
#267=ORIENTED_EDGE('',*,*,#428,.T.);
#268=ORIENTED_EDGE('',*,*,#415,.F.);
#269=ORIENTED_EDGE('',*,*,#491,.F.);
#270=ORIENTED_EDGE('',*,*,#389,.T.);
#271=ORIENTED_EDGE('',*,*,#492,.T.);
#272=ORIENTED_EDGE('',*,*,#493,.F.);
#273=ORIENTED_EDGE('',*,*,#491,.T.);
#274=ORIENTED_EDGE('',*,*,#492,.F.);
#275=ORIENTED_EDGE('',*,*,#494,.F.);
#276=ORIENTED_EDGE('',*,*,#390,.T.);
#277=ORIENTED_EDGE('',*,*,#495,.T.);
#278=ORIENTED_EDGE('',*,*,#496,.F.);
#279=ORIENTED_EDGE('',*,*,#494,.T.);
#280=ORIENTED_EDGE('',*,*,#495,.F.);
#281=ORIENTED_EDGE('',*,*,#493,.T.);
#282=ORIENTED_EDGE('',*,*,#496,.T.);
#283=ORIENTED_EDGE('',*,*,#497,.F.);
#284=ORIENTED_EDGE('',*,*,#427,.T.);
#285=ORIENTED_EDGE('',*,*,#498,.T.);
#286=ORIENTED_EDGE('',*,*,#499,.F.);
#287=ORIENTED_EDGE('',*,*,#497,.T.);
#288=ORIENTED_EDGE('',*,*,#498,.F.);
#289=ORIENTED_EDGE('',*,*,#500,.F.);
#290=ORIENTED_EDGE('',*,*,#426,.T.);
#291=ORIENTED_EDGE('',*,*,#501,.T.);
#292=ORIENTED_EDGE('',*,*,#502,.F.);
#293=ORIENTED_EDGE('',*,*,#500,.T.);
#294=ORIENTED_EDGE('',*,*,#501,.F.);
#295=ORIENTED_EDGE('',*,*,#499,.T.);
#296=ORIENTED_EDGE('',*,*,#502,.T.);
#297=ORIENTED_EDGE('',*,*,#503,.T.);
#298=ORIENTED_EDGE('',*,*,#423,.T.);
#299=ORIENTED_EDGE('',*,*,#504,.F.);
#300=ORIENTED_EDGE('',*,*,#412,.F.);
#301=ORIENTED_EDGE('',*,*,#413,.T.);
#302=ORIENTED_EDGE('',*,*,#504,.T.);
#303=ORIENTED_EDGE('',*,*,#422,.F.);
#304=ORIENTED_EDGE('',*,*,#505,.F.);
#305=ORIENTED_EDGE('',*,*,#414,.T.);
#306=ORIENTED_EDGE('',*,*,#505,.T.);
#307=ORIENTED_EDGE('',*,*,#425,.F.);
#308=ORIENTED_EDGE('',*,*,#506,.F.);
#309=ORIENTED_EDGE('',*,*,#506,.T.);
#310=ORIENTED_EDGE('',*,*,#424,.T.);
#311=ORIENTED_EDGE('',*,*,#503,.F.);
#312=ORIENTED_EDGE('',*,*,#411,.F.);
#313=ORIENTED_EDGE('',*,*,#455,.T.);
#314=ORIENTED_EDGE('',*,*,#507,.T.);
#315=ORIENTED_EDGE('',*,*,#463,.F.);
#316=ORIENTED_EDGE('',*,*,#508,.T.);
#317=ORIENTED_EDGE('',*,*,#509,.F.);
#318=ORIENTED_EDGE('',*,*,#461,.T.);
#319=ORIENTED_EDGE('',*,*,#510,.F.);
#320=ORIENTED_EDGE('',*,*,#453,.F.);
#321=ORIENTED_EDGE('',*,*,#452,.T.);
#322=ORIENTED_EDGE('',*,*,#508,.F.);
#323=ORIENTED_EDGE('',*,*,#462,.F.);
#324=ORIENTED_EDGE('',*,*,#509,.T.);
#325=ORIENTED_EDGE('',*,*,#454,.T.);
#326=ORIENTED_EDGE('',*,*,#510,.T.);
#327=ORIENTED_EDGE('',*,*,#464,.F.);
#328=ORIENTED_EDGE('',*,*,#507,.F.);
#329=ORIENTED_EDGE('',*,*,#441,.T.);
#330=ORIENTED_EDGE('',*,*,#511,.F.);
#331=ORIENTED_EDGE('',*,*,#456,.T.);
#332=ORIENTED_EDGE('',*,*,#512,.F.);
#333=ORIENTED_EDGE('',*,*,#513,.T.);
#334=ORIENTED_EDGE('',*,*,#458,.F.);
#335=ORIENTED_EDGE('',*,*,#514,.T.);
#336=ORIENTED_EDGE('',*,*,#443,.F.);
#337=ORIENTED_EDGE('',*,*,#514,.F.);
#338=ORIENTED_EDGE('',*,*,#457,.F.);
#339=ORIENTED_EDGE('',*,*,#511,.T.);
#340=ORIENTED_EDGE('',*,*,#444,.F.);
#341=ORIENTED_EDGE('',*,*,#512,.T.);
#342=ORIENTED_EDGE('',*,*,#459,.F.);
#343=ORIENTED_EDGE('',*,*,#513,.F.);
#344=ORIENTED_EDGE('',*,*,#442,.F.);
#345=ORIENTED_EDGE('',*,*,#515,.F.);
#346=ORIENTED_EDGE('',*,*,#378,.F.);
#347=ORIENTED_EDGE('',*,*,#516,.T.);
#348=ORIENTED_EDGE('',*,*,#400,.F.);
#349=ORIENTED_EDGE('',*,*,#401,.T.);
#350=ORIENTED_EDGE('',*,*,#516,.F.);
#351=ORIENTED_EDGE('',*,*,#384,.T.);
#352=ORIENTED_EDGE('',*,*,#436,.T.);
#353=ORIENTED_EDGE('',*,*,#370,.F.);
#354=ORIENTED_EDGE('',*,*,#379,.F.);
#355=ORIENTED_EDGE('',*,*,#515,.T.);
#356=ORIENTED_EDGE('',*,*,#399,.F.);
#357=ORIENTED_EDGE('',*,*,#391,.T.);
#358=ORIENTED_EDGE('',*,*,#517,.T.);
#359=ORIENTED_EDGE('',*,*,#450,.T.);
#360=ORIENTED_EDGE('',*,*,#374,.F.);
#361=ORIENTED_EDGE('',*,*,#439,.T.);
#362=ORIENTED_EDGE('',*,*,#448,.F.);
#363=ORIENTED_EDGE('',*,*,#518,.F.);
#364=ORIENTED_EDGE('',*,*,#396,.F.);
#365=ORIENTED_EDGE('',*,*,#397,.T.);
#366=ORIENTED_EDGE('',*,*,#518,.T.);
#367=ORIENTED_EDGE('',*,*,#447,.T.);
#368=ORIENTED_EDGE('',*,*,#517,.F.);
#369=EDGE_CURVE('',#519,#520,#629,.T.);
#370=EDGE_CURVE('',#519,#521,#630,.T.);
#371=EDGE_CURVE('',#521,#522,#631,.T.);
#372=EDGE_CURVE('',#523,#522,#632,.T.);
#373=EDGE_CURVE('',#524,#523,#633,.T.);
#374=EDGE_CURVE('',#524,#525,#634,.T.);
#375=EDGE_CURVE('',#525,#526,#635,.T.);
#376=EDGE_CURVE('',#526,#520,#636,.T.);
#377=EDGE_CURVE('',#527,#527,#31,.T.);
#378=EDGE_CURVE('',#528,#529,#637,.T.);
#379=EDGE_CURVE('',#529,#519,#638,.T.);
#380=EDGE_CURVE('',#520,#530,#639,.T.);
#381=EDGE_CURVE('',#531,#530,#640,.T.);
#382=EDGE_CURVE('',#532,#531,#641,.T.);
#383=EDGE_CURVE('',#532,#533,#642,.T.);
#384=EDGE_CURVE('',#528,#533,#643,.T.);
#385=EDGE_CURVE('',#534,#535,#644,.T.);
#386=EDGE_CURVE('',#534,#536,#645,.T.);
#387=EDGE_CURVE('',#537,#536,#646,.T.);
#388=EDGE_CURVE('',#537,#535,#647,.T.);
#389=EDGE_CURVE('',#538,#538,#32,.F.);
#390=EDGE_CURVE('',#539,#539,#33,.F.);
#391=EDGE_CURVE('',#524,#540,#648,.T.);
#392=EDGE_CURVE('',#541,#523,#649,.T.);
#393=EDGE_CURVE('',#542,#541,#650,.T.);
#394=EDGE_CURVE('',#542,#543,#651,.T.);
#395=EDGE_CURVE('',#543,#544,#652,.T.);
#396=EDGE_CURVE('',#544,#545,#653,.T.);
#397=EDGE_CURVE('',#540,#545,#654,.T.);
#398=EDGE_CURVE('',#546,#546,#34,.T.);
#399=EDGE_CURVE('',#521,#547,#655,.T.);
#400=EDGE_CURVE('',#547,#548,#656,.T.);
#401=EDGE_CURVE('',#549,#548,#657,.T.);
#402=EDGE_CURVE('',#550,#549,#658,.T.);
#403=EDGE_CURVE('',#551,#550,#659,.T.);
#404=EDGE_CURVE('',#551,#552,#660,.T.);
#405=EDGE_CURVE('',#552,#522,#661,.T.);
#406=EDGE_CURVE('',#553,#553,#35,.T.);
#407=EDGE_CURVE('',#554,#555,#662,.T.);
#408=EDGE_CURVE('',#554,#556,#663,.T.);
#409=EDGE_CURVE('',#556,#557,#664,.T.);
#410=EDGE_CURVE('',#555,#557,#665,.T.);
#411=EDGE_CURVE('',#558,#559,#666,.T.);
#412=EDGE_CURVE('',#559,#560,#667,.T.);
#413=EDGE_CURVE('',#561,#560,#668,.T.);
#414=EDGE_CURVE('',#558,#561,#669,.T.);
#415=EDGE_CURVE('',#562,#562,#36,.T.);
#416=EDGE_CURVE('',#563,#530,#670,.T.);
#417=EDGE_CURVE('',#526,#563,#671,.T.);
#418=EDGE_CURVE('',#564,#565,#672,.T.);
#419=EDGE_CURVE('',#565,#566,#673,.T.);
#420=EDGE_CURVE('',#567,#566,#674,.T.);
#421=EDGE_CURVE('',#567,#564,#675,.T.);
#422=EDGE_CURVE('',#568,#569,#676,.T.);
#423=EDGE_CURVE('',#570,#569,#677,.T.);
#424=EDGE_CURVE('',#571,#570,#678,.T.);
#425=EDGE_CURVE('',#571,#568,#679,.T.);
#426=EDGE_CURVE('',#572,#572,#37,.F.);
#427=EDGE_CURVE('',#573,#573,#38,.F.);
#428=EDGE_CURVE('',#574,#574,#39,.T.);
#429=EDGE_CURVE('',#575,#575,#40,.F.);
#430=EDGE_CURVE('',#576,#576,#41,.F.);
#431=EDGE_CURVE('',#541,#552,#680,.T.);
#432=EDGE_CURVE('',#577,#578,#681,.T.);
#433=EDGE_CURVE('',#579,#577,#682,.T.);
#434=EDGE_CURVE('',#579,#580,#683,.T.);
#435=EDGE_CURVE('',#578,#580,#684,.T.);
#436=EDGE_CURVE('',#533,#549,#685,.T.);
#437=EDGE_CURVE('',#581,#532,#686,.T.);
#438=EDGE_CURVE('',#581,#582,#687,.T.);
#439=EDGE_CURVE('',#544,#582,#688,.T.);
#440=EDGE_CURVE('',#543,#550,#689,.T.);
#441=EDGE_CURVE('',#583,#584,#690,.T.);
#442=EDGE_CURVE('',#583,#585,#691,.T.);
#443=EDGE_CURVE('',#585,#586,#692,.T.);
#444=EDGE_CURVE('',#586,#584,#693,.F.);
#445=EDGE_CURVE('',#587,#531,#694,.T.);
#446=EDGE_CURVE('',#581,#587,#695,.T.);
#447=EDGE_CURVE('',#588,#589,#696,.T.);
#448=EDGE_CURVE('',#588,#582,#697,.T.);
#449=EDGE_CURVE('',#587,#563,#698,.T.);
#450=EDGE_CURVE('',#589,#525,#699,.T.);
#451=EDGE_CURVE('',#590,#590,#42,.T.);
#452=EDGE_CURVE('',#591,#592,#700,.T.);
#453=EDGE_CURVE('',#591,#593,#701,.T.);
#454=EDGE_CURVE('',#594,#593,#702,.F.);
#455=EDGE_CURVE('',#592,#594,#703,.T.);
#456=EDGE_CURVE('',#595,#596,#704,.T.);
#457=EDGE_CURVE('',#595,#597,#705,.T.);
#458=EDGE_CURVE('',#597,#598,#706,.T.);
#459=EDGE_CURVE('',#598,#596,#707,.F.);
#460=EDGE_CURVE('',#542,#551,#708,.T.);
#461=EDGE_CURVE('',#599,#600,#709,.T.);
#462=EDGE_CURVE('',#599,#601,#710,.T.);
#463=EDGE_CURVE('',#601,#602,#711,.T.);
#464=EDGE_CURVE('',#602,#600,#712,.F.);
#465=EDGE_CURVE('',#578,#565,#713,.T.);
#466=EDGE_CURVE('',#577,#564,#714,.T.);
#467=EDGE_CURVE('',#579,#567,#715,.T.);
#468=EDGE_CURVE('',#580,#566,#716,.T.);
#469=EDGE_CURVE('',#603,#555,#717,.T.);
#470=EDGE_CURVE('',#604,#603,#718,.T.);
#471=EDGE_CURVE('',#604,#554,#719,.T.);
#472=EDGE_CURVE('',#605,#557,#720,.T.);
#473=EDGE_CURVE('',#603,#605,#721,.T.);
#474=EDGE_CURVE('',#606,#556,#722,.T.);
#475=EDGE_CURVE('',#606,#605,#723,.T.);
#476=EDGE_CURVE('',#607,#534,#724,.T.);
#477=EDGE_CURVE('',#607,#608,#725,.T.);
#478=EDGE_CURVE('',#608,#536,#726,.T.);
#479=EDGE_CURVE('',#609,#535,#727,.T.);
#480=EDGE_CURVE('',#607,#609,#728,.T.);
#481=EDGE_CURVE('',#610,#537,#729,.T.);
#482=EDGE_CURVE('',#610,#609,#730,.T.);
#483=EDGE_CURVE('',#610,#608,#731,.T.);
#484=EDGE_CURVE('',#604,#606,#732,.T.);
#485=EDGE_CURVE('',#611,#611,#43,.T.);
#486=EDGE_CURVE('',#612,#612,#44,.T.);
#487=EDGE_CURVE('',#613,#613,#45,.T.);
#488=EDGE_CURVE('',#614,#614,#46,.T.);
#489=EDGE_CURVE('',#615,#615,#47,.T.);
#490=EDGE_CURVE('',#616,#616,#48,.T.);
#491=EDGE_CURVE('',#617,#617,#49,.T.);
#492=EDGE_CURVE('',#618,#618,#50,.T.);
#493=EDGE_CURVE('',#619,#619,#51,.T.);
#494=EDGE_CURVE('',#620,#620,#52,.T.);
#495=EDGE_CURVE('',#621,#621,#53,.T.);
#496=EDGE_CURVE('',#622,#622,#54,.T.);
#497=EDGE_CURVE('',#623,#623,#55,.T.);
#498=EDGE_CURVE('',#624,#624,#56,.T.);
#499=EDGE_CURVE('',#625,#625,#57,.T.);
#500=EDGE_CURVE('',#626,#626,#58,.T.);
#501=EDGE_CURVE('',#627,#627,#59,.T.);
#502=EDGE_CURVE('',#628,#628,#60,.T.);
#503=EDGE_CURVE('',#559,#570,#733,.T.);
#504=EDGE_CURVE('',#560,#569,#734,.T.);
#505=EDGE_CURVE('',#561,#568,#735,.T.);
#506=EDGE_CURVE('',#558,#571,#736,.T.);
#507=EDGE_CURVE('',#594,#602,#61,.T.);
#508=EDGE_CURVE('',#601,#592,#62,.T.);
#509=EDGE_CURVE('',#599,#591,#63,.T.);
#510=EDGE_CURVE('',#593,#600,#64,.T.);
#511=EDGE_CURVE('',#595,#584,#65,.T.);
#512=EDGE_CURVE('',#583,#596,#66,.T.);
#513=EDGE_CURVE('',#585,#598,#67,.T.);
#514=EDGE_CURVE('',#597,#586,#68,.T.);
#515=EDGE_CURVE('',#529,#547,#737,.T.);
#516=EDGE_CURVE('',#528,#548,#738,.T.);
#517=EDGE_CURVE('',#540,#589,#739,.T.);
#518=EDGE_CURVE('',#545,#588,#740,.T.);
#519=VERTEX_POINT('',#1661);
#520=VERTEX_POINT('',#1662);
#521=VERTEX_POINT('',#1664);
#522=VERTEX_POINT('',#1666);
#523=VERTEX_POINT('',#1668);
#524=VERTEX_POINT('',#1670);
#525=VERTEX_POINT('',#1672);
#526=VERTEX_POINT('',#1674);
#527=VERTEX_POINT('',#1678);
#528=VERTEX_POINT('',#1680);
#529=VERTEX_POINT('',#1681);
#530=VERTEX_POINT('',#1684);
#531=VERTEX_POINT('',#1686);
#532=VERTEX_POINT('',#1688);
#533=VERTEX_POINT('',#1690);
#534=VERTEX_POINT('',#1694);
#535=VERTEX_POINT('',#1695);
#536=VERTEX_POINT('',#1697);
#537=VERTEX_POINT('',#1699);
#538=VERTEX_POINT('',#1702);
#539=VERTEX_POINT('',#1704);
#540=VERTEX_POINT('',#1706);
#541=VERTEX_POINT('',#1708);
#542=VERTEX_POINT('',#1710);
#543=VERTEX_POINT('',#1712);
#544=VERTEX_POINT('',#1714);
#545=VERTEX_POINT('',#1716);
#546=VERTEX_POINT('',#1720);
#547=VERTEX_POINT('',#1722);
#548=VERTEX_POINT('',#1724);
#549=VERTEX_POINT('',#1726);
#550=VERTEX_POINT('',#1728);
#551=VERTEX_POINT('',#1730);
#552=VERTEX_POINT('',#1732);
#553=VERTEX_POINT('',#1736);
#554=VERTEX_POINT('',#1738);
#555=VERTEX_POINT('',#1739);
#556=VERTEX_POINT('',#1741);
#557=VERTEX_POINT('',#1743);
#558=VERTEX_POINT('',#1747);
#559=VERTEX_POINT('',#1748);
#560=VERTEX_POINT('',#1750);
#561=VERTEX_POINT('',#1752);
#562=VERTEX_POINT('',#1755);
#563=VERTEX_POINT('',#1757);
#564=VERTEX_POINT('',#1760);
#565=VERTEX_POINT('',#1761);
#566=VERTEX_POINT('',#1763);
#567=VERTEX_POINT('',#1765);
#568=VERTEX_POINT('',#1769);
#569=VERTEX_POINT('',#1770);
#570=VERTEX_POINT('',#1772);
#571=VERTEX_POINT('',#1774);
#572=VERTEX_POINT('',#1777);
#573=VERTEX_POINT('',#1779);
#574=VERTEX_POINT('',#1781);
#575=VERTEX_POINT('',#1783);
#576=VERTEX_POINT('',#1785);
#577=VERTEX_POINT('',#1788);
#578=VERTEX_POINT('',#1789);
#579=VERTEX_POINT('',#1791);
#580=VERTEX_POINT('',#1793);
#581=VERTEX_POINT('',#1798);
#582=VERTEX_POINT('',#1800);
#583=VERTEX_POINT('',#1805);
#584=VERTEX_POINT('',#1806);
#585=VERTEX_POINT('',#1808);
#586=VERTEX_POINT('',#1810);
#587=VERTEX_POINT('',#1813);
#588=VERTEX_POINT('',#1817);
#589=VERTEX_POINT('',#1818);
#590=VERTEX_POINT('',#1823);
#591=VERTEX_POINT('',#1826);
#592=VERTEX_POINT('',#1827);
#593=VERTEX_POINT('',#1829);
#594=VERTEX_POINT('',#1831);
#595=VERTEX_POINT('',#1835);
#596=VERTEX_POINT('',#1836);
#597=VERTEX_POINT('',#1838);
#598=VERTEX_POINT('',#1840);
#599=VERTEX_POINT('',#1845);
#600=VERTEX_POINT('',#1846);
#601=VERTEX_POINT('',#1848);
#602=VERTEX_POINT('',#1850);
#603=VERTEX_POINT('',#1864);
#604=VERTEX_POINT('',#1866);
#605=VERTEX_POINT('',#1870);
#606=VERTEX_POINT('',#1874);
#607=VERTEX_POINT('',#1878);
#608=VERTEX_POINT('',#1880);
#609=VERTEX_POINT('',#1884);
#610=VERTEX_POINT('',#1888);
#611=VERTEX_POINT('',#1897);
#612=VERTEX_POINT('',#1899);
#613=VERTEX_POINT('',#1902);
#614=VERTEX_POINT('',#1907);
#615=VERTEX_POINT('',#1909);
#616=VERTEX_POINT('',#1912);
#617=VERTEX_POINT('',#1918);
#618=VERTEX_POINT('',#1921);
#619=VERTEX_POINT('',#1923);
#620=VERTEX_POINT('',#1927);
#621=VERTEX_POINT('',#1930);
#622=VERTEX_POINT('',#1932);
#623=VERTEX_POINT('',#1938);
#624=VERTEX_POINT('',#1941);
#625=VERTEX_POINT('',#1943);
#626=VERTEX_POINT('',#1947);
#627=VERTEX_POINT('',#1950);
#628=VERTEX_POINT('',#1952);
#629=LINE('',#1660,#741);
#630=LINE('',#1663,#742);
#631=LINE('',#1665,#743);
#632=LINE('',#1667,#744);
#633=LINE('',#1669,#745);
#634=LINE('',#1671,#746);
#635=LINE('',#1673,#747);
#636=LINE('',#1675,#748);
#637=LINE('',#1679,#749);
#638=LINE('',#1682,#750);
#639=LINE('',#1683,#751);
#640=LINE('',#1685,#752);
#641=LINE('',#1687,#753);
#642=LINE('',#1689,#754);
#643=LINE('',#1691,#755);
#644=LINE('',#1693,#756);
#645=LINE('',#1696,#757);
#646=LINE('',#1698,#758);
#647=LINE('',#1700,#759);
#648=LINE('',#1705,#760);
#649=LINE('',#1707,#761);
#650=LINE('',#1709,#762);
#651=LINE('',#1711,#763);
#652=LINE('',#1713,#764);
#653=LINE('',#1715,#765);
#654=LINE('',#1717,#766);
#655=LINE('',#1721,#767);
#656=LINE('',#1723,#768);
#657=LINE('',#1725,#769);
#658=LINE('',#1727,#770);
#659=LINE('',#1729,#771);
#660=LINE('',#1731,#772);
#661=LINE('',#1733,#773);
#662=LINE('',#1737,#774);
#663=LINE('',#1740,#775);
#664=LINE('',#1742,#776);
#665=LINE('',#1744,#777);
#666=LINE('',#1746,#778);
#667=LINE('',#1749,#779);
#668=LINE('',#1751,#780);
#669=LINE('',#1753,#781);
#670=LINE('',#1756,#782);
#671=LINE('',#1758,#783);
#672=LINE('',#1759,#784);
#673=LINE('',#1762,#785);
#674=LINE('',#1764,#786);
#675=LINE('',#1766,#787);
#676=LINE('',#1768,#788);
#677=LINE('',#1771,#789);
#678=LINE('',#1773,#790);
#679=LINE('',#1775,#791);
#680=LINE('',#1786,#792);
#681=LINE('',#1787,#793);
#682=LINE('',#1790,#794);
#683=LINE('',#1792,#795);
#684=LINE('',#1794,#796);
#685=LINE('',#1796,#797);
#686=LINE('',#1797,#798);
#687=LINE('',#1799,#799);
#688=LINE('',#1801,#800);
#689=LINE('',#1802,#801);
#690=LINE('',#1804,#802);
#691=LINE('',#1807,#803);
#692=LINE('',#1809,#804);
#693=LINE('',#1811,#805);
#694=LINE('',#1812,#806);
#695=LINE('',#1814,#807);
#696=LINE('',#1816,#808);
#697=LINE('',#1819,#809);
#698=LINE('',#1820,#810);
#699=LINE('',#1821,#811);
#700=LINE('',#1825,#812);
#701=LINE('',#1828,#813);
#702=LINE('',#1830,#814);
#703=LINE('',#1832,#815);
#704=LINE('',#1834,#816);
#705=LINE('',#1837,#817);
#706=LINE('',#1839,#818);
#707=LINE('',#1841,#819);
#708=LINE('',#1842,#820);
#709=LINE('',#1844,#821);
#710=LINE('',#1847,#822);
#711=LINE('',#1849,#823);
#712=LINE('',#1851,#824);
#713=LINE('',#1853,#825);
#714=LINE('',#1854,#826);
#715=LINE('',#1856,#827);
#716=LINE('',#1858,#828);
#717=LINE('',#1863,#829);
#718=LINE('',#1865,#830);
#719=LINE('',#1867,#831);
#720=LINE('',#1869,#832);
#721=LINE('',#1871,#833);
#722=LINE('',#1873,#834);
#723=LINE('',#1875,#835);
#724=LINE('',#1877,#836);
#725=LINE('',#1879,#837);
#726=LINE('',#1881,#838);
#727=LINE('',#1883,#839);
#728=LINE('',#1885,#840);
#729=LINE('',#1887,#841);
#730=LINE('',#1889,#842);
#731=LINE('',#1891,#843);
#732=LINE('',#1893,#844);
#733=LINE('',#1957,#845);
#734=LINE('',#1958,#846);
#735=LINE('',#1960,#847);
#736=LINE('',#1962,#848);
#737=LINE('',#1981,#849);
#738=LINE('',#1982,#850);
#739=LINE('',#1986,#851);
#740=LINE('',#1988,#852);
#741=VECTOR('',#1330,1.);
#742=VECTOR('',#1331,1.);
#743=VECTOR('',#1332,1.);
#744=VECTOR('',#1333,1.);
#745=VECTOR('',#1334,1.);
#746=VECTOR('',#1335,1.);
#747=VECTOR('',#1336,1.);
#748=VECTOR('',#1337,1.);
#749=VECTOR('',#1342,1.);
#750=VECTOR('',#1343,1.);
#751=VECTOR('',#1344,1.);
#752=VECTOR('',#1345,1.);
#753=VECTOR('',#1346,1.);
#754=VECTOR('',#1347,1.);
#755=VECTOR('',#1348,1.);
#756=VECTOR('',#1351,1.);
#757=VECTOR('',#1352,1.);
#758=VECTOR('',#1353,1.);
#759=VECTOR('',#1354,1.);
#760=VECTOR('',#1359,1.);
#761=VECTOR('',#1360,1.);
#762=VECTOR('',#1361,1.);
#763=VECTOR('',#1362,1.);
#764=VECTOR('',#1363,1.);
#765=VECTOR('',#1364,1.);
#766=VECTOR('',#1365,1.);
#767=VECTOR('',#1370,1.);
#768=VECTOR('',#1371,1.);
#769=VECTOR('',#1372,1.);
#770=VECTOR('',#1373,1.);
#771=VECTOR('',#1374,1.);
#772=VECTOR('',#1375,1.);
#773=VECTOR('',#1376,1.);
#774=VECTOR('',#1381,1.);
#775=VECTOR('',#1382,1.);
#776=VECTOR('',#1383,1.);
#777=VECTOR('',#1384,1.);
#778=VECTOR('',#1387,1.);
#779=VECTOR('',#1388,1.);
#780=VECTOR('',#1389,1.);
#781=VECTOR('',#1390,1.);
#782=VECTOR('',#1393,1.);
#783=VECTOR('',#1394,1.);
#784=VECTOR('',#1395,1.);
#785=VECTOR('',#1396,1.);
#786=VECTOR('',#1397,1.);
#787=VECTOR('',#1398,1.);
#788=VECTOR('',#1401,1.);
#789=VECTOR('',#1402,1.);
#790=VECTOR('',#1403,1.);
#791=VECTOR('',#1404,1.);
#792=VECTOR('',#1415,1.);
#793=VECTOR('',#1416,1.);
#794=VECTOR('',#1417,1.);
#795=VECTOR('',#1418,1.);
#796=VECTOR('',#1419,1.);
#797=VECTOR('',#1422,1.);
#798=VECTOR('',#1423,1.);
#799=VECTOR('',#1424,1.);
#800=VECTOR('',#1425,1.);
#801=VECTOR('',#1426,1.);
#802=VECTOR('',#1429,1.);
#803=VECTOR('',#1430,1.);
#804=VECTOR('',#1431,1.);
#805=VECTOR('',#1432,1.);
#806=VECTOR('',#1433,1.);
#807=VECTOR('',#1434,1.);
#808=VECTOR('',#1437,1.);
#809=VECTOR('',#1438,1.);
#810=VECTOR('',#1439,1.);
#811=VECTOR('',#1440,1.);
#812=VECTOR('',#1445,1.);
#813=VECTOR('',#1446,1.);
#814=VECTOR('',#1447,1.);
#815=VECTOR('',#1448,1.);
#816=VECTOR('',#1451,1.);
#817=VECTOR('',#1452,1.);
#818=VECTOR('',#1453,1.);
#819=VECTOR('',#1454,1.);
#820=VECTOR('',#1455,1.);
#821=VECTOR('',#1458,1.);
#822=VECTOR('',#1459,1.);
#823=VECTOR('',#1460,1.);
#824=VECTOR('',#1461,1.);
#825=VECTOR('',#1464,1.);
#826=VECTOR('',#1465,1.);
#827=VECTOR('',#1468,1.);
#828=VECTOR('',#1471,1.);
#829=VECTOR('',#1480,1.);
#830=VECTOR('',#1481,1.);
#831=VECTOR('',#1482,1.);
#832=VECTOR('',#1485,1.);
#833=VECTOR('',#1486,1.);
#834=VECTOR('',#1489,1.);
#835=VECTOR('',#1490,1.);
#836=VECTOR('',#1493,1.);
#837=VECTOR('',#1494,1.);
#838=VECTOR('',#1495,1.);
#839=VECTOR('',#1498,1.);
#840=VECTOR('',#1499,1.);
#841=VECTOR('',#1502,1.);
#842=VECTOR('',#1503,1.);
#843=VECTOR('',#1506,1.);
#844=VECTOR('',#1509,1.);
#845=VECTOR('',#1600,1.);
#846=VECTOR('',#1601,1.);
#847=VECTOR('',#1604,1.);
#848=VECTOR('',#1607,1.);
#849=VECTOR('',#1644,1.);
#850=VECTOR('',#1645,1.);
#851=VECTOR('',#1652,1.);
#852=VECTOR('',#1655,1.);
#853=EDGE_LOOP('',(#69,#70,#71,#72,#73,#74,#75,#76));
#854=EDGE_LOOP('',(#77));
#855=EDGE_LOOP('',(#78,#79,#80,#81,#82,#83,#84,#85));
#856=EDGE_LOOP('',(#86,#87,#88,#89));
#857=EDGE_LOOP('',(#90));
#858=EDGE_LOOP('',(#91));
#859=EDGE_LOOP('',(#92,#93,#94,#95,#96,#97,#98,#99));
#860=EDGE_LOOP('',(#100));
#861=EDGE_LOOP('',(#101,#102,#103,#104,#105,#106,#107,#108));
#862=EDGE_LOOP('',(#109));
#863=EDGE_LOOP('',(#110,#111,#112,#113));
#864=EDGE_LOOP('',(#114,#115,#116,#117));
#865=EDGE_LOOP('',(#118));
#866=EDGE_LOOP('',(#119,#120,#121,#122));
#867=EDGE_LOOP('',(#123,#124,#125,#126));
#868=EDGE_LOOP('',(#127,#128,#129,#130));
#869=EDGE_LOOP('',(#131));
#870=EDGE_LOOP('',(#132));
#871=EDGE_LOOP('',(#133));
#872=EDGE_LOOP('',(#134));
#873=EDGE_LOOP('',(#135));
#874=EDGE_LOOP('',(#136,#137,#138,#139));
#875=EDGE_LOOP('',(#140,#141,#142,#143));
#876=EDGE_LOOP('',(#144,#145,#146,#147,#148,#149,#150,#151));
#877=EDGE_LOOP('',(#152,#153,#154,#155));
#878=EDGE_LOOP('',(#156,#157,#158,#159));
#879=EDGE_LOOP('',(#160,#161,#162,#163,#164,#165,#166,#167));
#880=EDGE_LOOP('',(#168));
#881=EDGE_LOOP('',(#169,#170,#171,#172));
#882=EDGE_LOOP('',(#173,#174,#175,#176));
#883=EDGE_LOOP('',(#177,#178,#179,#180));
#884=EDGE_LOOP('',(#181,#182,#183,#184));
#885=EDGE_LOOP('',(#185,#186,#187,#188));
#886=EDGE_LOOP('',(#189,#190,#191,#192));
#887=EDGE_LOOP('',(#193,#194,#195,#196));
#888=EDGE_LOOP('',(#197,#198,#199,#200));
#889=EDGE_LOOP('',(#201,#202,#203,#204));
#890=EDGE_LOOP('',(#205,#206,#207,#208));
#891=EDGE_LOOP('',(#209));
#892=EDGE_LOOP('',(#210));
#893=EDGE_LOOP('',(#211));
#894=EDGE_LOOP('',(#212));
#895=EDGE_LOOP('',(#213,#214,#215,#216));
#896=EDGE_LOOP('',(#217,#218,#219,#220));
#897=EDGE_LOOP('',(#221,#222,#223,#224));
#898=EDGE_LOOP('',(#225,#226,#227,#228));
#899=EDGE_LOOP('',(#229,#230,#231,#232));
#900=EDGE_LOOP('',(#233,#234,#235,#236));
#901=EDGE_LOOP('',(#237,#238,#239,#240));
#902=EDGE_LOOP('',(#241,#242,#243,#244));
#903=EDGE_LOOP('',(#245,#246,#247,#248));
#904=EDGE_LOOP('',(#249,#250,#251,#252));
#905=EDGE_LOOP('',(#253));
#906=EDGE_LOOP('',(#254));
#907=EDGE_LOOP('',(#255));
#908=EDGE_LOOP('',(#256));
#909=EDGE_LOOP('',(#257));
#910=EDGE_LOOP('',(#258));
#911=EDGE_LOOP('',(#259));
#912=EDGE_LOOP('',(#260));
#913=EDGE_LOOP('',(#261));
#914=EDGE_LOOP('',(#262));
#915=EDGE_LOOP('',(#263));
#916=EDGE_LOOP('',(#264));
#917=EDGE_LOOP('',(#265));
#918=EDGE_LOOP('',(#266));
#919=EDGE_LOOP('',(#267));
#920=EDGE_LOOP('',(#268));
#921=EDGE_LOOP('',(#269));
#922=EDGE_LOOP('',(#270));
#923=EDGE_LOOP('',(#271));
#924=EDGE_LOOP('',(#272));
#925=EDGE_LOOP('',(#273));
#926=EDGE_LOOP('',(#274));
#927=EDGE_LOOP('',(#275));
#928=EDGE_LOOP('',(#276));
#929=EDGE_LOOP('',(#277));
#930=EDGE_LOOP('',(#278));
#931=EDGE_LOOP('',(#279));
#932=EDGE_LOOP('',(#280));
#933=EDGE_LOOP('',(#281));
#934=EDGE_LOOP('',(#282));
#935=EDGE_LOOP('',(#283));
#936=EDGE_LOOP('',(#284));
#937=EDGE_LOOP('',(#285));
#938=EDGE_LOOP('',(#286));
#939=EDGE_LOOP('',(#287));
#940=EDGE_LOOP('',(#288));
#941=EDGE_LOOP('',(#289));
#942=EDGE_LOOP('',(#290));
#943=EDGE_LOOP('',(#291));
#944=EDGE_LOOP('',(#292));
#945=EDGE_LOOP('',(#293));
#946=EDGE_LOOP('',(#294));
#947=EDGE_LOOP('',(#295));
#948=EDGE_LOOP('',(#296));
#949=EDGE_LOOP('',(#297,#298,#299,#300));
#950=EDGE_LOOP('',(#301,#302,#303,#304));
#951=EDGE_LOOP('',(#305,#306,#307,#308));
#952=EDGE_LOOP('',(#309,#310,#311,#312));
#953=EDGE_LOOP('',(#313,#314,#315,#316));
#954=EDGE_LOOP('',(#317,#318,#319,#320));
#955=EDGE_LOOP('',(#321,#322,#323,#324));
#956=EDGE_LOOP('',(#325,#326,#327,#328));
#957=EDGE_LOOP('',(#329,#330,#331,#332));
#958=EDGE_LOOP('',(#333,#334,#335,#336));
#959=EDGE_LOOP('',(#337,#338,#339,#340));
#960=EDGE_LOOP('',(#341,#342,#343,#344));
#961=EDGE_LOOP('',(#345,#346,#347,#348));
#962=EDGE_LOOP('',(#349,#350,#351,#352));
#963=EDGE_LOOP('',(#353,#354,#355,#356));
#964=EDGE_LOOP('',(#357,#358,#359,#360));
#965=EDGE_LOOP('',(#361,#362,#363,#364));
#966=EDGE_LOOP('',(#365,#366,#367,#368));
#967=FACE_BOUND('',#853,.T.);
#968=FACE_BOUND('',#854,.T.);
#969=FACE_BOUND('',#855,.T.);
#970=FACE_BOUND('',#856,.T.);
#971=FACE_BOUND('',#857,.T.);
#972=FACE_BOUND('',#858,.T.);
#973=FACE_BOUND('',#859,.T.);
#974=FACE_BOUND('',#860,.T.);
#975=FACE_BOUND('',#861,.T.);
#976=FACE_BOUND('',#862,.T.);
#977=FACE_BOUND('',#863,.T.);
#978=FACE_BOUND('',#864,.T.);
#979=FACE_BOUND('',#865,.T.);
#980=FACE_BOUND('',#866,.T.);
#981=FACE_BOUND('',#867,.T.);
#982=FACE_BOUND('',#868,.T.);
#983=FACE_BOUND('',#869,.T.);
#984=FACE_BOUND('',#870,.T.);
#985=FACE_BOUND('',#871,.T.);
#986=FACE_BOUND('',#872,.T.);
#987=FACE_BOUND('',#873,.T.);
#988=FACE_BOUND('',#874,.T.);
#989=FACE_BOUND('',#875,.T.);
#990=FACE_BOUND('',#876,.T.);
#991=FACE_BOUND('',#877,.T.);
#992=FACE_BOUND('',#878,.T.);
#993=FACE_BOUND('',#879,.T.);
#994=FACE_BOUND('',#880,.T.);
#995=FACE_BOUND('',#881,.T.);
#996=FACE_BOUND('',#882,.T.);
#997=FACE_BOUND('',#883,.T.);
#998=FACE_BOUND('',#884,.T.);
#999=FACE_BOUND('',#885,.T.);
#1000=FACE_BOUND('',#886,.T.);
#1001=FACE_BOUND('',#887,.T.);
#1002=FACE_BOUND('',#888,.T.);
#1003=FACE_BOUND('',#889,.T.);
#1004=FACE_BOUND('',#890,.T.);
#1005=FACE_BOUND('',#891,.T.);
#1006=FACE_BOUND('',#892,.T.);
#1007=FACE_BOUND('',#893,.T.);
#1008=FACE_BOUND('',#894,.T.);
#1009=FACE_BOUND('',#895,.T.);
#1010=FACE_BOUND('',#896,.T.);
#1011=FACE_BOUND('',#897,.T.);
#1012=FACE_BOUND('',#898,.T.);
#1013=FACE_BOUND('',#899,.T.);
#1014=FACE_BOUND('',#900,.T.);
#1015=FACE_BOUND('',#901,.T.);
#1016=FACE_BOUND('',#902,.T.);
#1017=FACE_BOUND('',#903,.T.);
#1018=FACE_BOUND('',#904,.T.);
#1019=FACE_BOUND('',#905,.T.);
#1020=FACE_BOUND('',#906,.T.);
#1021=FACE_BOUND('',#907,.T.);
#1022=FACE_BOUND('',#908,.T.);
#1023=FACE_BOUND('',#909,.T.);
#1024=FACE_BOUND('',#910,.T.);
#1025=FACE_BOUND('',#911,.T.);
#1026=FACE_BOUND('',#912,.T.);
#1027=FACE_BOUND('',#913,.T.);
#1028=FACE_BOUND('',#914,.T.);
#1029=FACE_BOUND('',#915,.T.);
#1030=FACE_BOUND('',#916,.T.);
#1031=FACE_BOUND('',#917,.T.);
#1032=FACE_BOUND('',#918,.T.);
#1033=FACE_BOUND('',#919,.T.);
#1034=FACE_BOUND('',#920,.T.);
#1035=FACE_BOUND('',#921,.T.);
#1036=FACE_BOUND('',#922,.T.);
#1037=FACE_BOUND('',#923,.T.);
#1038=FACE_BOUND('',#924,.T.);
#1039=FACE_BOUND('',#925,.T.);
#1040=FACE_BOUND('',#926,.T.);
#1041=FACE_BOUND('',#927,.T.);
#1042=FACE_BOUND('',#928,.T.);
#1043=FACE_BOUND('',#929,.T.);
#1044=FACE_BOUND('',#930,.T.);
#1045=FACE_BOUND('',#931,.T.);
#1046=FACE_BOUND('',#932,.T.);
#1047=FACE_BOUND('',#933,.T.);
#1048=FACE_BOUND('',#934,.T.);
#1049=FACE_BOUND('',#935,.T.);
#1050=FACE_BOUND('',#936,.T.);
#1051=FACE_BOUND('',#937,.T.);
#1052=FACE_BOUND('',#938,.T.);
#1053=FACE_BOUND('',#939,.T.);
#1054=FACE_BOUND('',#940,.T.);
#1055=FACE_BOUND('',#941,.T.);
#1056=FACE_BOUND('',#942,.T.);
#1057=FACE_BOUND('',#943,.T.);
#1058=FACE_BOUND('',#944,.T.);
#1059=FACE_BOUND('',#945,.T.);
#1060=FACE_BOUND('',#946,.T.);
#1061=FACE_BOUND('',#947,.T.);
#1062=FACE_BOUND('',#948,.T.);
#1063=FACE_BOUND('',#949,.T.);
#1064=FACE_BOUND('',#950,.T.);
#1065=FACE_BOUND('',#951,.T.);
#1066=FACE_BOUND('',#952,.T.);
#1067=FACE_BOUND('',#953,.T.);
#1068=FACE_BOUND('',#954,.T.);
#1069=FACE_BOUND('',#955,.T.);
#1070=FACE_BOUND('',#956,.T.);
#1071=FACE_BOUND('',#957,.T.);
#1072=FACE_BOUND('',#958,.T.);
#1073=FACE_BOUND('',#959,.T.);
#1074=FACE_BOUND('',#960,.T.);
#1075=FACE_BOUND('',#961,.T.);
#1076=FACE_BOUND('',#962,.T.);
#1077=FACE_BOUND('',#963,.T.);
#1078=FACE_BOUND('',#964,.T.);
#1079=FACE_BOUND('',#965,.T.);
#1080=FACE_BOUND('',#966,.T.);
#1081=PLANE('',#1217);
#1082=PLANE('',#1218);
#1083=PLANE('',#1220);
#1084=PLANE('',#1223);
#1085=PLANE('',#1225);
#1086=PLANE('',#1227);
#1087=PLANE('',#1229);
#1088=PLANE('',#1235);
#1089=PLANE('',#1236);
#1090=PLANE('',#1237);
#1091=PLANE('',#1239);
#1092=PLANE('',#1240);
#1093=PLANE('',#1241);
#1094=PLANE('',#1242);
#1095=PLANE('',#1243);
#1096=PLANE('',#1244);
#1097=PLANE('',#1245);
#1098=PLANE('',#1248);
#1099=PLANE('',#1249);
#1100=PLANE('',#1250);
#1101=PLANE('',#1251);
#1102=PLANE('',#1252);
#1103=PLANE('',#1253);
#1104=PLANE('',#1254);
#1105=PLANE('',#1255);
#1106=PLANE('',#1256);
#1107=PLANE('',#1262);
#1108=PLANE('',#1263);
#1109=PLANE('',#1269);
#1110=PLANE('',#1270);
#1111=PLANE('',#1277);
#1112=PLANE('',#1283);
#1113=PLANE('',#1284);
#1114=PLANE('',#1285);
#1115=PLANE('',#1291);
#1116=PLANE('',#1297);
#1117=PLANE('',#1298);
#1118=PLANE('',#1299);
#1119=PLANE('',#1300);
#1120=PLANE('',#1301);
#1121=PLANE('',#1302);
#1122=PLANE('',#1303);
#1123=PLANE('',#1304);
#1124=PLANE('',#1307);
#1125=PLANE('',#1312);
#1126=PLANE('',#1315);
#1127=PLANE('',#1320);
#1128=PLANE('',#1321);
#1129=PLANE('',#1322);
#1130=PLANE('',#1323);
#1131=PLANE('',#1324);
#1132=PLANE('',#1325);
#1133=ADVANCED_FACE('',(#967),#1081,.T.);
#1134=ADVANCED_FACE('',(#968,#969),#1082,.T.);
#1135=ADVANCED_FACE('',(#970,#971,#972,#973),#1083,.F.);
#1136=ADVANCED_FACE('',(#974,#975),#1084,.T.);
#1137=ADVANCED_FACE('',(#976,#977),#1085,.F.);
#1138=ADVANCED_FACE('',(#978,#979,#980,#981),#1086,.F.);
#1139=ADVANCED_FACE('',(#982,#983,#984,#985,#986,#987,#988,#989),#1087,
 .F.);
#1140=ADVANCED_FACE('',(#990),#1088,.T.);
#1141=ADVANCED_FACE('',(#991,#992),#1089,.T.);
#1142=ADVANCED_FACE('',(#993,#994),#1090,.F.);
#1143=ADVANCED_FACE('',(#995,#996),#1091,.F.);
#1144=ADVANCED_FACE('',(#997,#998),#1092,.T.);
#1145=ADVANCED_FACE('',(#999,#1000),#1093,.T.);
#1146=ADVANCED_FACE('',(#1001),#1094,.T.);
#1147=ADVANCED_FACE('',(#1002),#1095,.T.);
#1148=ADVANCED_FACE('',(#1003),#1096,.F.);
#1149=ADVANCED_FACE('',(#1004),#1097,.T.);
#1150=ADVANCED_FACE('',(#1005,#1006),#12,.F.);
#1151=ADVANCED_FACE('',(#1007,#1008),#13,.F.);
#1152=ADVANCED_FACE('',(#1009),#1098,.F.);
#1153=ADVANCED_FACE('',(#1010),#1099,.F.);
#1154=ADVANCED_FACE('',(#1011),#1100,.T.);
#1155=ADVANCED_FACE('',(#1012),#1101,.T.);
#1156=ADVANCED_FACE('',(#1013),#1102,.F.);
#1157=ADVANCED_FACE('',(#1014),#1103,.T.);
#1158=ADVANCED_FACE('',(#1015),#1104,.F.);
#1159=ADVANCED_FACE('',(#1016),#1105,.T.);
#1160=ADVANCED_FACE('',(#1017,#1018),#1106,.T.);
#1161=ADVANCED_FACE('',(#1019,#1020),#14,.F.);
#1162=ADVANCED_FACE('',(#1021,#1022),#15,.T.);
#1163=ADVANCED_FACE('',(#1023,#1024),#1107,.T.);
#1164=ADVANCED_FACE('',(#1025),#1108,.F.);
#1165=ADVANCED_FACE('',(#1026,#1027),#16,.F.);
#1166=ADVANCED_FACE('',(#1028,#1029),#17,.T.);
#1167=ADVANCED_FACE('',(#1030,#1031),#1109,.T.);
#1168=ADVANCED_FACE('',(#1032),#1110,.F.);
#1169=ADVANCED_FACE('',(#1033,#1034),#18,.F.);
#1170=ADVANCED_FACE('',(#1035,#1036),#19,.T.);
#1171=ADVANCED_FACE('',(#1037,#1038),#20,.F.);
#1172=ADVANCED_FACE('',(#1039,#1040),#1111,.T.);
#1173=ADVANCED_FACE('',(#1041,#1042),#21,.T.);
#1174=ADVANCED_FACE('',(#1043,#1044),#22,.F.);
#1175=ADVANCED_FACE('',(#1045,#1046),#1112,.T.);
#1176=ADVANCED_FACE('',(#1047),#1113,.F.);
#1177=ADVANCED_FACE('',(#1048),#1114,.F.);
#1178=ADVANCED_FACE('',(#1049,#1050),#23,.T.);
#1179=ADVANCED_FACE('',(#1051,#1052),#24,.F.);
#1180=ADVANCED_FACE('',(#1053,#1054),#1115,.T.);
#1181=ADVANCED_FACE('',(#1055,#1056),#25,.T.);
#1182=ADVANCED_FACE('',(#1057,#1058),#26,.F.);
#1183=ADVANCED_FACE('',(#1059,#1060),#1116,.T.);
#1184=ADVANCED_FACE('',(#1061),#1117,.F.);
#1185=ADVANCED_FACE('',(#1062),#1118,.F.);
#1186=ADVANCED_FACE('',(#1063),#1119,.F.);
#1187=ADVANCED_FACE('',(#1064),#1120,.T.);
#1188=ADVANCED_FACE('',(#1065),#1121,.T.);
#1189=ADVANCED_FACE('',(#1066),#1122,.F.);
#1190=ADVANCED_FACE('',(#1067),#1123,.T.);
#1191=ADVANCED_FACE('',(#1068),#1124,.F.);
#1192=ADVANCED_FACE('',(#1069),#27,.F.);
#1193=ADVANCED_FACE('',(#1070),#28,.F.);
#1194=ADVANCED_FACE('',(#1071),#1125,.F.);
#1195=ADVANCED_FACE('',(#1072),#1126,.T.);
#1196=ADVANCED_FACE('',(#1073),#29,.F.);
#1197=ADVANCED_FACE('',(#1074),#30,.F.);
#1198=ADVANCED_FACE('',(#1075),#1127,.T.);
#1199=ADVANCED_FACE('',(#1076),#1128,.F.);
#1200=ADVANCED_FACE('',(#1077),#1129,.T.);
#1201=ADVANCED_FACE('',(#1078),#1130,.T.);
#1202=ADVANCED_FACE('',(#1079),#1131,.F.);
#1203=ADVANCED_FACE('',(#1080),#1132,.T.);
#1204=CLOSED_SHELL('',(#1133,#1134,#1135,#1136,#1137,#1138,#1139,#1140,
#1141,#1142,#1143,#1144,#1145,#1146,#1147,#1148,#1149,#1150,#1151,#1152,
#1153,#1154,#1155,#1156,#1157,#1158,#1159,#1160,#1161,#1162,#1163,#1164,
#1165,#1166,#1167,#1168,#1169,#1170,#1171,#1172,#1173,#1174,#1175,#1176,
#1177,#1178,#1179,#1180,#1181,#1182,#1183,#1184,#1185,#1186,#1187,#1188,
#1189,#1190,#1191,#1192,#1193,#1194,#1195,#1196,#1197,#1198,#1199,#1200,
#1201,#1202,#1203));
#1205=STYLED_ITEM('',(#1206),#1213);
#1206=PRESENTATION_STYLE_ASSIGNMENT((#1207));
#1207=SURFACE_STYLE_USAGE(.BOTH.,#1208);
#1208=SURFACE_SIDE_STYLE('',(#1209));
#1209=SURFACE_STYLE_FILL_AREA(#1210);
#1210=FILL_AREA_STYLE('',(#1211));
#1211=FILL_AREA_STYLE_COLOUR('',#1212);
#1212=COLOUR_RGB('',0.615686274509804,0.811764705882353,0.929411764705882);
#1213=MANIFOLD_SOLID_BREP('Part 1',#1204);
#1214=SHAPE_DEFINITION_REPRESENTATION(#1996,#1215);
#1215=SHAPE_REPRESENTATION('Part 1',(#1216),#1991);
#1216=AXIS2_PLACEMENT_3D('',#1658,#1326,#1327);
#1217=AXIS2_PLACEMENT_3D('',#1659,#1328,#1329);
#1218=AXIS2_PLACEMENT_3D('',#1676,#1338,#1339);
#1219=AXIS2_PLACEMENT_3D('',#1677,#1340,#1341);
#1220=AXIS2_PLACEMENT_3D('',#1692,#1349,#1350);
#1221=AXIS2_PLACEMENT_3D('',#1701,#1355,#1356);
#1222=AXIS2_PLACEMENT_3D('',#1703,#1357,#1358);
#1223=AXIS2_PLACEMENT_3D('',#1718,#1366,#1367);
#1224=AXIS2_PLACEMENT_3D('',#1719,#1368,#1369);
#1225=AXIS2_PLACEMENT_3D('',#1734,#1377,#1378);
#1226=AXIS2_PLACEMENT_3D('',#1735,#1379,#1380);
#1227=AXIS2_PLACEMENT_3D('',#1745,#1385,#1386);
#1228=AXIS2_PLACEMENT_3D('',#1754,#1391,#1392);
#1229=AXIS2_PLACEMENT_3D('',#1767,#1399,#1400);
#1230=AXIS2_PLACEMENT_3D('',#1776,#1405,#1406);
#1231=AXIS2_PLACEMENT_3D('',#1778,#1407,#1408);
#1232=AXIS2_PLACEMENT_3D('',#1780,#1409,#1410);
#1233=AXIS2_PLACEMENT_3D('',#1782,#1411,#1412);
#1234=AXIS2_PLACEMENT_3D('',#1784,#1413,#1414);
#1235=AXIS2_PLACEMENT_3D('',#1795,#1420,#1421);
#1236=AXIS2_PLACEMENT_3D('',#1803,#1427,#1428);
#1237=AXIS2_PLACEMENT_3D('',#1815,#1435,#1436);
#1238=AXIS2_PLACEMENT_3D('',#1822,#1441,#1442);
#1239=AXIS2_PLACEMENT_3D('',#1824,#1443,#1444);
#1240=AXIS2_PLACEMENT_3D('',#1833,#1449,#1450);
#1241=AXIS2_PLACEMENT_3D('',#1843,#1456,#1457);
#1242=AXIS2_PLACEMENT_3D('',#1852,#1462,#1463);
#1243=AXIS2_PLACEMENT_3D('',#1855,#1466,#1467);
#1244=AXIS2_PLACEMENT_3D('',#1857,#1469,#1470);
#1245=AXIS2_PLACEMENT_3D('',#1859,#1472,#1473);
#1246=AXIS2_PLACEMENT_3D('',#1860,#1474,#1475);
#1247=AXIS2_PLACEMENT_3D('',#1861,#1476,#1477);
#1248=AXIS2_PLACEMENT_3D('',#1862,#1478,#1479);
#1249=AXIS2_PLACEMENT_3D('',#1868,#1483,#1484);
#1250=AXIS2_PLACEMENT_3D('',#1872,#1487,#1488);
#1251=AXIS2_PLACEMENT_3D('',#1876,#1491,#1492);
#1252=AXIS2_PLACEMENT_3D('',#1882,#1496,#1497);
#1253=AXIS2_PLACEMENT_3D('',#1886,#1500,#1501);
#1254=AXIS2_PLACEMENT_3D('',#1890,#1504,#1505);
#1255=AXIS2_PLACEMENT_3D('',#1892,#1507,#1508);
#1256=AXIS2_PLACEMENT_3D('',#1894,#1510,#1511);
#1257=AXIS2_PLACEMENT_3D('',#1895,#1512,#1513);
#1258=AXIS2_PLACEMENT_3D('',#1896,#1514,#1515);
#1259=AXIS2_PLACEMENT_3D('',#1898,#1516,#1517);
#1260=AXIS2_PLACEMENT_3D('',#1900,#1518,#1519);
#1261=AXIS2_PLACEMENT_3D('',#1901,#1520,#1521);
#1262=AXIS2_PLACEMENT_3D('',#1903,#1522,#1523);
#1263=AXIS2_PLACEMENT_3D('',#1904,#1524,#1525);
#1264=AXIS2_PLACEMENT_3D('',#1905,#1526,#1527);
#1265=AXIS2_PLACEMENT_3D('',#1906,#1528,#1529);
#1266=AXIS2_PLACEMENT_3D('',#1908,#1530,#1531);
#1267=AXIS2_PLACEMENT_3D('',#1910,#1532,#1533);
#1268=AXIS2_PLACEMENT_3D('',#1911,#1534,#1535);
#1269=AXIS2_PLACEMENT_3D('',#1913,#1536,#1537);
#1270=AXIS2_PLACEMENT_3D('',#1914,#1538,#1539);
#1271=AXIS2_PLACEMENT_3D('',#1915,#1540,#1541);
#1272=AXIS2_PLACEMENT_3D('',#1916,#1542,#1543);
#1273=AXIS2_PLACEMENT_3D('',#1917,#1544,#1545);
#1274=AXIS2_PLACEMENT_3D('',#1919,#1546,#1547);
#1275=AXIS2_PLACEMENT_3D('',#1920,#1548,#1549);
#1276=AXIS2_PLACEMENT_3D('',#1922,#1550,#1551);
#1277=AXIS2_PLACEMENT_3D('',#1924,#1552,#1553);
#1278=AXIS2_PLACEMENT_3D('',#1925,#1554,#1555);
#1279=AXIS2_PLACEMENT_3D('',#1926,#1556,#1557);
#1280=AXIS2_PLACEMENT_3D('',#1928,#1558,#1559);
#1281=AXIS2_PLACEMENT_3D('',#1929,#1560,#1561);
#1282=AXIS2_PLACEMENT_3D('',#1931,#1562,#1563);
#1283=AXIS2_PLACEMENT_3D('',#1933,#1564,#1565);
#1284=AXIS2_PLACEMENT_3D('',#1934,#1566,#1567);
#1285=AXIS2_PLACEMENT_3D('',#1935,#1568,#1569);
#1286=AXIS2_PLACEMENT_3D('',#1936,#1570,#1571);
#1287=AXIS2_PLACEMENT_3D('',#1937,#1572,#1573);
#1288=AXIS2_PLACEMENT_3D('',#1939,#1574,#1575);
#1289=AXIS2_PLACEMENT_3D('',#1940,#1576,#1577);
#1290=AXIS2_PLACEMENT_3D('',#1942,#1578,#1579);
#1291=AXIS2_PLACEMENT_3D('',#1944,#1580,#1581);
#1292=AXIS2_PLACEMENT_3D('',#1945,#1582,#1583);
#1293=AXIS2_PLACEMENT_3D('',#1946,#1584,#1585);
#1294=AXIS2_PLACEMENT_3D('',#1948,#1586,#1587);
#1295=AXIS2_PLACEMENT_3D('',#1949,#1588,#1589);
#1296=AXIS2_PLACEMENT_3D('',#1951,#1590,#1591);
#1297=AXIS2_PLACEMENT_3D('',#1953,#1592,#1593);
#1298=AXIS2_PLACEMENT_3D('',#1954,#1594,#1595);
#1299=AXIS2_PLACEMENT_3D('',#1955,#1596,#1597);
#1300=AXIS2_PLACEMENT_3D('',#1956,#1598,#1599);
#1301=AXIS2_PLACEMENT_3D('',#1959,#1602,#1603);
#1302=AXIS2_PLACEMENT_3D('',#1961,#1605,#1606);
#1303=AXIS2_PLACEMENT_3D('',#1963,#1608,#1609);
#1304=AXIS2_PLACEMENT_3D('',#1964,#1610,#1611);
#1305=AXIS2_PLACEMENT_3D('',#1965,#1612,#1613);
#1306=AXIS2_PLACEMENT_3D('',#1966,#1614,#1615);
#1307=AXIS2_PLACEMENT_3D('',#1967,#1616,#1617);
#1308=AXIS2_PLACEMENT_3D('',#1968,#1618,#1619);
#1309=AXIS2_PLACEMENT_3D('',#1969,#1620,#1621);
#1310=AXIS2_PLACEMENT_3D('',#1970,#1622,#1623);
#1311=AXIS2_PLACEMENT_3D('',#1971,#1624,#1625);
#1312=AXIS2_PLACEMENT_3D('',#1972,#1626,#1627);
#1313=AXIS2_PLACEMENT_3D('',#1973,#1628,#1629);
#1314=AXIS2_PLACEMENT_3D('',#1974,#1630,#1631);
#1315=AXIS2_PLACEMENT_3D('',#1975,#1632,#1633);
#1316=AXIS2_PLACEMENT_3D('',#1976,#1634,#1635);
#1317=AXIS2_PLACEMENT_3D('',#1977,#1636,#1637);
#1318=AXIS2_PLACEMENT_3D('',#1978,#1638,#1639);
#1319=AXIS2_PLACEMENT_3D('',#1979,#1640,#1641);
#1320=AXIS2_PLACEMENT_3D('',#1980,#1642,#1643);
#1321=AXIS2_PLACEMENT_3D('',#1983,#1646,#1647);
#1322=AXIS2_PLACEMENT_3D('',#1984,#1648,#1649);
#1323=AXIS2_PLACEMENT_3D('',#1985,#1650,#1651);
#1324=AXIS2_PLACEMENT_3D('',#1987,#1653,#1654);
#1325=AXIS2_PLACEMENT_3D('',#1989,#1656,#1657);
#1326=DIRECTION('',(0.,0.,1.));
#1327=DIRECTION('',(1.,0.,0.));
#1328=DIRECTION('',(0.,1.,0.));
#1329=DIRECTION('',(1.,0.,0.));
#1330=DIRECTION('',(1.,0.,0.));
#1331=DIRECTION('',(0.,0.,1.));
#1332=DIRECTION('',(1.,0.,0.));
#1333=DIRECTION('',(0.,0.,-1.));
#1334=DIRECTION('',(1.,0.,0.));
#1335=DIRECTION('',(0.,0.,1.));
#1336=DIRECTION('',(1.,0.,0.));
#1337=DIRECTION('',(0.,0.,-1.));
#1338=DIRECTION('',(0.,0.,-1.));
#1339=DIRECTION('',(0.,1.,0.));
#1340=DIRECTION('',(0.,0.,-1.));
#1341=DIRECTION('',(0.,1.,0.));
#1342=DIRECTION('',(1.,0.,0.));
#1343=DIRECTION('',(0.,1.,0.));
#1344=DIRECTION('',(0.,-1.,0.));
#1345=DIRECTION('',(1.,0.,0.));
#1346=DIRECTION('',(0.,-1.,0.));
#1347=DIRECTION('',(1.,0.,0.));
#1348=DIRECTION('',(0.,1.,0.));
#1349=DIRECTION('',(0.,0.,1.));
#1350=DIRECTION('',(0.,-1.,0.));
#1351=DIRECTION('',(0.,-1.,0.));
#1352=DIRECTION('',(-1.,0.,0.));
#1353=DIRECTION('',(0.,1.,0.));
#1354=DIRECTION('',(1.,0.,0.));
#1355=DIRECTION('',(0.,0.,1.));
#1356=DIRECTION('',(0.,-1.,0.));
#1357=DIRECTION('',(0.,0.,1.));
#1358=DIRECTION('',(0.,-1.,0.));
#1359=DIRECTION('',(0.,-1.,0.));
#1360=DIRECTION('',(0.,1.,0.));
#1361=DIRECTION('',(1.,0.,0.));
#1362=DIRECTION('',(0.,1.,0.));
#1363=DIRECTION('',(1.,0.,0.));
#1364=DIRECTION('',(0.,-1.,0.));
#1365=DIRECTION('',(-1.,0.,0.));
#1366=DIRECTION('',(0.,0.,1.));
#1367=DIRECTION('',(0.,-1.,0.));
#1368=DIRECTION('',(0.,0.,1.));
#1369=DIRECTION('',(1.,0.,0.));
#1370=DIRECTION('',(0.,-1.,0.));
#1371=DIRECTION('',(-1.,0.,0.));
#1372=DIRECTION('',(0.,-1.,0.));
#1373=DIRECTION('',(1.,0.,0.));
#1374=DIRECTION('',(0.,1.,0.));
#1375=DIRECTION('',(1.,0.,0.));
#1376=DIRECTION('',(0.,1.,0.));
#1377=DIRECTION('',(0.,0.,1.));
#1378=DIRECTION('',(0.,-1.,0.));
#1379=DIRECTION('',(0.,0.,-1.));
#1380=DIRECTION('',(-1.,0.,0.));
#1381=DIRECTION('',(-1.,0.,0.));
#1382=DIRECTION('',(0.,-1.,0.));
#1383=DIRECTION('',(-1.,0.,0.));
#1384=DIRECTION('',(0.,-1.,0.));
#1385=DIRECTION('',(-1.,0.,0.));
#1386=DIRECTION('',(0.,1.,0.));
#1387=DIRECTION('',(0.,0.,1.));
#1388=DIRECTION('',(0.,1.,0.));
#1389=DIRECTION('',(0.,0.,1.));
#1390=DIRECTION('',(0.,1.,0.));
#1391=DIRECTION('',(-1.,0.,0.));
#1392=DIRECTION('',(0.,1.,0.));
#1393=DIRECTION('',(0.,0.,-1.));
#1394=DIRECTION('',(0.,-1.,0.));
#1395=DIRECTION('',(0.,-1.,0.));
#1396=DIRECTION('',(0.,-1.15648231731787E-16,1.));
#1397=DIRECTION('',(0.,-1.,-3.46944695195362E-16));
#1398=DIRECTION('',(0.,0.,-1.));
#1399=DIRECTION('',(1.,0.,0.));
#1400=DIRECTION('',(0.,-1.,0.));
#1401=DIRECTION('',(0.,0.,1.));
#1402=DIRECTION('',(0.,1.,0.));
#1403=DIRECTION('',(0.,0.,1.));
#1404=DIRECTION('',(0.,1.,0.));
#1405=DIRECTION('',(1.,0.,0.));
#1406=DIRECTION('',(0.,-1.,0.));
#1407=DIRECTION('',(1.,0.,0.));
#1408=DIRECTION('',(0.,-1.,0.));
#1409=DIRECTION('',(-1.,0.,0.));
#1410=DIRECTION('',(0.,0.,1.));
#1411=DIRECTION('',(1.,0.,0.));
#1412=DIRECTION('',(0.,-1.,0.));
#1413=DIRECTION('',(1.,0.,0.));
#1414=DIRECTION('',(0.,-1.,0.));
#1415=DIRECTION('',(0.,0.,-1.));
#1416=DIRECTION('',(0.,-1.,0.));
#1417=DIRECTION('',(0.,0.,-1.));
#1418=DIRECTION('',(0.,-1.,-3.46944695195362E-16));
#1419=DIRECTION('',(0.,-1.15648231731787E-16,1.));
#1420=DIRECTION('',(0.,1.,0.));
#1421=DIRECTION('',(1.,0.,0.));
#1422=DIRECTION('',(3.08395284618099E-16,0.,1.));
#1423=DIRECTION('',(0.,0.,-1.));
#1424=DIRECTION('',(1.,0.,0.));
#1425=DIRECTION('',(3.08395284618099E-16,0.,1.));
#1426=DIRECTION('',(0.,0.,-1.));
#1427=DIRECTION('',(-1.,0.,0.));
#1428=DIRECTION('',(0.,1.,0.));
#1429=DIRECTION('',(0.,1.,0.));
#1430=DIRECTION('',(0.,0.,-1.));
#1431=DIRECTION('',(0.,1.,0.));
#1432=DIRECTION('',(0.,0.,-1.));
#1433=DIRECTION('',(0.,0.,-1.));
#1434=DIRECTION('',(0.,-1.,0.));
#1435=DIRECTION('',(0.,0.,-1.));
#1436=DIRECTION('',(0.,1.,0.));
#1437=DIRECTION('',(1.,0.,0.));
#1438=DIRECTION('',(0.,1.,0.));
#1439=DIRECTION('',(1.,0.,0.));
#1440=DIRECTION('',(0.,1.,0.));
#1441=DIRECTION('',(0.,0.,-1.));
#1442=DIRECTION('',(0.,1.,0.));
#1443=DIRECTION('',(0.,1.,0.));
#1444=DIRECTION('',(1.,0.,0.));
#1445=DIRECTION('',(0.,0.,-1.));
#1446=DIRECTION('',(1.,0.,0.));
#1447=DIRECTION('',(0.,0.,-1.));
#1448=DIRECTION('',(1.,0.,0.));
#1449=DIRECTION('',(1.,0.,0.));
#1450=DIRECTION('',(0.,-1.,0.));
#1451=DIRECTION('',(0.,-1.,0.));
#1452=DIRECTION('',(0.,0.,-1.));
#1453=DIRECTION('',(0.,-1.,0.));
#1454=DIRECTION('',(0.,0.,-1.));
#1455=DIRECTION('',(0.,0.,-1.));
#1456=DIRECTION('',(0.,1.,0.));
#1457=DIRECTION('',(1.,0.,0.));
#1458=DIRECTION('',(1.,0.,0.));
#1459=DIRECTION('',(0.,0.,-1.));
#1460=DIRECTION('',(1.,0.,0.));
#1461=DIRECTION('',(0.,0.,-1.));
#1462=DIRECTION('',(0.,0.,1.));
#1463=DIRECTION('',(0.,-1.,0.));
#1464=DIRECTION('',(1.,0.,0.));
#1465=DIRECTION('',(1.,0.,0.));
#1466=DIRECTION('',(0.,-1.,0.));
#1467=DIRECTION('',(-1.,0.,0.));
#1468=DIRECTION('',(1.,0.,0.));
#1469=DIRECTION('',(0.,-3.46944695195362E-16,1.));
#1470=DIRECTION('',(0.,-1.,-3.46944695195362E-16));
#1471=DIRECTION('',(1.,0.,0.));
#1472=DIRECTION('',(0.,1.,1.15648231731787E-16));
#1473=DIRECTION('',(0.,-1.15648231731787E-16,1.));
#1474=DIRECTION('',(0.,0.,1.));
#1475=DIRECTION('',(0.,-1.,0.));
#1476=DIRECTION('',(0.,0.,-1.));
#1477=DIRECTION('',(0.,1.,0.));
#1478=DIRECTION('',(0.,1.,0.));
#1479=DIRECTION('',(1.,0.,0.));
#1480=DIRECTION('',(0.,0.,1.));
#1481=DIRECTION('',(-1.,0.,0.));
#1482=DIRECTION('',(0.,0.,1.));
#1483=DIRECTION('',(-1.,0.,0.));
#1484=DIRECTION('',(0.,1.,0.));
#1485=DIRECTION('',(0.,0.,1.));
#1486=DIRECTION('',(0.,-1.,0.));
#1487=DIRECTION('',(0.,1.,0.));
#1488=DIRECTION('',(1.,0.,0.));
#1489=DIRECTION('',(0.,0.,1.));
#1490=DIRECTION('',(-1.,0.,0.));
#1491=DIRECTION('',(0.,1.,0.));
#1492=DIRECTION('',(1.,0.,0.));
#1493=DIRECTION('',(0.,0.,1.));
#1494=DIRECTION('',(-1.,0.,0.));
#1495=DIRECTION('',(0.,0.,1.));
#1496=DIRECTION('',(-1.,0.,0.));
#1497=DIRECTION('',(0.,1.,0.));
#1498=DIRECTION('',(0.,0.,1.));
#1499=DIRECTION('',(0.,-1.,0.));
#1500=DIRECTION('',(0.,-1.,0.));
#1501=DIRECTION('',(-1.,0.,0.));
#1502=DIRECTION('',(0.,0.,1.));
#1503=DIRECTION('',(1.,0.,0.));
#1504=DIRECTION('',(1.,0.,0.));
#1505=DIRECTION('',(0.,-1.,0.));
#1506=DIRECTION('',(0.,1.,0.));
#1507=DIRECTION('',(-1.,0.,0.));
#1508=DIRECTION('',(0.,1.,0.));
#1509=DIRECTION('',(0.,-1.,0.));
#1510=DIRECTION('',(0.,0.,-1.));
#1511=DIRECTION('',(-1.,0.,0.));
#1512=DIRECTION('',(1.,0.,0.));
#1513=DIRECTION('',(0.,-1.,0.));
#1514=DIRECTION('',(-1.,0.,0.));
#1515=DIRECTION('',(0.,0.,1.));
#1516=DIRECTION('',(-1.,0.,0.));
#1517=DIRECTION('',(0.,0.,1.));
#1518=DIRECTION('',(1.,0.,0.));
#1519=DIRECTION('',(0.,-1.,0.));
#1520=DIRECTION('',(-1.,0.,0.));
#1521=DIRECTION('',(0.,0.,1.));
#1522=DIRECTION('',(-1.,0.,0.));
#1523=DIRECTION('',(0.,0.,1.));
#1524=DIRECTION('',(1.,0.,0.));
#1525=DIRECTION('',(0.,-1.,0.));
#1526=DIRECTION('',(1.,0.,0.));
#1527=DIRECTION('',(0.,-1.,0.));
#1528=DIRECTION('',(-1.,0.,0.));
#1529=DIRECTION('',(0.,0.,1.));
#1530=DIRECTION('',(-1.,0.,0.));
#1531=DIRECTION('',(0.,0.,1.));
#1532=DIRECTION('',(1.,0.,0.));
#1533=DIRECTION('',(0.,-1.,0.));
#1534=DIRECTION('',(-1.,0.,0.));
#1535=DIRECTION('',(0.,0.,1.));
#1536=DIRECTION('',(-1.,0.,0.));
#1537=DIRECTION('',(0.,0.,1.));
#1538=DIRECTION('',(1.,0.,0.));
#1539=DIRECTION('',(0.,-1.,0.));
#1540=DIRECTION('',(-1.,0.,0.));
#1541=DIRECTION('',(0.,1.,0.));
#1542=DIRECTION('',(0.,0.,1.));
#1543=DIRECTION('',(0.,-1.,0.));
#1544=DIRECTION('',(0.,0.,-1.));
#1545=DIRECTION('',(0.,1.,0.));
#1546=DIRECTION('',(0.,0.,1.));
#1547=DIRECTION('',(0.,-1.,0.));
#1548=DIRECTION('',(0.,0.,-1.));
#1549=DIRECTION('',(0.,1.,0.));
#1550=DIRECTION('',(0.,0.,-1.));
#1551=DIRECTION('',(0.,1.,0.));
#1552=DIRECTION('',(0.,0.,-1.));
#1553=DIRECTION('',(-1.,0.,0.));
#1554=DIRECTION('',(0.,0.,1.));
#1555=DIRECTION('',(0.,-1.,0.));
#1556=DIRECTION('',(0.,0.,-1.));
#1557=DIRECTION('',(0.,1.,0.));
#1558=DIRECTION('',(0.,0.,1.));
#1559=DIRECTION('',(0.,-1.,0.));
#1560=DIRECTION('',(0.,0.,-1.));
#1561=DIRECTION('',(0.,1.,0.));
#1562=DIRECTION('',(0.,0.,-1.));
#1563=DIRECTION('',(0.,1.,0.));
#1564=DIRECTION('',(0.,0.,-1.));
#1565=DIRECTION('',(-1.,0.,0.));
#1566=DIRECTION('',(0.,0.,1.));
#1567=DIRECTION('',(0.,-1.,0.));
#1568=DIRECTION('',(0.,0.,1.));
#1569=DIRECTION('',(0.,-1.,0.));
#1570=DIRECTION('',(1.,0.,0.));
#1571=DIRECTION('',(0.,-1.,0.));
#1572=DIRECTION('',(-1.,0.,0.));
#1573=DIRECTION('',(0.,0.99999562636455,-0.00295757531966046));
#1574=DIRECTION('',(1.,0.,0.));
#1575=DIRECTION('',(0.,-1.,0.));
#1576=DIRECTION('',(-1.,0.,0.));
#1577=DIRECTION('',(0.,0.999975621051872,0.00698264290387186));
#1578=DIRECTION('',(-1.,0.,0.));
#1579=DIRECTION('',(0.,0.999975621051872,0.00698264290387186));
#1580=DIRECTION('',(-1.,0.,0.));
#1581=DIRECTION('',(0.,0.,1.));
#1582=DIRECTION('',(1.,0.,0.));
#1583=DIRECTION('',(0.,-1.,0.));
#1584=DIRECTION('',(-1.,0.,0.));
#1585=DIRECTION('',(0.,0.99970202111061,-0.0244104278406225));
#1586=DIRECTION('',(1.,0.,0.));
#1587=DIRECTION('',(0.,-1.,0.));
#1588=DIRECTION('',(-1.,0.,0.));
#1589=DIRECTION('',(0.,0.999152739511288,-0.0411558395259708));
#1590=DIRECTION('',(-1.,0.,0.));
#1591=DIRECTION('',(0.,0.999152739511288,-0.0411558395259708));
#1592=DIRECTION('',(-1.,0.,0.));
#1593=DIRECTION('',(0.,0.,1.));
#1594=DIRECTION('',(1.,0.,0.));
#1595=DIRECTION('',(0.,-1.,0.));
#1596=DIRECTION('',(1.,0.,0.));
#1597=DIRECTION('',(0.,-1.,0.));
#1598=DIRECTION('',(0.,0.,1.));
#1599=DIRECTION('',(0.,-1.,0.));
#1600=DIRECTION('',(-1.,0.,0.));
#1601=DIRECTION('',(-1.,0.,0.));
#1602=DIRECTION('',(0.,-1.,0.));
#1603=DIRECTION('',(-1.,0.,0.));
#1604=DIRECTION('',(-1.,0.,0.));
#1605=DIRECTION('',(0.,0.,1.));
#1606=DIRECTION('',(0.,-1.,0.));
#1607=DIRECTION('',(-1.,0.,0.));
#1608=DIRECTION('',(0.,-1.,0.));
#1609=DIRECTION('',(-1.,0.,0.));
#1610=DIRECTION('',(0.,0.,1.));
#1611=DIRECTION('',(1.,0.,0.));
#1612=DIRECTION('',(0.,0.,1.));
#1613=DIRECTION('',(1.,0.,0.));
#1614=DIRECTION('',(0.,0.,1.));
#1615=DIRECTION('',(1.,0.,0.));
#1616=DIRECTION('',(0.,0.,1.));
#1617=DIRECTION('',(1.,0.,0.));
#1618=DIRECTION('',(0.,0.,1.));
#1619=DIRECTION('',(1.,0.,0.));
#1620=DIRECTION('',(0.,0.,1.));
#1621=DIRECTION('',(1.,0.,0.));
#1622=DIRECTION('',(0.,0.,-1.));
#1623=DIRECTION('',(0.,1.,0.));
#1624=DIRECTION('',(0.,0.,-1.));
#1625=DIRECTION('',(0.,1.,0.));
#1626=DIRECTION('',(0.,0.,1.));
#1627=DIRECTION('',(1.,0.,0.));
#1628=DIRECTION('',(0.,0.,1.));
#1629=DIRECTION('',(1.,0.,0.));
#1630=DIRECTION('',(0.,0.,1.));
#1631=DIRECTION('',(1.,0.,0.));
#1632=DIRECTION('',(0.,0.,1.));
#1633=DIRECTION('',(1.,0.,0.));
#1634=DIRECTION('',(0.,0.,1.));
#1635=DIRECTION('',(1.,0.,0.));
#1636=DIRECTION('',(0.,0.,1.));
#1637=DIRECTION('',(1.,0.,0.));
#1638=DIRECTION('',(0.,0.,-1.));
#1639=DIRECTION('',(0.,1.,0.));
#1640=DIRECTION('',(0.,0.,-1.));
#1641=DIRECTION('',(0.,1.,0.));
#1642=DIRECTION('',(0.,1.,0.));
#1643=DIRECTION('',(1.,0.,0.));
#1644=DIRECTION('',(0.,0.,1.));
#1645=DIRECTION('',(3.08395284618099E-16,0.,1.));
#1646=DIRECTION('',(-1.,0.,3.08395284618099E-16));
#1647=DIRECTION('',(3.08395284618099E-16,0.,1.));
#1648=DIRECTION('',(-1.,0.,0.));
#1649=DIRECTION('',(0.,1.,0.));
#1650=DIRECTION('',(-1.,0.,0.));
#1651=DIRECTION('',(0.,1.,0.));
#1652=DIRECTION('',(0.,0.,1.));
#1653=DIRECTION('',(-1.,0.,3.08395284618099E-16));
#1654=DIRECTION('',(3.08395284618099E-16,0.,1.));
#1655=DIRECTION('',(3.08395284618099E-16,0.,1.));
#1656=DIRECTION('',(0.,1.,0.));
#1657=DIRECTION('',(1.,0.,0.));
#1658=CARTESIAN_POINT('',(0.,0.,0.));
#1659=CARTESIAN_POINT('',(0.,0.09,0.));
#1660=CARTESIAN_POINT('',(0.,0.09,-0.045));
#1661=CARTESIAN_POINT('',(0.025,0.09,-0.045));
#1662=CARTESIAN_POINT('',(0.045,0.09,-0.045));
#1663=CARTESIAN_POINT('',(0.025,0.09,0.));
#1664=CARTESIAN_POINT('',(0.025,0.09,-0.0425));
#1665=CARTESIAN_POINT('',(0.,0.09,-0.0425));
#1666=CARTESIAN_POINT('',(0.0425,0.09,-0.0425));
#1667=CARTESIAN_POINT('',(0.0425,0.09,0.));
#1668=CARTESIAN_POINT('',(0.0425,0.09,0.0425));
#1669=CARTESIAN_POINT('',(0.,0.09,0.0425));
#1670=CARTESIAN_POINT('',(0.025,0.09,0.0425));
#1671=CARTESIAN_POINT('',(0.025,0.09,0.));
#1672=CARTESIAN_POINT('',(0.025,0.09,0.045));
#1673=CARTESIAN_POINT('',(0.,0.09,0.045));
#1674=CARTESIAN_POINT('',(0.045,0.09,0.045));
#1675=CARTESIAN_POINT('',(0.045,0.09,0.));
#1676=CARTESIAN_POINT('',(0.,0.09,-0.045));
#1677=CARTESIAN_POINT('',(0.,0.04625,-0.045));
#1678=CARTESIAN_POINT('',(0.,0.0523,-0.045));
#1679=CARTESIAN_POINT('',(0.,0.088,-0.045));
#1680=CARTESIAN_POINT('',(0.022,0.088,-0.045));
#1681=CARTESIAN_POINT('',(0.025,0.088,-0.045));
#1682=CARTESIAN_POINT('',(0.025,0.088,-0.045));
#1683=CARTESIAN_POINT('',(0.045,0.09,-0.045));
#1684=CARTESIAN_POINT('',(0.045,0.,-0.045));
#1685=CARTESIAN_POINT('',(0.,0.,-0.045));
#1686=CARTESIAN_POINT('',(-0.045,0.,-0.045));
#1687=CARTESIAN_POINT('',(-0.045,0.09,-0.045));
#1688=CARTESIAN_POINT('',(-0.045,0.09,-0.045));
#1689=CARTESIAN_POINT('',(0.,0.09,-0.045));
#1690=CARTESIAN_POINT('',(0.022,0.09,-0.045));
#1691=CARTESIAN_POINT('',(0.022,0.088,-0.045));
#1692=CARTESIAN_POINT('',(0.,0.0025,0.0425));
#1693=CARTESIAN_POINT('',(0.00530232908204198,0.0393910099864006,0.0425));
#1694=CARTESIAN_POINT('',(0.00530232908204198,0.0535951161980629,0.0425));
#1695=CARTESIAN_POINT('',(0.00530232908204198,0.0388910099864006,0.0425));
#1696=CARTESIAN_POINT('',(-0.0357889709174633,0.0535951161980629,0.0425));
#1697=CARTESIAN_POINT('',(-0.0362889709174633,0.0535951161980629,0.0425));
#1698=CARTESIAN_POINT('',(-0.0362889709174633,0.0530951161980629,0.0425));
#1699=CARTESIAN_POINT('',(-0.0362889709174633,0.0388910099864006,0.0425));
#1700=CARTESIAN_POINT('',(0.00480232908204198,0.0388910099864006,0.0425));
#1701=CARTESIAN_POINT('',(-0.0103714720028793,0.0712278200287561,0.0425));
#1702=CARTESIAN_POINT('',(-0.0103714720028793,0.0686066629422059,0.0425));
#1703=CARTESIAN_POINT('',(0.0376284201192394,0.0711290535890827,0.0425));
#1704=CARTESIAN_POINT('',(0.0376284201192394,0.0685908116168563,0.0425));
#1705=CARTESIAN_POINT('',(0.025,0.0025,0.0425));
#1706=CARTESIAN_POINT('',(0.025,0.088,0.0425));
#1707=CARTESIAN_POINT('',(0.0425,0.0025,0.0425));
#1708=CARTESIAN_POINT('',(0.0425,0.0025,0.0425));
#1709=CARTESIAN_POINT('',(0.,0.0025,0.0425));
#1710=CARTESIAN_POINT('',(-0.0425,0.0025,0.0425));
#1711=CARTESIAN_POINT('',(-0.0425,0.0025,0.0425));
#1712=CARTESIAN_POINT('',(-0.0425,0.09,0.0425));
#1713=CARTESIAN_POINT('',(0.,0.09,0.0425));
#1714=CARTESIAN_POINT('',(0.022,0.09,0.0425));
#1715=CARTESIAN_POINT('',(0.022,0.0025,0.0425));
#1716=CARTESIAN_POINT('',(0.022,0.088,0.0425));
#1717=CARTESIAN_POINT('',(0.,0.088,0.0425));
#1718=CARTESIAN_POINT('',(0.,0.0025,-0.0425));
#1719=CARTESIAN_POINT('',(0.,0.04625,-0.0425));
#1720=CARTESIAN_POINT('',(0.00605,0.04625,-0.0425));
#1721=CARTESIAN_POINT('',(0.025,0.0025,-0.0425));
#1722=CARTESIAN_POINT('',(0.025,0.088,-0.0425));
#1723=CARTESIAN_POINT('',(0.,0.088,-0.0425));
#1724=CARTESIAN_POINT('',(0.022,0.088,-0.0425));
#1725=CARTESIAN_POINT('',(0.022,0.0025,-0.0425));
#1726=CARTESIAN_POINT('',(0.022,0.09,-0.0425));
#1727=CARTESIAN_POINT('',(0.,0.09,-0.0425));
#1728=CARTESIAN_POINT('',(-0.0425,0.09,-0.0425));
#1729=CARTESIAN_POINT('',(-0.0425,0.0025,-0.0425));
#1730=CARTESIAN_POINT('',(-0.0425,0.0025,-0.0425));
#1731=CARTESIAN_POINT('',(0.,0.0025,-0.0425));
#1732=CARTESIAN_POINT('',(0.0425,0.0025,-0.0425));
#1733=CARTESIAN_POINT('',(0.0425,0.0025,-0.0425));
#1734=CARTESIAN_POINT('',(0.,0.0025,0.0425));
#1735=CARTESIAN_POINT('',(0.,0.04625,0.0425));
#1736=CARTESIAN_POINT('',(-0.00237897702804138,0.04625,0.0425));
#1737=CARTESIAN_POINT('',(-0.0143310013916343,0.0525951161980629,0.0425));
#1738=CARTESIAN_POINT('',(0.00430232908204198,0.0525951161980629,0.0425));
#1739=CARTESIAN_POINT('',(-0.0352889709174633,0.0525951161980629,0.0425));
#1740=CARTESIAN_POINT('',(0.00430232908204198,0.0462430630922318,0.0425));
#1741=CARTESIAN_POINT('',(0.00430232908204198,0.0398910099864006,0.0425));
#1742=CARTESIAN_POINT('',(-0.033913254737854,0.0398910099864006,0.0425));
#1743=CARTESIAN_POINT('',(-0.0352889709174633,0.0398910099864006,0.0425));
#1744=CARTESIAN_POINT('',(-0.0352889709174633,0.0508007258176804,0.0425));
#1745=CARTESIAN_POINT('',(0.045,0.09,0.));
#1746=CARTESIAN_POINT('',(0.045,0.0530861940974851,0.));
#1747=CARTESIAN_POINT('',(0.045,0.0530861940974851,0.0295902917959311));
#1748=CARTESIAN_POINT('',(0.045,0.0530861940974851,0.0335902917959311));
#1749=CARTESIAN_POINT('',(0.045,0.09,0.0335902917959311));
#1750=CARTESIAN_POINT('',(0.045,0.0570861940974851,0.0335902917959311));
#1751=CARTESIAN_POINT('',(0.045,0.0570861940974851,0.));
#1752=CARTESIAN_POINT('',(0.045,0.0570861940974851,0.0295902917959311));
#1753=CARTESIAN_POINT('',(0.045,0.09,0.0295902917959311));
#1754=CARTESIAN_POINT('',(0.045,0.023847246542573,0.0296925734728575));
#1755=CARTESIAN_POINT('',(0.045,0.0271361545996599,0.0296925734728575));
#1756=CARTESIAN_POINT('',(0.045,0.,0.));
#1757=CARTESIAN_POINT('',(0.045,0.,0.045));
#1758=CARTESIAN_POINT('',(0.045,0.09,0.045));
#1759=CARTESIAN_POINT('',(0.045,0.025,-0.04));
#1760=CARTESIAN_POINT('',(0.045,0.085,-0.04));
#1761=CARTESIAN_POINT('',(0.045,0.005,-0.04));
#1762=CARTESIAN_POINT('',(0.045,0.005,-0.01));
#1763=CARTESIAN_POINT('',(0.045,0.005,0.02));
#1764=CARTESIAN_POINT('',(0.045,0.025,0.02));
#1765=CARTESIAN_POINT('',(0.045,0.085,0.02));
#1766=CARTESIAN_POINT('',(0.045,0.085,-0.01));
#1767=CARTESIAN_POINT('',(0.0425,0.0025,0.));
#1768=CARTESIAN_POINT('',(0.0425,0.0570861940974851,0.0315902917959312));
#1769=CARTESIAN_POINT('',(0.0425,0.0570861940974851,0.0295902917959311));
#1770=CARTESIAN_POINT('',(0.0425,0.0570861940974851,0.0335902917959311));
#1771=CARTESIAN_POINT('',(0.0425,0.0540866730783693,0.0335902917959311));
#1772=CARTESIAN_POINT('',(0.0425,0.0530861940974851,0.0335902917959311));
#1773=CARTESIAN_POINT('',(0.0425,0.0530861940974851,0.0315902917959312));
#1774=CARTESIAN_POINT('',(0.0425,0.0530861940974851,0.0295902917959311));
#1775=CARTESIAN_POINT('',(0.0425,0.0540857151166009,0.0295902917959311));
#1776=CARTESIAN_POINT('',(0.0425,0.0550823784805056,0.0236241764343666));
#1777=CARTESIAN_POINT('',(0.0425,0.0526240024563379,0.0236241764343666));
#1778=CARTESIAN_POINT('',(0.0425,0.055071744334689,0.0395714271178287));
#1779=CARTESIAN_POINT('',(0.0425,0.0525853638375582,0.0395714271178287));
#1780=CARTESIAN_POINT('',(0.0425,0.023847246542573,0.0296925734728575));
#1781=CARTESIAN_POINT('',(0.0425,0.023847246542573,0.0329814815299444));
#1782=CARTESIAN_POINT('',(0.0425,0.0403023275704475,0.0293012035637173));
#1783=CARTESIAN_POINT('',(0.0425,0.0378543385672929,0.0293012035637173));
#1784=CARTESIAN_POINT('',(0.0425,0.00731489412619786,0.0293012035637173));
#1785=CARTESIAN_POINT('',(0.0425,0.00485492337281812,0.0293012035637173));
#1786=CARTESIAN_POINT('',(0.0425,0.0025,0.));
#1787=CARTESIAN_POINT('',(0.0425,0.0025,-0.04));
#1788=CARTESIAN_POINT('',(0.0425,0.085,-0.04));
#1789=CARTESIAN_POINT('',(0.0425,0.005,-0.04));
#1790=CARTESIAN_POINT('',(0.0425,0.085,0.));
#1791=CARTESIAN_POINT('',(0.0425,0.085,0.02));
#1792=CARTESIAN_POINT('',(0.0425,0.0025,0.02));
#1793=CARTESIAN_POINT('',(0.0425,0.005,0.02));
#1794=CARTESIAN_POINT('',(0.0425,0.005,2.89120579329471E-19));
#1795=CARTESIAN_POINT('',(0.,0.09,0.));
#1796=CARTESIAN_POINT('',(0.022,0.09,0.));
#1797=CARTESIAN_POINT('',(-0.045,0.09,0.));
#1798=CARTESIAN_POINT('',(-0.045,0.09,0.045));
#1799=CARTESIAN_POINT('',(0.,0.09,0.045));
#1800=CARTESIAN_POINT('',(0.022,0.09,0.045));
#1801=CARTESIAN_POINT('',(0.022,0.09,0.));
#1802=CARTESIAN_POINT('',(-0.0425,0.09,0.));
#1803=CARTESIAN_POINT('',(-0.045,0.09,0.));
#1804=CARTESIAN_POINT('',(-0.045,0.09,0.02));
#1805=CARTESIAN_POINT('',(-0.045,0.0245002056366343,0.02));
#1806=CARTESIAN_POINT('',(-0.045,0.0680891950720411,0.02));
#1807=CARTESIAN_POINT('',(-0.045,0.0245002056366343,0.02));
#1808=CARTESIAN_POINT('',(-0.045,0.0245002056366343,-0.04));
#1809=CARTESIAN_POINT('',(-0.045,0.09,-0.04));
#1810=CARTESIAN_POINT('',(-0.045,0.0680891950720411,-0.04));
#1811=CARTESIAN_POINT('',(-0.045,0.0680891950720411,0.02));
#1812=CARTESIAN_POINT('',(-0.045,0.,0.));
#1813=CARTESIAN_POINT('',(-0.045,0.,0.045));
#1814=CARTESIAN_POINT('',(-0.045,0.09,0.045));
#1815=CARTESIAN_POINT('',(0.,0.09,0.045));
#1816=CARTESIAN_POINT('',(0.,0.088,0.045));
#1817=CARTESIAN_POINT('',(0.022,0.088,0.045));
#1818=CARTESIAN_POINT('',(0.025,0.088,0.045));
#1819=CARTESIAN_POINT('',(0.022,0.088,0.045));
#1820=CARTESIAN_POINT('',(0.,0.,0.045));
#1821=CARTESIAN_POINT('',(0.025,0.088,0.045));
#1822=CARTESIAN_POINT('',(0.,0.04625,0.045));
#1823=CARTESIAN_POINT('',(0.,0.0486289770280414,0.045));
#1824=CARTESIAN_POINT('',(0.,0.,0.));
#1825=CARTESIAN_POINT('',(-0.0188891693597703,0.,0.02));
#1826=CARTESIAN_POINT('',(-0.0188891693597703,0.,0.02));
#1827=CARTESIAN_POINT('',(-0.0188891693597703,0.,-0.04));
#1828=CARTESIAN_POINT('',(0.,0.,0.02));
#1829=CARTESIAN_POINT('',(0.0188891693597703,0.,0.02));
#1830=CARTESIAN_POINT('',(0.0188891693597703,0.,0.02));
#1831=CARTESIAN_POINT('',(0.0188891693597703,0.,-0.04));
#1832=CARTESIAN_POINT('',(0.,0.,-0.04));
#1833=CARTESIAN_POINT('',(-0.0425,0.0025,0.));
#1834=CARTESIAN_POINT('',(-0.0425,0.0025,0.02));
#1835=CARTESIAN_POINT('',(-0.0425,0.0726338347364696,0.02));
#1836=CARTESIAN_POINT('',(-0.0425,0.0199555659722058,0.02));
#1837=CARTESIAN_POINT('',(-0.0425,0.0726338347364696,0.02));
#1838=CARTESIAN_POINT('',(-0.0425,0.0726338347364696,-0.04));
#1839=CARTESIAN_POINT('',(-0.0425,0.0025,-0.04));
#1840=CARTESIAN_POINT('',(-0.0425,0.0199555659722058,-0.04));
#1841=CARTESIAN_POINT('',(-0.0425,0.0199555659722058,0.02));
#1842=CARTESIAN_POINT('',(-0.0425,0.0025,0.));
#1843=CARTESIAN_POINT('',(0.,0.0025,0.));
#1844=CARTESIAN_POINT('',(0.,0.0025,0.02));
#1845=CARTESIAN_POINT('',(-0.0241251781521665,0.0025,0.02));
#1846=CARTESIAN_POINT('',(0.0241251781521665,0.0025,0.02));
#1847=CARTESIAN_POINT('',(-0.0241251781521665,0.0025,0.02));
#1848=CARTESIAN_POINT('',(-0.0241251781521665,0.0025,-0.04));
#1849=CARTESIAN_POINT('',(0.,0.0025,-0.04));
#1850=CARTESIAN_POINT('',(0.0241251781521665,0.0025,-0.04));
#1851=CARTESIAN_POINT('',(0.0241251781521665,0.0025,0.02));
#1852=CARTESIAN_POINT('',(0.02,0.025,-0.04));
#1853=CARTESIAN_POINT('',(0.02,0.005,-0.04));
#1854=CARTESIAN_POINT('',(0.02,0.085,-0.04));
#1855=CARTESIAN_POINT('',(0.02,0.085,-0.01));
#1856=CARTESIAN_POINT('',(0.02,0.085,0.02));
#1857=CARTESIAN_POINT('',(0.02,0.025,0.02));
#1858=CARTESIAN_POINT('',(0.02,0.005,0.02));
#1859=CARTESIAN_POINT('',(0.02,0.005,-0.01));
#1860=CARTESIAN_POINT('',(0.,0.04625,-0.0675));
#1861=CARTESIAN_POINT('',(0.,0.04625,0.0675));
#1862=CARTESIAN_POINT('',(-0.0143310013916343,0.0525951161980629,0.0325));
#1863=CARTESIAN_POINT('',(-0.0352889709174633,0.0525951161980629,0.0325));
#1864=CARTESIAN_POINT('',(-0.0352889709174633,0.0525951161980629,0.0325));
#1865=CARTESIAN_POINT('',(-0.0143310013916343,0.0525951161980629,0.0325));
#1866=CARTESIAN_POINT('',(0.00430232908204198,0.0525951161980629,0.0325));
#1867=CARTESIAN_POINT('',(0.00430232908204198,0.0525951161980629,0.0325));
#1868=CARTESIAN_POINT('',(-0.0352889709174633,0.0508007258176804,0.0325));
#1869=CARTESIAN_POINT('',(-0.0352889709174633,0.0398910099864006,0.0325));
#1870=CARTESIAN_POINT('',(-0.0352889709174633,0.0398910099864006,0.0325));
#1871=CARTESIAN_POINT('',(-0.0352889709174633,0.0508007258176804,0.0325));
#1872=CARTESIAN_POINT('',(-0.033913254737854,0.0398910099864006,0.0325));
#1873=CARTESIAN_POINT('',(0.00430232908204198,0.0398910099864006,0.0325));
#1874=CARTESIAN_POINT('',(0.00430232908204198,0.0398910099864006,0.0325));
#1875=CARTESIAN_POINT('',(-0.033913254737854,0.0398910099864006,0.0325));
#1876=CARTESIAN_POINT('',(-0.0357889709174633,0.0535951161980629,0.0325));
#1877=CARTESIAN_POINT('',(0.00530232908204198,0.0535951161980629,0.0325));
#1878=CARTESIAN_POINT('',(0.00530232908204198,0.0535951161980629,0.0325));
#1879=CARTESIAN_POINT('',(-0.0357889709174633,0.0535951161980629,0.0325));
#1880=CARTESIAN_POINT('',(-0.0362889709174633,0.0535951161980629,0.0325));
#1881=CARTESIAN_POINT('',(-0.0362889709174633,0.0535951161980629,0.0325));
#1882=CARTESIAN_POINT('',(0.00530232908204198,0.0393910099864006,0.0325));
#1883=CARTESIAN_POINT('',(0.00530232908204198,0.0388910099864006,0.0325));
#1884=CARTESIAN_POINT('',(0.00530232908204198,0.0388910099864006,0.0325));
#1885=CARTESIAN_POINT('',(0.00530232908204198,0.0393910099864006,0.0325));
#1886=CARTESIAN_POINT('',(0.00480232908204198,0.0388910099864006,0.0325));
#1887=CARTESIAN_POINT('',(-0.0362889709174633,0.0388910099864006,0.0325));
#1888=CARTESIAN_POINT('',(-0.0362889709174633,0.0388910099864006,0.0325));
#1889=CARTESIAN_POINT('',(0.00480232908204198,0.0388910099864006,0.0325));
#1890=CARTESIAN_POINT('',(-0.0362889709174633,0.0530951161980629,0.0325));
#1891=CARTESIAN_POINT('',(-0.0362889709174633,0.0530951161980629,0.0325));
#1892=CARTESIAN_POINT('',(0.00430232908204198,0.0462430630922318,0.0325));
#1893=CARTESIAN_POINT('',(0.00430232908204198,0.0462430630922318,0.0325));
#1894=CARTESIAN_POINT('',(0.,0.04625,0.0325));
#1895=CARTESIAN_POINT('',(0.035,0.00731489412619786,0.0293012035637173));
#1896=CARTESIAN_POINT('',(0.035,0.00731489412619786,0.0293012035637173));
#1897=CARTESIAN_POINT('',(0.035,0.00731489412619786,0.0305388955405283));
#1898=CARTESIAN_POINT('',(0.0425,0.00731489412619786,0.0293012035637173));
#1899=CARTESIAN_POINT('',(0.0425,0.00731489412619786,0.0305388955405283));
#1900=CARTESIAN_POINT('',(0.035,0.00731489412619786,0.0293012035637173));
#1901=CARTESIAN_POINT('',(0.035,0.00731489412619786,0.0293012035637173));
#1902=CARTESIAN_POINT('',(0.035,0.00731489412619786,0.031761174317097));
#1903=CARTESIAN_POINT('',(0.035,0.0500002327300592,0.0147388178425777));
#1904=CARTESIAN_POINT('',(0.0425,0.0025,0.));
#1905=CARTESIAN_POINT('',(0.035,0.0403023275704475,0.0293012035637173));
#1906=CARTESIAN_POINT('',(0.035,0.0403023275704475,0.0293012035637173));
#1907=CARTESIAN_POINT('',(0.035,0.0403023275704475,0.0304475353058215));
#1908=CARTESIAN_POINT('',(0.0425,0.0403023275704475,0.0293012035637173));
#1909=CARTESIAN_POINT('',(0.0425,0.0403023275704475,0.0304475353058215));
#1910=CARTESIAN_POINT('',(0.035,0.0403023275704475,0.0293012035637173));
#1911=CARTESIAN_POINT('',(0.035,0.0403023275704475,0.0293012035637173));
#1912=CARTESIAN_POINT('',(0.035,0.0403023275704475,0.0317491925668719));
#1913=CARTESIAN_POINT('',(0.035,0.0500002327300592,0.0147388178425777));
#1914=CARTESIAN_POINT('',(0.0425,0.0025,0.));
#1915=CARTESIAN_POINT('',(0.0675,0.023847246542573,0.0296925734728575));
#1916=CARTESIAN_POINT('',(-0.0103714720028793,0.0712278200287561,0.035));
#1917=CARTESIAN_POINT('',(-0.0103714720028793,0.0712278200287561,0.035));
#1918=CARTESIAN_POINT('',(-0.0103714720028793,0.0738489771153063,0.035));
#1919=CARTESIAN_POINT('',(-0.0103714720028793,0.0712278200287561,0.035));
#1920=CARTESIAN_POINT('',(-0.0103714720028793,0.0712278200287561,0.035));
#1921=CARTESIAN_POINT('',(-0.0103714720028793,0.0723534065490169,0.035));
#1922=CARTESIAN_POINT('',(-0.0103714720028793,0.0712278200287561,0.0425));
#1923=CARTESIAN_POINT('',(-0.0103714720028793,0.0723534065490169,0.0425));
#1924=CARTESIAN_POINT('',(-0.0135607614137683,0.049541814459214,0.035));
#1925=CARTESIAN_POINT('',(0.0376284201192394,0.0711290535890827,0.035));
#1926=CARTESIAN_POINT('',(0.0376284201192394,0.0711290535890827,0.035));
#1927=CARTESIAN_POINT('',(0.0376284201192394,0.0736672955613091,0.035));
#1928=CARTESIAN_POINT('',(0.0376284201192394,0.0711290535890827,0.035));
#1929=CARTESIAN_POINT('',(0.0376284201192394,0.0711290535890827,0.035));
#1930=CARTESIAN_POINT('',(0.0376284201192394,0.0723839746521863,0.035));
#1931=CARTESIAN_POINT('',(0.0376284201192394,0.0711290535890827,0.0425));
#1932=CARTESIAN_POINT('',(0.0376284201192394,0.0723839746521863,0.0425));
#1933=CARTESIAN_POINT('',(-0.0135607614137683,0.049541814459214,0.035));
#1934=CARTESIAN_POINT('',(0.,0.0025,0.0425));
#1935=CARTESIAN_POINT('',(0.,0.0025,0.0425));
#1936=CARTESIAN_POINT('',(0.038,0.055071744334689,0.0395714271178287));
#1937=CARTESIAN_POINT('',(0.038,0.055071744334689,0.0395714271178287));
#1938=CARTESIAN_POINT('',(0.038,0.057558113957298,0.0395640734602351));
#1939=CARTESIAN_POINT('',(0.038,0.0550900097144646,0.0395564071574957));
#1940=CARTESIAN_POINT('',(0.038,0.0550900097144646,0.0395564071574957));
#1941=CARTESIAN_POINT('',(0.038,0.0561878914117801,0.0395640734602351));
#1942=CARTESIAN_POINT('',(0.0425,0.0550900097144646,0.0395564071574957));
#1943=CARTESIAN_POINT('',(0.0425,0.0561878914117801,0.0395640734602351));
#1944=CARTESIAN_POINT('',(0.038,0.04625,0.0191447669991726));
#1945=CARTESIAN_POINT('',(0.038,0.0550823784805056,0.0236241764343666));
#1946=CARTESIAN_POINT('',(0.038,0.0550823784805056,0.0236241764343666));
#1947=CARTESIAN_POINT('',(0.038,0.0575400219605159,0.0235641664238236));
#1948=CARTESIAN_POINT('',(0.038,0.0550871143809311,0.0236095545070004));
#1949=CARTESIAN_POINT('',(0.038,0.0550871143809311,0.0236095545070004));
#1950=CARTESIAN_POINT('',(0.038,0.0561890145771014,0.0235641664238236));
#1951=CARTESIAN_POINT('',(0.0425,0.0550871143809311,0.0236095545070004));
#1952=CARTESIAN_POINT('',(0.0425,0.0561890145771014,0.0235641664238236));
#1953=CARTESIAN_POINT('',(0.038,0.04625,0.0191447669991726));
#1954=CARTESIAN_POINT('',(0.0425,0.0025,0.));
#1955=CARTESIAN_POINT('',(0.0425,0.0025,0.));
#1956=CARTESIAN_POINT('',(0.0675,0.0540866730783693,0.0335902917959311));
#1957=CARTESIAN_POINT('',(0.0675,0.0530861940974851,0.0335902917959311));
#1958=CARTESIAN_POINT('',(0.0675,0.0570861940974851,0.0335902917959311));
#1959=CARTESIAN_POINT('',(0.0675,0.0570861940974851,0.0315902917959312));
#1960=CARTESIAN_POINT('',(0.0675,0.0570861940974851,0.0295902917959311));
#1961=CARTESIAN_POINT('',(0.0675,0.0540857151166009,0.0295902917959311));
#1962=CARTESIAN_POINT('',(0.0675,0.0530861940974851,0.0295902917959311));
#1963=CARTESIAN_POINT('',(0.0675,0.0530861940974851,0.0315902917959312));
#1964=CARTESIAN_POINT('',(0.,0.0462947003543377,-0.04));
#1965=CARTESIAN_POINT('',(0.,0.0462947003543377,-0.04));
#1966=CARTESIAN_POINT('',(0.,0.0462947003543377,-0.04));
#1967=CARTESIAN_POINT('',(0.,0.0462947003543377,0.02));
#1968=CARTESIAN_POINT('',(0.,0.0462947003543377,0.02));
#1969=CARTESIAN_POINT('',(0.,0.0462947003543377,0.02));
#1970=CARTESIAN_POINT('',(0.,0.0462947003543377,0.02));
#1971=CARTESIAN_POINT('',(0.,0.0462947003543377,0.02));
#1972=CARTESIAN_POINT('',(0.,0.0462947003543377,0.02));
#1973=CARTESIAN_POINT('',(0.,0.0462947003543377,0.02));
#1974=CARTESIAN_POINT('',(0.,0.0462947003543377,0.02));
#1975=CARTESIAN_POINT('',(0.,0.0462947003543377,-0.04));
#1976=CARTESIAN_POINT('',(0.,0.0462947003543377,-0.04));
#1977=CARTESIAN_POINT('',(0.,0.0462947003543377,-0.04));
#1978=CARTESIAN_POINT('',(0.,0.0462947003543377,0.02));
#1979=CARTESIAN_POINT('',(0.,0.0462947003543377,0.02));
#1980=CARTESIAN_POINT('',(0.,0.088,0.));
#1981=CARTESIAN_POINT('',(0.025,0.088,0.));
#1982=CARTESIAN_POINT('',(0.022,0.088,0.));
#1983=CARTESIAN_POINT('',(0.022,0.088,0.));
#1984=CARTESIAN_POINT('',(0.025,0.088,0.));
#1985=CARTESIAN_POINT('',(0.025,0.088,0.));
#1986=CARTESIAN_POINT('',(0.025,0.088,0.));
#1987=CARTESIAN_POINT('',(0.022,0.088,0.));
#1988=CARTESIAN_POINT('',(0.022,0.088,0.));
#1989=CARTESIAN_POINT('',(0.,0.088,0.));
#1990=MECHANICAL_DESIGN_GEOMETRIC_PRESENTATION_REPRESENTATION('',(#1205),
#1991);
#1991=(
GEOMETRIC_REPRESENTATION_CONTEXT(3)
GLOBAL_UNCERTAINTY_ASSIGNED_CONTEXT((#1992))
GLOBAL_UNIT_ASSIGNED_CONTEXT((#1995,#1994,#1993))
REPRESENTATION_CONTEXT('Part 1','TOP_LEVEL_ASSEMBLY_PART')
);
#1992=UNCERTAINTY_MEASURE_WITH_UNIT(LENGTH_MEASURE(1.E-8),#1995,
'DISTANCE_ACCURACY_VALUE','Maximum Tolerance applied to model');
#1993=(
NAMED_UNIT(*)
SI_UNIT($,.STERADIAN.)
SOLID_ANGLE_UNIT()
);
#1994=(
NAMED_UNIT(*)
PLANE_ANGLE_UNIT()
SI_UNIT($,.RADIAN.)
);
#1995=(
LENGTH_UNIT()
NAMED_UNIT(*)
SI_UNIT($,.METRE.)
);
#1996=PRODUCT_DEFINITION_SHAPE('','',#1997);
#1997=PRODUCT_DEFINITION('','',#1999,#1998);
#1998=PRODUCT_DEFINITION_CONTEXT('',#2005,'design');
#1999=PRODUCT_DEFINITION_FORMATION_WITH_SPECIFIED_SOURCE('','',#2001,
 .NOT_KNOWN.);
#2000=PRODUCT_RELATED_PRODUCT_CATEGORY('','',(#2001));
#2001=PRODUCT('Part 1','Part 1','Part 1',(#2003));
#2002=PRODUCT_CATEGORY('','');
#2003=PRODUCT_CONTEXT('',#2005,'mechanical');
#2004=APPLICATION_PROTOCOL_DEFINITION('international standard',
'ap242_managed_model_based_3d_engineering',2020,#2005);
#2005=APPLICATION_CONTEXT('managed model based 3d engineering');
ENDSEC;
END-ISO-10303-21;
