ISO-10303-21;
HEADER;
/* Generated by software containing ST-Developer
 * from STEP Tools, Inc. (www.steptools.com) 
 */
/* OPTION: using custom renumber hook */

FILE_DESCRIPTION(
/* description */ ('STEP AP242 Edition 2',
'CAx-IF Rec.Pracs.---Representation and Presentation of Product Manufa
cturing Information (PMI)---4.0---2014-10-13',
'CAx-IF Rec.Pracs.---3D Tessellated Geometry---0.4---2014-09-14','2;1',
'CAx-IF Rec.Pracs.---User Defined Attributes---1.5---2016-08-15'),
/* implementation_level */ '2;1');

FILE_NAME(
/* name */ 'Part Studio 1 - Part 5',
/* time_stamp */ '2026-09-22T16:52:04Z',
/* author */ (''),
/* organization */ (''),
/* preprocessor_version */ 'ST-DEVELOPER v20',
/* originating_system */ 'ONSHAPE BY PTC INC, 1.221',
/* authorisation */ '  ');

FILE_SCHEMA (('AP242_MANAGED_MODEL_BASED_3D_ENGINEERING_MIM_LF { 1 0 10303 442 3 1 4 }'));
ENDSEC;

DATA;
#10=SHAPE_REPRESENTATION_RELATIONSHIP('','',#262,#11);
#11=ADVANCED_BREP_SHAPE_REPRESENTATION('',(#260),#408);
#12=ORIENTED_EDGE('',*,*,#78,.T.);
#13=ORIENTED_EDGE('',*,*,#79,.T.);
#14=ORIENTED_EDGE('',*,*,#80,.T.);
#15=ORIENTED_EDGE('',*,*,#81,.F.);
#16=ORIENTED_EDGE('',*,*,#82,.F.);
#17=ORIENTED_EDGE('',*,*,#83,.F.);
#18=ORIENTED_EDGE('',*,*,#84,.F.);
#19=ORIENTED_EDGE('',*,*,#85,.T.);
#20=ORIENTED_EDGE('',*,*,#86,.F.);
#21=ORIENTED_EDGE('',*,*,#87,.T.);
#22=ORIENTED_EDGE('',*,*,#82,.T.);
#23=ORIENTED_EDGE('',*,*,#88,.F.);
#24=ORIENTED_EDGE('',*,*,#89,.F.);
#25=ORIENTED_EDGE('',*,*,#90,.F.);
#26=ORIENTED_EDGE('',*,*,#91,.F.);
#27=ORIENTED_EDGE('',*,*,#92,.T.);
#28=ORIENTED_EDGE('',*,*,#93,.T.);
#29=ORIENTED_EDGE('',*,*,#94,.F.);
#30=ORIENTED_EDGE('',*,*,#95,.T.);
#31=ORIENTED_EDGE('',*,*,#96,.T.);
#32=ORIENTED_EDGE('',*,*,#86,.T.);
#33=ORIENTED_EDGE('',*,*,#97,.T.);
#34=ORIENTED_EDGE('',*,*,#98,.F.);
#35=ORIENTED_EDGE('',*,*,#99,.F.);
#36=ORIENTED_EDGE('',*,*,#98,.T.);
#37=ORIENTED_EDGE('',*,*,#100,.T.);
#38=ORIENTED_EDGE('',*,*,#80,.F.);
#39=ORIENTED_EDGE('',*,*,#94,.T.);
#40=ORIENTED_EDGE('',*,*,#101,.T.);
#41=ORIENTED_EDGE('',*,*,#102,.T.);
#42=ORIENTED_EDGE('',*,*,#103,.T.);
#43=ORIENTED_EDGE('',*,*,#91,.T.);
#44=ORIENTED_EDGE('',*,*,#104,.T.);
#45=ORIENTED_EDGE('',*,*,#85,.F.);
#46=ORIENTED_EDGE('',*,*,#105,.F.);
#47=ORIENTED_EDGE('',*,*,#81,.T.);
#48=ORIENTED_EDGE('',*,*,#100,.F.);
#49=ORIENTED_EDGE('',*,*,#97,.F.);
#50=ORIENTED_EDGE('',*,*,#88,.T.);
#51=ORIENTED_EDGE('',*,*,#105,.T.);
#52=ORIENTED_EDGE('',*,*,#84,.T.);
#53=ORIENTED_EDGE('',*,*,#106,.T.);
#54=ORIENTED_EDGE('',*,*,#95,.F.);
#55=ORIENTED_EDGE('',*,*,#106,.F.);
#56=ORIENTED_EDGE('',*,*,#83,.T.);
#57=ORIENTED_EDGE('',*,*,#87,.F.);
#58=ORIENTED_EDGE('',*,*,#96,.F.);
#59=ORIENTED_EDGE('',*,*,#90,.T.);
#60=ORIENTED_EDGE('',*,*,#107,.F.);
#61=ORIENTED_EDGE('',*,*,#78,.F.);
#62=ORIENTED_EDGE('',*,*,#104,.F.);
#63=ORIENTED_EDGE('',*,*,#79,.F.);
#64=ORIENTED_EDGE('',*,*,#107,.T.);
#65=ORIENTED_EDGE('',*,*,#89,.T.);
#66=ORIENTED_EDGE('',*,*,#99,.T.);
#67=ORIENTED_EDGE('',*,*,#102,.F.);
#68=ORIENTED_EDGE('',*,*,#108,.T.);
#69=ORIENTED_EDGE('',*,*,#109,.T.);
#70=ORIENTED_EDGE('',*,*,#103,.F.);
#71=ORIENTED_EDGE('',*,*,#109,.F.);
#72=ORIENTED_EDGE('',*,*,#110,.F.);
#73=ORIENTED_EDGE('',*,*,#92,.F.);
#74=ORIENTED_EDGE('',*,*,#110,.T.);
#75=ORIENTED_EDGE('',*,*,#108,.F.);
#76=ORIENTED_EDGE('',*,*,#101,.F.);
#77=ORIENTED_EDGE('',*,*,#93,.F.);
#78=EDGE_CURVE('',#111,#112,#133,.T.);
#79=EDGE_CURVE('',#112,#113,#134,.T.);
#80=EDGE_CURVE('',#113,#114,#135,.T.);
#81=EDGE_CURVE('',#115,#114,#136,.T.);
#82=EDGE_CURVE('',#116,#115,#137,.T.);
#83=EDGE_CURVE('',#117,#116,#138,.T.);
#84=EDGE_CURVE('',#118,#117,#139,.T.);
#85=EDGE_CURVE('',#118,#111,#140,.T.);
#86=EDGE_CURVE('',#119,#120,#141,.T.);
#87=EDGE_CURVE('',#119,#116,#142,.T.);
#88=EDGE_CURVE('',#120,#115,#143,.T.);
#89=EDGE_CURVE('',#121,#122,#144,.T.);
#90=EDGE_CURVE('',#123,#121,#145,.T.);
#91=EDGE_CURVE('',#124,#123,#146,.T.);
#92=EDGE_CURVE('',#124,#125,#147,.T.);
#93=EDGE_CURVE('',#125,#126,#148,.T.);
#94=EDGE_CURVE('',#127,#126,#149,.T.);
#95=EDGE_CURVE('',#127,#128,#150,.T.);
#96=EDGE_CURVE('',#128,#119,#151,.T.);
#97=EDGE_CURVE('',#120,#129,#152,.T.);
#98=EDGE_CURVE('',#122,#129,#153,.T.);
#99=EDGE_CURVE('',#122,#113,#154,.T.);
#100=EDGE_CURVE('',#129,#114,#155,.T.);
#101=EDGE_CURVE('',#126,#130,#156,.T.);
#102=EDGE_CURVE('',#130,#131,#157,.T.);
#103=EDGE_CURVE('',#131,#124,#158,.T.);
#104=EDGE_CURVE('',#123,#111,#159,.T.);
#105=EDGE_CURVE('',#127,#118,#160,.T.);
#106=EDGE_CURVE('',#117,#128,#161,.T.);
#107=EDGE_CURVE('',#112,#121,#162,.T.);
#108=EDGE_CURVE('',#130,#132,#163,.T.);
#109=EDGE_CURVE('',#132,#131,#164,.T.);
#110=EDGE_CURVE('',#125,#132,#165,.F.);
#111=VERTEX_POINT('',#341);
#112=VERTEX_POINT('',#342);
#113=VERTEX_POINT('',#344);
#114=VERTEX_POINT('',#346);
#115=VERTEX_POINT('',#348);
#116=VERTEX_POINT('',#350);
#117=VERTEX_POINT('',#352);
#118=VERTEX_POINT('',#354);
#119=VERTEX_POINT('',#358);
#120=VERTEX_POINT('',#359);
#121=VERTEX_POINT('',#364);
#122=VERTEX_POINT('',#365);
#123=VERTEX_POINT('',#367);
#124=VERTEX_POINT('',#369);
#125=VERTEX_POINT('',#371);
#126=VERTEX_POINT('',#373);
#127=VERTEX_POINT('',#375);
#128=VERTEX_POINT('',#377);
#129=VERTEX_POINT('',#380);
#130=VERTEX_POINT('',#387);
#131=VERTEX_POINT('',#389);
#132=VERTEX_POINT('',#402);
#133=LINE('',#340,#166);
#134=LINE('',#343,#167);
#135=LINE('',#345,#168);
#136=LINE('',#347,#169);
#137=LINE('',#349,#170);
#138=LINE('',#351,#171);
#139=LINE('',#353,#172);
#140=LINE('',#355,#173);
#141=LINE('',#357,#174);
#142=LINE('',#360,#175);
#143=LINE('',#361,#176);
#144=LINE('',#363,#177);
#145=LINE('',#366,#178);
#146=LINE('',#368,#179);
#147=LINE('',#370,#180);
#148=LINE('',#372,#181);
#149=LINE('',#374,#182);
#150=LINE('',#376,#183);
#151=LINE('',#378,#184);
#152=LINE('',#379,#185);
#153=LINE('',#381,#186);
#154=LINE('',#383,#187);
#155=LINE('',#384,#188);
#156=LINE('',#386,#189);
#157=LINE('',#388,#190);
#158=LINE('',#390,#191);
#159=LINE('',#391,#192);
#160=LINE('',#392,#193);
#161=LINE('',#395,#194);
#162=LINE('',#398,#195);
#163=LINE('',#401,#196);
#164=LINE('',#403,#197);
#165=LINE('',#405,#198);
#166=VECTOR('',#281,1.);
#167=VECTOR('',#282,1.);
#168=VECTOR('',#283,1.);
#169=VECTOR('',#284,1.);
#170=VECTOR('',#285,1.);
#171=VECTOR('',#286,1.);
#172=VECTOR('',#287,1.);
#173=VECTOR('',#288,1.);
#174=VECTOR('',#291,1.);
#175=VECTOR('',#292,1.);
#176=VECTOR('',#293,1.);
#177=VECTOR('',#296,1.);
#178=VECTOR('',#297,1.);
#179=VECTOR('',#298,1.);
#180=VECTOR('',#299,1.);
#181=VECTOR('',#300,1.);
#182=VECTOR('',#301,1.);
#183=VECTOR('',#302,1.);
#184=VECTOR('',#303,1.);
#185=VECTOR('',#304,1.);
#186=VECTOR('',#305,1.);
#187=VECTOR('',#308,1.);
#188=VECTOR('',#309,1.);
#189=VECTOR('',#312,1.);
#190=VECTOR('',#313,1.);
#191=VECTOR('',#314,1.);
#192=VECTOR('',#315,1.);
#193=VECTOR('',#316,1.);
#194=VECTOR('',#321,1.);
#195=VECTOR('',#326,1.);
#196=VECTOR('',#331,1.);
#197=VECTOR('',#332,1.);
#198=VECTOR('',#335,1.);
#199=EDGE_LOOP('',(#12,#13,#14,#15,#16,#17,#18,#19));
#200=EDGE_LOOP('',(#20,#21,#22,#23));
#201=EDGE_LOOP('',(#24,#25,#26,#27,#28,#29,#30,#31,#32,#33,#34));
#202=EDGE_LOOP('',(#35,#36,#37,#38));
#203=EDGE_LOOP('',(#39,#40,#41,#42,#43,#44,#45,#46));
#204=EDGE_LOOP('',(#47,#48,#49,#50));
#205=EDGE_LOOP('',(#51,#52,#53,#54));
#206=EDGE_LOOP('',(#55,#56,#57,#58));
#207=EDGE_LOOP('',(#59,#60,#61,#62));
#208=EDGE_LOOP('',(#63,#64,#65,#66));
#209=EDGE_LOOP('',(#67,#68,#69));
#210=EDGE_LOOP('',(#70,#71,#72,#73));
#211=EDGE_LOOP('',(#74,#75,#76,#77));
#212=FACE_BOUND('',#199,.T.);
#213=FACE_BOUND('',#200,.T.);
#214=FACE_BOUND('',#201,.T.);
#215=FACE_BOUND('',#202,.T.);
#216=FACE_BOUND('',#203,.T.);
#217=FACE_BOUND('',#204,.T.);
#218=FACE_BOUND('',#205,.T.);
#219=FACE_BOUND('',#206,.T.);
#220=FACE_BOUND('',#207,.T.);
#221=FACE_BOUND('',#208,.T.);
#222=FACE_BOUND('',#209,.T.);
#223=FACE_BOUND('',#210,.T.);
#224=FACE_BOUND('',#211,.T.);
#225=PLANE('',#264);
#226=PLANE('',#265);
#227=PLANE('',#266);
#228=PLANE('',#267);
#229=PLANE('',#268);
#230=PLANE('',#269);
#231=PLANE('',#270);
#232=PLANE('',#271);
#233=PLANE('',#272);
#234=PLANE('',#273);
#235=PLANE('',#274);
#236=PLANE('',#275);
#237=PLANE('',#276);
#238=ADVANCED_FACE('',(#212),#225,.T.);
#239=ADVANCED_FACE('',(#213),#226,.T.);
#240=ADVANCED_FACE('',(#214),#227,.F.);
#241=ADVANCED_FACE('',(#215),#228,.F.);
#242=ADVANCED_FACE('',(#216),#229,.T.);
#243=ADVANCED_FACE('',(#217),#230,.F.);
#244=ADVANCED_FACE('',(#218),#231,.F.);
#245=ADVANCED_FACE('',(#219),#232,.T.);
#246=ADVANCED_FACE('',(#220),#233,.T.);
#247=ADVANCED_FACE('',(#221),#234,.T.);
#248=ADVANCED_FACE('',(#222),#235,.F.);
#249=ADVANCED_FACE('',(#223),#236,.T.);
#250=ADVANCED_FACE('',(#224),#237,.T.);
#251=CLOSED_SHELL('',(#238,#239,#240,#241,#242,#243,#244,#245,#246,#247,
#248,#249,#250));
#252=STYLED_ITEM('',(#253),#260);
#253=PRESENTATION_STYLE_ASSIGNMENT((#254));
#254=SURFACE_STYLE_USAGE(.BOTH.,#255);
#255=SURFACE_SIDE_STYLE('',(#256));
#256=SURFACE_STYLE_FILL_AREA(#257);
#257=FILL_AREA_STYLE('',(#258));
#258=FILL_AREA_STYLE_COLOUR('',#259);
#259=COLOUR_RGB('',0.768627450980392,0.886274509803922,0.952941176470588);
#260=MANIFOLD_SOLID_BREP('Part 5',#251);
#261=SHAPE_DEFINITION_REPRESENTATION(#413,#262);
#262=SHAPE_REPRESENTATION('Part 5',(#263),#408);
#263=AXIS2_PLACEMENT_3D('',#338,#277,#278);
#264=AXIS2_PLACEMENT_3D('',#339,#279,#280);
#265=AXIS2_PLACEMENT_3D('',#356,#289,#290);
#266=AXIS2_PLACEMENT_3D('',#362,#294,#295);
#267=AXIS2_PLACEMENT_3D('',#382,#306,#307);
#268=AXIS2_PLACEMENT_3D('',#385,#310,#311);
#269=AXIS2_PLACEMENT_3D('',#393,#317,#318);
#270=AXIS2_PLACEMENT_3D('',#394,#319,#320);
#271=AXIS2_PLACEMENT_3D('',#396,#322,#323);
#272=AXIS2_PLACEMENT_3D('',#397,#324,#325);
#273=AXIS2_PLACEMENT_3D('',#399,#327,#328);
#274=AXIS2_PLACEMENT_3D('',#400,#329,#330);
#275=AXIS2_PLACEMENT_3D('',#404,#333,#334);
#276=AXIS2_PLACEMENT_3D('',#406,#336,#337);
#277=DIRECTION('',(0.,0.,1.));
#278=DIRECTION('',(1.,0.,0.));
#279=DIRECTION('',(0.,0.,1.));
#280=DIRECTION('',(0.,-1.,0.));
#281=DIRECTION('',(0.,-1.,0.));
#282=DIRECTION('',(-1.,0.,0.));
#283=DIRECTION('',(0.,-1.,0.));
#284=DIRECTION('',(-1.,0.,0.));
#285=DIRECTION('',(0.,-1.,0.));
#286=DIRECTION('',(1.,0.,0.));
#287=DIRECTION('',(0.,-1.,0.));
#288=DIRECTION('',(-1.,0.,0.));
#289=DIRECTION('',(1.,0.,0.));
#290=DIRECTION('',(0.,-1.,0.));
#291=DIRECTION('',(0.,-1.,0.));
#292=DIRECTION('',(0.,0.,1.));
#293=DIRECTION('',(0.,0.,1.));
#294=DIRECTION('',(0.,0.,1.));
#295=DIRECTION('',(0.,-1.,0.));
#296=DIRECTION('',(-1.,0.,0.));
#297=DIRECTION('',(0.,-1.,0.));
#298=DIRECTION('',(-1.,0.,0.));
#299=DIRECTION('',(0.64278760968654,0.766044443118978,0.));
#300=DIRECTION('',(0.642787609686539,-0.766044443118978,0.));
#301=DIRECTION('',(-1.,0.,0.));
#302=DIRECTION('',(0.,-1.,0.));
#303=DIRECTION('',(1.,0.,0.));
#304=DIRECTION('',(-1.,0.,0.));
#305=DIRECTION('',(0.,-1.,0.));
#306=DIRECTION('',(1.,0.,0.));
#307=DIRECTION('',(0.,-1.,0.));
#308=DIRECTION('',(0.,0.,1.));
#309=DIRECTION('',(0.,0.,1.));
#310=DIRECTION('',(0.,1.,0.));
#311=DIRECTION('',(1.,0.,0.));
#312=DIRECTION('',(-0.963259219918756,0.,0.26857340754719));
#313=DIRECTION('',(-1.,0.,0.));
#314=DIRECTION('',(-0.963259219918757,0.,-0.268573407547189));
#315=DIRECTION('',(0.,0.,1.));
#316=DIRECTION('',(0.,0.,1.));
#317=DIRECTION('',(0.,1.,0.));
#318=DIRECTION('',(1.,0.,0.));
#319=DIRECTION('',(-1.,0.,0.));
#320=DIRECTION('',(0.,1.,0.));
#321=DIRECTION('',(0.,0.,-1.));
#322=DIRECTION('',(0.,1.,0.));
#323=DIRECTION('',(1.,0.,0.));
#324=DIRECTION('',(-1.,0.,0.));
#325=DIRECTION('',(0.,1.,0.));
#326=DIRECTION('',(0.,0.,-1.));
#327=DIRECTION('',(0.,1.,0.));
#328=DIRECTION('',(1.,0.,0.));
#329=DIRECTION('',(0.,0.,-1.));
#330=DIRECTION('',(-1.,0.,0.));
#331=DIRECTION('',(-0.64278760968654,0.766044443118978,0.));
#332=DIRECTION('',(-0.64278760968654,-0.766044443118978,0.));
#333=DIRECTION('',(-0.262002630229385,0.219846310392954,0.939692620785909));
#334=DIRECTION('',(-0.64278760968654,-0.766044443118978,0.));
#335=DIRECTION('',(-8.85356909989423E-16,0.973706971410851,-0.227804156735359));
#336=DIRECTION('',(0.262002630229386,0.219846310392954,0.939692620785908));
#337=DIRECTION('',(-0.642787609686539,0.766044443118978,0.));
#338=CARTESIAN_POINT('',(0.,0.,0.));
#339=CARTESIAN_POINT('',(0.0530116880109873,0.005,-0.0718908442204872));
#340=CARTESIAN_POINT('',(0.0555116880109873,0.028,-0.0718908442204872));
#341=CARTESIAN_POINT('',(0.0555116880109873,0.005,-0.0718908442204872));
#342=CARTESIAN_POINT('',(0.0555116880109873,0.003,-0.0718908442204872));
#343=CARTESIAN_POINT('',(0.0530116880109873,0.003,-0.0718908442204872));
#344=CARTESIAN_POINT('',(0.0505116880109873,0.003,-0.0718908442204872));
#345=CARTESIAN_POINT('',(0.0505116880109873,0.005,-0.0718908442204872));
#346=CARTESIAN_POINT('',(0.0505116880109873,0.,-0.0718908442204872));
#347=CARTESIAN_POINT('',(0.0530116880109873,0.,-0.0718908442204872));
#348=CARTESIAN_POINT('',(0.145511688010987,0.,-0.0718908442204872));
#349=CARTESIAN_POINT('',(0.145511688010987,0.005,-0.0718908442204872));
#350=CARTESIAN_POINT('',(0.145511688010987,0.003,-0.0718908442204872));
#351=CARTESIAN_POINT('',(0.143011688010987,0.003,-0.0718908442204872));
#352=CARTESIAN_POINT('',(0.140511688010987,0.003,-0.0718908442204872));
#353=CARTESIAN_POINT('',(0.140511688010987,0.028,-0.0718908442204872));
#354=CARTESIAN_POINT('',(0.140511688010987,0.005,-0.0718908442204872));
#355=CARTESIAN_POINT('',(0.0530116880109873,0.005,-0.0718908442204872));
#356=CARTESIAN_POINT('',(0.145511688010987,0.005,-0.0732908442204872));
#357=CARTESIAN_POINT('',(0.145511688010987,0.005,-0.0746908442204871));
#358=CARTESIAN_POINT('',(0.145511688010987,0.003,-0.0746908442204871));
#359=CARTESIAN_POINT('',(0.145511688010987,0.,-0.0746908442204871));
#360=CARTESIAN_POINT('',(0.145511688010987,0.003,-0.0732908442204872));
#361=CARTESIAN_POINT('',(0.145511688010987,0.,-0.0732908442204872));
#362=CARTESIAN_POINT('',(0.0530116880109873,0.005,-0.0746908442204872));
#363=CARTESIAN_POINT('',(0.0530116880109873,0.003,-0.0746908442204872));
#364=CARTESIAN_POINT('',(0.0555116880109873,0.003,-0.0746908442204872));
#365=CARTESIAN_POINT('',(0.0505116880109873,0.003,-0.0746908442204872));
#366=CARTESIAN_POINT('',(0.0555116880109873,0.028,-0.0746908442204872));
#367=CARTESIAN_POINT('',(0.0555116880109873,0.005,-0.0746908442204872));
#368=CARTESIAN_POINT('',(0.0530116880109873,0.005,-0.0746908442204872));
#369=CARTESIAN_POINT('',(0.0955116880109874,0.005,-0.0746908442204872));
#370=CARTESIAN_POINT('',(0.0976094370889305,0.0075,-0.0746908442204872));
#371=CARTESIAN_POINT('',(0.0997071861668737,0.01,-0.0746908442204872));
#372=CARTESIAN_POINT('',(0.101804935244817,0.0075,-0.0746908442204872));
#373=CARTESIAN_POINT('',(0.10390268432276,0.005,-0.0746908442204872));
#374=CARTESIAN_POINT('',(0.0530116880109873,0.005,-0.0746908442204872));
#375=CARTESIAN_POINT('',(0.140511688010987,0.005,-0.0746908442204872));
#376=CARTESIAN_POINT('',(0.140511688010987,0.028,-0.0746908442204872));
#377=CARTESIAN_POINT('',(0.140511688010987,0.003,-0.0746908442204872));
#378=CARTESIAN_POINT('',(0.143011688010987,0.003,-0.0746908442204872));
#379=CARTESIAN_POINT('',(0.0530116880109873,0.,-0.0746908442204872));
#380=CARTESIAN_POINT('',(0.0505116880109873,0.,-0.0746908442204872));
#381=CARTESIAN_POINT('',(0.0505116880109873,0.005,-0.0746908442204872));
#382=CARTESIAN_POINT('',(0.0505116880109873,0.005,-0.0732908442204872));
#383=CARTESIAN_POINT('',(0.0505116880109873,0.003,-0.0732908442204872));
#384=CARTESIAN_POINT('',(0.0505116880109873,0.,-0.0732908442204872));
#385=CARTESIAN_POINT('',(0.0980116880109873,0.005,-0.0732908442204872));
#386=CARTESIAN_POINT('',(0.101956249400045,0.005,-0.0741481443439093));
#387=CARTESIAN_POINT('',(0.099957449567065,0.005,-0.0735908442204871));
#388=CARTESIAN_POINT('',(0.0530116880109873,0.005,-0.0735908442204871));
#389=CARTESIAN_POINT('',(0.0994569227666825,0.005,-0.0735908442204871));
#390=CARTESIAN_POINT('',(0.0974581229337022,0.005,-0.0741481443439093));
#391=CARTESIAN_POINT('',(0.0555116880109873,0.005,-0.0732908442204872));
#392=CARTESIAN_POINT('',(0.140511688010987,0.005,-0.0732908442204872));
#393=CARTESIAN_POINT('',(0.0980116880109873,0.,-0.0732908442204872));
#394=CARTESIAN_POINT('',(0.140511688010987,0.028,-0.0732908442204872));
#395=CARTESIAN_POINT('',(0.140511688010987,0.003,-0.0732908442204872));
#396=CARTESIAN_POINT('',(0.0980116880109873,0.003,-0.0732908442204872));
#397=CARTESIAN_POINT('',(0.0555116880109873,0.028,-0.0732908442204872));
#398=CARTESIAN_POINT('',(0.0555116880109873,0.003,-0.0732908442204872));
#399=CARTESIAN_POINT('',(0.0980116880109873,0.003,-0.0732908442204872));
#400=CARTESIAN_POINT('',(0.0980116880109873,0.005,-0.0735908442204871));
#401=CARTESIAN_POINT('',(0.0973920273761288,0.0080573511125691,-0.0735908442204871));
#402=CARTESIAN_POINT('',(0.0997071861668737,0.00529825230627281,-0.0735908442204871));
#403=CARTESIAN_POINT('',(0.0978268468017322,0.00305735111256912,-0.0735908442204871));
#404=CARTESIAN_POINT('',(0.0976094370889305,0.0075,-0.0746908442204872));
#405=CARTESIAN_POINT('',(0.0997071861668737,0.00762973683456476,-0.0741363079816632));
#406=CARTESIAN_POINT('',(0.101804935244817,0.0075,-0.0746908442204872));
#407=MECHANICAL_DESIGN_GEOMETRIC_PRESENTATION_REPRESENTATION('',(#252),
#408);
#408=(
GEOMETRIC_REPRESENTATION_CONTEXT(3)
GLOBAL_UNCERTAINTY_ASSIGNED_CONTEXT((#409))
GLOBAL_UNIT_ASSIGNED_CONTEXT((#412,#411,#410))
REPRESENTATION_CONTEXT('Part 5','TOP_LEVEL_ASSEMBLY_PART')
);
#409=UNCERTAINTY_MEASURE_WITH_UNIT(LENGTH_MEASURE(1.E-8),#412,
'DISTANCE_ACCURACY_VALUE','Maximum Tolerance applied to model');
#410=(
NAMED_UNIT(*)
SI_UNIT($,.STERADIAN.)
SOLID_ANGLE_UNIT()
);
#411=(
NAMED_UNIT(*)
PLANE_ANGLE_UNIT()
SI_UNIT($,.RADIAN.)
);
#412=(
LENGTH_UNIT()
NAMED_UNIT(*)
SI_UNIT($,.METRE.)
);
#413=PRODUCT_DEFINITION_SHAPE('','',#414);
#414=PRODUCT_DEFINITION('','',#416,#415);
#415=PRODUCT_DEFINITION_CONTEXT('',#422,'design');
#416=PRODUCT_DEFINITION_FORMATION_WITH_SPECIFIED_SOURCE('','',#418,
 .NOT_KNOWN.);
#417=PRODUCT_RELATED_PRODUCT_CATEGORY('','',(#418));
#418=PRODUCT('Part 5','Part 5','Part 5',(#420));
#419=PRODUCT_CATEGORY('','');
#420=PRODUCT_CONTEXT('',#422,'mechanical');
#421=APPLICATION_PROTOCOL_DEFINITION('international standard',
'ap242_managed_model_based_3d_engineering',2020,#422);
#422=APPLICATION_CONTEXT('managed model based 3d engineering');
ENDSEC;
END-ISO-10303-21;
