ISO-10303-21;
HEADER;
/* Generated by software containing ST-Developer
 * from STEP Tools, Inc. (www.steptools.com) 
 */
/* OPTION: using custom renumber hook */

FILE_DESCRIPTION(
/* description */ ('STEP AP242 Edition 2',
'CAx-IF Rec.Pracs.---Representation and Presentation of Product Manufa
cturing Information (PMI)---4.0---2014-10-13',
'CAx-IF Rec.Pracs.---3D Tessellated Geometry---0.4---2014-09-14','2;1',
'CAx-IF Rec.Pracs.---User Defined Attributes---1.5---2016-08-15'),
/* implementation_level */ '2;1');

FILE_NAME(
/* name */ 'Part Studio 1 - Part 3',
/* time_stamp */ '2026-09-22T16:52:04Z',
/* author */ (''),
/* organization */ (''),
/* preprocessor_version */ 'ST-DEVELOPER v20',
/* originating_system */ 'ONSHAPE BY PTC INC, 1.221',
/* authorisation */ '  ');

FILE_SCHEMA (('AP242_MANAGED_MODEL_BASED_3D_ENGINEERING_MIM_LF { 1 0 10303 442 3 1 4 }'));
ENDSEC;

DATA;
#10=SHAPE_REPRESENTATION_RELATIONSHIP('','',#307,#11);
#11=ADVANCED_BREP_SHAPE_REPRESENTATION('',(#305),#517);
#12=PLANE('',#315);
#13=PLANE('',#328);
#14=ORIENTED_EDGE('',*,*,#70,.T.);
#15=ORIENTED_EDGE('',*,*,#71,.F.);
#16=ORIENTED_EDGE('',*,*,#72,.F.);
#17=ORIENTED_EDGE('',*,*,#73,.T.);
#18=ORIENTED_EDGE('',*,*,#74,.F.);
#19=ORIENTED_EDGE('',*,*,#75,.F.);
#20=ORIENTED_EDGE('',*,*,#76,.F.);
#21=ORIENTED_EDGE('',*,*,#77,.F.);
#22=ORIENTED_EDGE('',*,*,#78,.F.);
#23=ORIENTED_EDGE('',*,*,#79,.F.);
#24=ORIENTED_EDGE('',*,*,#80,.F.);
#25=ORIENTED_EDGE('',*,*,#81,.F.);
#26=ORIENTED_EDGE('',*,*,#82,.F.);
#27=ORIENTED_EDGE('',*,*,#83,.F.);
#28=ORIENTED_EDGE('',*,*,#84,.F.);
#29=ORIENTED_EDGE('',*,*,#85,.F.);
#30=ORIENTED_EDGE('',*,*,#70,.F.);
#31=ORIENTED_EDGE('',*,*,#72,.T.);
#32=ORIENTED_EDGE('',*,*,#86,.T.);
#33=ORIENTED_EDGE('',*,*,#87,.T.);
#34=ORIENTED_EDGE('',*,*,#88,.T.);
#35=ORIENTED_EDGE('',*,*,#89,.T.);
#36=ORIENTED_EDGE('',*,*,#90,.T.);
#37=ORIENTED_EDGE('',*,*,#91,.T.);
#38=ORIENTED_EDGE('',*,*,#92,.T.);
#39=ORIENTED_EDGE('',*,*,#93,.T.);
#40=ORIENTED_EDGE('',*,*,#94,.T.);
#41=ORIENTED_EDGE('',*,*,#95,.T.);
#42=ORIENTED_EDGE('',*,*,#96,.T.);
#43=ORIENTED_EDGE('',*,*,#97,.T.);
#44=ORIENTED_EDGE('',*,*,#71,.T.);
#45=ORIENTED_EDGE('',*,*,#73,.F.);
#46=ORIENTED_EDGE('',*,*,#85,.T.);
#47=ORIENTED_EDGE('',*,*,#97,.F.);
#48=ORIENTED_EDGE('',*,*,#84,.T.);
#49=ORIENTED_EDGE('',*,*,#96,.F.);
#50=ORIENTED_EDGE('',*,*,#83,.T.);
#51=ORIENTED_EDGE('',*,*,#95,.F.);
#52=ORIENTED_EDGE('',*,*,#82,.T.);
#53=ORIENTED_EDGE('',*,*,#94,.F.);
#54=ORIENTED_EDGE('',*,*,#81,.T.);
#55=ORIENTED_EDGE('',*,*,#93,.F.);
#56=ORIENTED_EDGE('',*,*,#80,.T.);
#57=ORIENTED_EDGE('',*,*,#92,.F.);
#58=ORIENTED_EDGE('',*,*,#79,.T.);
#59=ORIENTED_EDGE('',*,*,#91,.F.);
#60=ORIENTED_EDGE('',*,*,#78,.T.);
#61=ORIENTED_EDGE('',*,*,#90,.F.);
#62=ORIENTED_EDGE('',*,*,#77,.T.);
#63=ORIENTED_EDGE('',*,*,#89,.F.);
#64=ORIENTED_EDGE('',*,*,#76,.T.);
#65=ORIENTED_EDGE('',*,*,#88,.F.);
#66=ORIENTED_EDGE('',*,*,#75,.T.);
#67=ORIENTED_EDGE('',*,*,#87,.F.);
#68=ORIENTED_EDGE('',*,*,#74,.T.);
#69=ORIENTED_EDGE('',*,*,#86,.F.);
#70=EDGE_CURVE('',#98,#98,#126,.T.);
#71=EDGE_CURVE('',#99,#99,#127,.T.);
#72=EDGE_CURVE('',#100,#100,#128,.T.);
#73=EDGE_CURVE('',#101,#101,#129,.T.);
#74=EDGE_CURVE('',#102,#102,#130,.T.);
#75=EDGE_CURVE('',#103,#103,#131,.T.);
#76=EDGE_CURVE('',#104,#104,#132,.T.);
#77=EDGE_CURVE('',#105,#105,#133,.T.);
#78=EDGE_CURVE('',#106,#106,#134,.T.);
#79=EDGE_CURVE('',#107,#107,#135,.T.);
#80=EDGE_CURVE('',#108,#108,#136,.T.);
#81=EDGE_CURVE('',#109,#109,#137,.T.);
#82=EDGE_CURVE('',#110,#110,#138,.T.);
#83=EDGE_CURVE('',#111,#111,#139,.T.);
#84=EDGE_CURVE('',#112,#112,#140,.T.);
#85=EDGE_CURVE('',#113,#113,#141,.T.);
#86=EDGE_CURVE('',#114,#114,#142,.T.);
#87=EDGE_CURVE('',#115,#115,#143,.T.);
#88=EDGE_CURVE('',#116,#116,#144,.T.);
#89=EDGE_CURVE('',#117,#117,#145,.T.);
#90=EDGE_CURVE('',#118,#118,#146,.T.);
#91=EDGE_CURVE('',#119,#119,#147,.T.);
#92=EDGE_CURVE('',#120,#120,#148,.T.);
#93=EDGE_CURVE('',#121,#121,#149,.T.);
#94=EDGE_CURVE('',#122,#122,#150,.T.);
#95=EDGE_CURVE('',#123,#123,#151,.T.);
#96=EDGE_CURVE('',#124,#124,#152,.T.);
#97=EDGE_CURVE('',#125,#125,#153,.T.);
#98=VERTEX_POINT('',#446);
#99=VERTEX_POINT('',#448);
#100=VERTEX_POINT('',#451);
#101=VERTEX_POINT('',#453);
#102=VERTEX_POINT('',#456);
#103=VERTEX_POINT('',#458);
#104=VERTEX_POINT('',#460);
#105=VERTEX_POINT('',#462);
#106=VERTEX_POINT('',#464);
#107=VERTEX_POINT('',#466);
#108=VERTEX_POINT('',#468);
#109=VERTEX_POINT('',#470);
#110=VERTEX_POINT('',#472);
#111=VERTEX_POINT('',#474);
#112=VERTEX_POINT('',#476);
#113=VERTEX_POINT('',#478);
#114=VERTEX_POINT('',#481);
#115=VERTEX_POINT('',#483);
#116=VERTEX_POINT('',#485);
#117=VERTEX_POINT('',#487);
#118=VERTEX_POINT('',#489);
#119=VERTEX_POINT('',#491);
#120=VERTEX_POINT('',#493);
#121=VERTEX_POINT('',#495);
#122=VERTEX_POINT('',#497);
#123=VERTEX_POINT('',#499);
#124=VERTEX_POINT('',#501);
#125=VERTEX_POINT('',#503);
#126=CIRCLE('',#310,0.0041);
#127=CIRCLE('',#311,0.0041);
#128=CIRCLE('',#313,0.007);
#129=CIRCLE('',#314,0.007);
#130=CIRCLE('',#316,0.0011);
#131=CIRCLE('',#317,0.0011);
#132=CIRCLE('',#318,0.0011);
#133=CIRCLE('',#319,0.0011);
#134=CIRCLE('',#320,0.0011);
#135=CIRCLE('',#321,0.0011);
#136=CIRCLE('',#322,0.0011);
#137=CIRCLE('',#323,0.0011);
#138=CIRCLE('',#324,0.0011);
#139=CIRCLE('',#325,0.0011);
#140=CIRCLE('',#326,0.0011);
#141=CIRCLE('',#327,0.0011);
#142=CIRCLE('',#329,0.0011);
#143=CIRCLE('',#330,0.0011);
#144=CIRCLE('',#331,0.0011);
#145=CIRCLE('',#332,0.0011);
#146=CIRCLE('',#333,0.0011);
#147=CIRCLE('',#334,0.0011);
#148=CIRCLE('',#335,0.0011);
#149=CIRCLE('',#336,0.0011);
#150=CIRCLE('',#337,0.0011);
#151=CIRCLE('',#338,0.0011);
#152=CIRCLE('',#339,0.0011);
#153=CIRCLE('',#340,0.0011);
#154=EDGE_LOOP('',(#14));
#155=EDGE_LOOP('',(#15));
#156=EDGE_LOOP('',(#16));
#157=EDGE_LOOP('',(#17));
#158=EDGE_LOOP('',(#18));
#159=EDGE_LOOP('',(#19));
#160=EDGE_LOOP('',(#20));
#161=EDGE_LOOP('',(#21));
#162=EDGE_LOOP('',(#22));
#163=EDGE_LOOP('',(#23));
#164=EDGE_LOOP('',(#24));
#165=EDGE_LOOP('',(#25));
#166=EDGE_LOOP('',(#26));
#167=EDGE_LOOP('',(#27));
#168=EDGE_LOOP('',(#28));
#169=EDGE_LOOP('',(#29));
#170=EDGE_LOOP('',(#30));
#171=EDGE_LOOP('',(#31));
#172=EDGE_LOOP('',(#32));
#173=EDGE_LOOP('',(#33));
#174=EDGE_LOOP('',(#34));
#175=EDGE_LOOP('',(#35));
#176=EDGE_LOOP('',(#36));
#177=EDGE_LOOP('',(#37));
#178=EDGE_LOOP('',(#38));
#179=EDGE_LOOP('',(#39));
#180=EDGE_LOOP('',(#40));
#181=EDGE_LOOP('',(#41));
#182=EDGE_LOOP('',(#42));
#183=EDGE_LOOP('',(#43));
#184=EDGE_LOOP('',(#44));
#185=EDGE_LOOP('',(#45));
#186=EDGE_LOOP('',(#46));
#187=EDGE_LOOP('',(#47));
#188=EDGE_LOOP('',(#48));
#189=EDGE_LOOP('',(#49));
#190=EDGE_LOOP('',(#50));
#191=EDGE_LOOP('',(#51));
#192=EDGE_LOOP('',(#52));
#193=EDGE_LOOP('',(#53));
#194=EDGE_LOOP('',(#54));
#195=EDGE_LOOP('',(#55));
#196=EDGE_LOOP('',(#56));
#197=EDGE_LOOP('',(#57));
#198=EDGE_LOOP('',(#58));
#199=EDGE_LOOP('',(#59));
#200=EDGE_LOOP('',(#60));
#201=EDGE_LOOP('',(#61));
#202=EDGE_LOOP('',(#62));
#203=EDGE_LOOP('',(#63));
#204=EDGE_LOOP('',(#64));
#205=EDGE_LOOP('',(#65));
#206=EDGE_LOOP('',(#66));
#207=EDGE_LOOP('',(#67));
#208=EDGE_LOOP('',(#68));
#209=EDGE_LOOP('',(#69));
#210=FACE_BOUND('',#154,.T.);
#211=FACE_BOUND('',#155,.T.);
#212=FACE_BOUND('',#156,.T.);
#213=FACE_BOUND('',#157,.T.);
#214=FACE_BOUND('',#158,.T.);
#215=FACE_BOUND('',#159,.T.);
#216=FACE_BOUND('',#160,.T.);
#217=FACE_BOUND('',#161,.T.);
#218=FACE_BOUND('',#162,.T.);
#219=FACE_BOUND('',#163,.T.);
#220=FACE_BOUND('',#164,.T.);
#221=FACE_BOUND('',#165,.T.);
#222=FACE_BOUND('',#166,.T.);
#223=FACE_BOUND('',#167,.T.);
#224=FACE_BOUND('',#168,.T.);
#225=FACE_BOUND('',#169,.T.);
#226=FACE_BOUND('',#170,.T.);
#227=FACE_BOUND('',#171,.T.);
#228=FACE_BOUND('',#172,.T.);
#229=FACE_BOUND('',#173,.T.);
#230=FACE_BOUND('',#174,.T.);
#231=FACE_BOUND('',#175,.T.);
#232=FACE_BOUND('',#176,.T.);
#233=FACE_BOUND('',#177,.T.);
#234=FACE_BOUND('',#178,.T.);
#235=FACE_BOUND('',#179,.T.);
#236=FACE_BOUND('',#180,.T.);
#237=FACE_BOUND('',#181,.T.);
#238=FACE_BOUND('',#182,.T.);
#239=FACE_BOUND('',#183,.T.);
#240=FACE_BOUND('',#184,.T.);
#241=FACE_BOUND('',#185,.T.);
#242=FACE_BOUND('',#186,.T.);
#243=FACE_BOUND('',#187,.T.);
#244=FACE_BOUND('',#188,.T.);
#245=FACE_BOUND('',#189,.T.);
#246=FACE_BOUND('',#190,.T.);
#247=FACE_BOUND('',#191,.T.);
#248=FACE_BOUND('',#192,.T.);
#249=FACE_BOUND('',#193,.T.);
#250=FACE_BOUND('',#194,.T.);
#251=FACE_BOUND('',#195,.T.);
#252=FACE_BOUND('',#196,.T.);
#253=FACE_BOUND('',#197,.T.);
#254=FACE_BOUND('',#198,.T.);
#255=FACE_BOUND('',#199,.T.);
#256=FACE_BOUND('',#200,.T.);
#257=FACE_BOUND('',#201,.T.);
#258=FACE_BOUND('',#202,.T.);
#259=FACE_BOUND('',#203,.T.);
#260=FACE_BOUND('',#204,.T.);
#261=FACE_BOUND('',#205,.T.);
#262=FACE_BOUND('',#206,.T.);
#263=FACE_BOUND('',#207,.T.);
#264=FACE_BOUND('',#208,.T.);
#265=FACE_BOUND('',#209,.T.);
#266=CYLINDRICAL_SURFACE('',#309,0.0041);
#267=CYLINDRICAL_SURFACE('',#312,0.007);
#268=CYLINDRICAL_SURFACE('',#341,0.0011);
#269=CYLINDRICAL_SURFACE('',#342,0.0011);
#270=CYLINDRICAL_SURFACE('',#343,0.0011);
#271=CYLINDRICAL_SURFACE('',#344,0.0011);
#272=CYLINDRICAL_SURFACE('',#345,0.0011);
#273=CYLINDRICAL_SURFACE('',#346,0.0011);
#274=CYLINDRICAL_SURFACE('',#347,0.0011);
#275=CYLINDRICAL_SURFACE('',#348,0.0011);
#276=CYLINDRICAL_SURFACE('',#349,0.0011);
#277=CYLINDRICAL_SURFACE('',#350,0.0011);
#278=CYLINDRICAL_SURFACE('',#351,0.0011);
#279=CYLINDRICAL_SURFACE('',#352,0.0011);
#280=ADVANCED_FACE('',(#210,#211),#266,.F.);
#281=ADVANCED_FACE('',(#212,#213),#267,.T.);
#282=ADVANCED_FACE('',(#214,#215,#216,#217,#218,#219,#220,#221,#222,#223,
#224,#225,#226,#227),#12,.T.);
#283=ADVANCED_FACE('',(#228,#229,#230,#231,#232,#233,#234,#235,#236,#237,
#238,#239,#240,#241),#13,.F.);
#284=ADVANCED_FACE('',(#242,#243),#268,.F.);
#285=ADVANCED_FACE('',(#244,#245),#269,.F.);
#286=ADVANCED_FACE('',(#246,#247),#270,.F.);
#287=ADVANCED_FACE('',(#248,#249),#271,.F.);
#288=ADVANCED_FACE('',(#250,#251),#272,.F.);
#289=ADVANCED_FACE('',(#252,#253),#273,.F.);
#290=ADVANCED_FACE('',(#254,#255),#274,.F.);
#291=ADVANCED_FACE('',(#256,#257),#275,.F.);
#292=ADVANCED_FACE('',(#258,#259),#276,.F.);
#293=ADVANCED_FACE('',(#260,#261),#277,.F.);
#294=ADVANCED_FACE('',(#262,#263),#278,.F.);
#295=ADVANCED_FACE('',(#264,#265),#279,.F.);
#296=CLOSED_SHELL('',(#280,#281,#282,#283,#284,#285,#286,#287,#288,#289,
#290,#291,#292,#293,#294,#295));
#297=STYLED_ITEM('',(#298),#305);
#298=PRESENTATION_STYLE_ASSIGNMENT((#299));
#299=SURFACE_STYLE_USAGE(.BOTH.,#300);
#300=SURFACE_SIDE_STYLE('',(#301));
#301=SURFACE_STYLE_FILL_AREA(#302);
#302=FILL_AREA_STYLE('',(#303));
#303=FILL_AREA_STYLE_COLOUR('',#304);
#304=COLOUR_RGB('',0.231372549019608,0.380392156862745,0.705882352941177);
#305=MANIFOLD_SOLID_BREP('Part 3',#296);
#306=SHAPE_DEFINITION_REPRESENTATION(#522,#307);
#307=SHAPE_REPRESENTATION('Part 3',(#308),#517);
#308=AXIS2_PLACEMENT_3D('',#443,#353,#354);
#309=AXIS2_PLACEMENT_3D('',#444,#355,#356);
#310=AXIS2_PLACEMENT_3D('',#445,#357,#358);
#311=AXIS2_PLACEMENT_3D('',#447,#359,#360);
#312=AXIS2_PLACEMENT_3D('',#449,#361,#362);
#313=AXIS2_PLACEMENT_3D('',#450,#363,#364);
#314=AXIS2_PLACEMENT_3D('',#452,#365,#366);
#315=AXIS2_PLACEMENT_3D('',#454,#367,#368);
#316=AXIS2_PLACEMENT_3D('',#455,#369,#370);
#317=AXIS2_PLACEMENT_3D('',#457,#371,#372);
#318=AXIS2_PLACEMENT_3D('',#459,#373,#374);
#319=AXIS2_PLACEMENT_3D('',#461,#375,#376);
#320=AXIS2_PLACEMENT_3D('',#463,#377,#378);
#321=AXIS2_PLACEMENT_3D('',#465,#379,#380);
#322=AXIS2_PLACEMENT_3D('',#467,#381,#382);
#323=AXIS2_PLACEMENT_3D('',#469,#383,#384);
#324=AXIS2_PLACEMENT_3D('',#471,#385,#386);
#325=AXIS2_PLACEMENT_3D('',#473,#387,#388);
#326=AXIS2_PLACEMENT_3D('',#475,#389,#390);
#327=AXIS2_PLACEMENT_3D('',#477,#391,#392);
#328=AXIS2_PLACEMENT_3D('',#479,#393,#394);
#329=AXIS2_PLACEMENT_3D('',#480,#395,#396);
#330=AXIS2_PLACEMENT_3D('',#482,#397,#398);
#331=AXIS2_PLACEMENT_3D('',#484,#399,#400);
#332=AXIS2_PLACEMENT_3D('',#486,#401,#402);
#333=AXIS2_PLACEMENT_3D('',#488,#403,#404);
#334=AXIS2_PLACEMENT_3D('',#490,#405,#406);
#335=AXIS2_PLACEMENT_3D('',#492,#407,#408);
#336=AXIS2_PLACEMENT_3D('',#494,#409,#410);
#337=AXIS2_PLACEMENT_3D('',#496,#411,#412);
#338=AXIS2_PLACEMENT_3D('',#498,#413,#414);
#339=AXIS2_PLACEMENT_3D('',#500,#415,#416);
#340=AXIS2_PLACEMENT_3D('',#502,#417,#418);
#341=AXIS2_PLACEMENT_3D('',#504,#419,#420);
#342=AXIS2_PLACEMENT_3D('',#505,#421,#422);
#343=AXIS2_PLACEMENT_3D('',#506,#423,#424);
#344=AXIS2_PLACEMENT_3D('',#507,#425,#426);
#345=AXIS2_PLACEMENT_3D('',#508,#427,#428);
#346=AXIS2_PLACEMENT_3D('',#509,#429,#430);
#347=AXIS2_PLACEMENT_3D('',#510,#431,#432);
#348=AXIS2_PLACEMENT_3D('',#511,#433,#434);
#349=AXIS2_PLACEMENT_3D('',#512,#435,#436);
#350=AXIS2_PLACEMENT_3D('',#513,#437,#438);
#351=AXIS2_PLACEMENT_3D('',#514,#439,#440);
#352=AXIS2_PLACEMENT_3D('',#515,#441,#442);
#353=DIRECTION('',(0.,0.,1.));
#354=DIRECTION('',(1.,0.,0.));
#355=DIRECTION('',(0.,-1.,0.));
#356=DIRECTION('',(-1.,0.,0.));
#357=DIRECTION('',(0.,1.,0.));
#358=DIRECTION('',(1.,0.,0.));
#359=DIRECTION('',(0.,1.,0.));
#360=DIRECTION('',(1.,0.,0.));
#361=DIRECTION('',(0.,-1.,0.));
#362=DIRECTION('',(-1.,0.,0.));
#363=DIRECTION('',(0.,1.,0.));
#364=DIRECTION('',(1.,0.,0.));
#365=DIRECTION('',(0.,1.,0.));
#366=DIRECTION('',(1.,0.,0.));
#367=DIRECTION('',(0.,1.,0.));
#368=DIRECTION('',(1.,0.,0.));
#369=DIRECTION('',(0.,1.,0.));
#370=DIRECTION('',(-0.86602540378444,0.,0.5));
#371=DIRECTION('',(0.,1.,0.));
#372=DIRECTION('',(-0.5,0.,0.86602540378444));
#373=DIRECTION('',(0.,1.,0.));
#374=DIRECTION('',(-1.,0.,0.));
#375=DIRECTION('',(0.,1.,0.));
#376=DIRECTION('',(-0.866025403784438,0.,-0.5));
#377=DIRECTION('',(0.,1.,0.));
#378=DIRECTION('',(-0.5,0.,-0.866025403784441));
#379=DIRECTION('',(0.,1.,0.));
#380=DIRECTION('',(0.,0.,-1.));
#381=DIRECTION('',(0.,1.,0.));
#382=DIRECTION('',(0.86602540378444,0.,-0.5));
#383=DIRECTION('',(0.,1.,0.));
#384=DIRECTION('',(0.5,0.,-0.86602540378444));
#385=DIRECTION('',(0.,1.,0.));
#386=DIRECTION('',(0.866025403784438,0.,0.5));
#387=DIRECTION('',(0.,1.,0.));
#388=DIRECTION('',(0.5,0.,0.86602540378444));
#389=DIRECTION('',(0.,1.,0.));
#390=DIRECTION('',(0.,0.,1.));
#391=DIRECTION('',(0.,1.,0.));
#392=DIRECTION('',(1.,0.,0.));
#393=DIRECTION('',(0.,1.,0.));
#394=DIRECTION('',(1.,0.,0.));
#395=DIRECTION('',(0.,1.,0.));
#396=DIRECTION('',(1.,0.,0.));
#397=DIRECTION('',(0.,1.,0.));
#398=DIRECTION('',(1.,0.,0.));
#399=DIRECTION('',(0.,1.,0.));
#400=DIRECTION('',(1.,0.,0.));
#401=DIRECTION('',(0.,1.,0.));
#402=DIRECTION('',(1.,0.,0.));
#403=DIRECTION('',(0.,1.,0.));
#404=DIRECTION('',(1.,0.,0.));
#405=DIRECTION('',(0.,1.,0.));
#406=DIRECTION('',(1.,0.,0.));
#407=DIRECTION('',(0.,1.,0.));
#408=DIRECTION('',(1.,0.,0.));
#409=DIRECTION('',(0.,1.,0.));
#410=DIRECTION('',(1.,0.,0.));
#411=DIRECTION('',(0.,1.,0.));
#412=DIRECTION('',(1.,0.,0.));
#413=DIRECTION('',(0.,1.,0.));
#414=DIRECTION('',(1.,0.,0.));
#415=DIRECTION('',(0.,1.,0.));
#416=DIRECTION('',(1.,0.,0.));
#417=DIRECTION('',(0.,1.,0.));
#418=DIRECTION('',(1.,0.,0.));
#419=DIRECTION('',(0.,1.,0.));
#420=DIRECTION('',(1.,0.,0.));
#421=DIRECTION('',(0.,1.,0.));
#422=DIRECTION('',(1.,0.,0.));
#423=DIRECTION('',(0.,1.,0.));
#424=DIRECTION('',(1.,0.,0.));
#425=DIRECTION('',(0.,1.,0.));
#426=DIRECTION('',(1.,0.,0.));
#427=DIRECTION('',(0.,1.,0.));
#428=DIRECTION('',(1.,0.,0.));
#429=DIRECTION('',(0.,1.,0.));
#430=DIRECTION('',(1.,0.,0.));
#431=DIRECTION('',(0.,1.,0.));
#432=DIRECTION('',(1.,0.,0.));
#433=DIRECTION('',(0.,1.,0.));
#434=DIRECTION('',(1.,0.,0.));
#435=DIRECTION('',(0.,1.,0.));
#436=DIRECTION('',(1.,0.,0.));
#437=DIRECTION('',(0.,1.,0.));
#438=DIRECTION('',(1.,0.,0.));
#439=DIRECTION('',(0.,1.,0.));
#440=DIRECTION('',(1.,0.,0.));
#441=DIRECTION('',(0.,1.,0.));
#442=DIRECTION('',(1.,0.,0.));
#443=CARTESIAN_POINT('',(0.,0.,0.));
#444=CARTESIAN_POINT('',(-0.106958009427232,0.003,-0.0234350250503657));
#445=CARTESIAN_POINT('',(-0.106958009427232,0.003,-0.0234350250503657));
#446=CARTESIAN_POINT('',(-0.102858009427232,0.003,-0.0234350250503657));
#447=CARTESIAN_POINT('',(-0.106958009427232,0.,-0.0234350250503657));
#448=CARTESIAN_POINT('',(-0.102858009427232,0.,-0.0234350250503657));
#449=CARTESIAN_POINT('',(-0.106958009427232,0.003,-0.0234350250503657));
#450=CARTESIAN_POINT('',(-0.106958009427232,0.003,-0.0234350250503657));
#451=CARTESIAN_POINT('',(-0.0999580094272324,0.003,-0.0234350250503657));
#452=CARTESIAN_POINT('',(-0.106958009427232,0.,-0.0234350250503657));
#453=CARTESIAN_POINT('',(-0.0999580094272324,0.,-0.0234350250503657));
#454=CARTESIAN_POINT('',(-0.106958009427232,0.003,-0.0234350250503657));
#455=CARTESIAN_POINT('',(-0.104183009427232,0.003,-0.0186285840593621));
#456=CARTESIAN_POINT('',(-0.105135637371395,0.003,-0.0180785840593621));
#457=CARTESIAN_POINT('',(-0.102151568436229,0.003,-0.0206600250503657));
#458=CARTESIAN_POINT('',(-0.102701568436229,0.003,-0.0197073971062028));
#459=CARTESIAN_POINT('',(-0.106958009427232,0.003,-0.0178850250503657));
#460=CARTESIAN_POINT('',(-0.108058009427232,0.003,-0.0178850250503657));
#461=CARTESIAN_POINT('',(-0.109733009427232,0.003,-0.0186285840593621));
#462=CARTESIAN_POINT('',(-0.110685637371395,0.003,-0.0191785840593621));
#463=CARTESIAN_POINT('',(-0.111764450418236,0.003,-0.0206600250503657));
#464=CARTESIAN_POINT('',(-0.112314450418236,0.003,-0.0216126529945286));
#465=CARTESIAN_POINT('',(-0.112508009427232,0.003,-0.0234350250503657));
#466=CARTESIAN_POINT('',(-0.112508009427232,0.003,-0.0245350250503657));
#467=CARTESIAN_POINT('',(-0.109733009427232,0.003,-0.0282414660413693));
#468=CARTESIAN_POINT('',(-0.10878038148307,0.003,-0.0287914660413693));
#469=CARTESIAN_POINT('',(-0.111764450418236,0.003,-0.0262100250503657));
#470=CARTESIAN_POINT('',(-0.111214450418236,0.003,-0.0271626529945286));
#471=CARTESIAN_POINT('',(-0.104183009427232,0.003,-0.0282414660413693));
#472=CARTESIAN_POINT('',(-0.10323038148307,0.003,-0.0276914660413693));
#473=CARTESIAN_POINT('',(-0.102151568436229,0.003,-0.0262100250503657));
#474=CARTESIAN_POINT('',(-0.101601568436229,0.003,-0.0252573971062028));
#475=CARTESIAN_POINT('',(-0.101408009427232,0.003,-0.0234350250503657));
#476=CARTESIAN_POINT('',(-0.101408009427232,0.003,-0.0223350250503657));
#477=CARTESIAN_POINT('',(-0.106958009427232,0.003,-0.0289850250503657));
#478=CARTESIAN_POINT('',(-0.105858009427232,0.003,-0.0289850250503657));
#479=CARTESIAN_POINT('',(-0.106958009427232,0.,-0.0234350250503657));
#480=CARTESIAN_POINT('',(-0.104183009427232,0.,-0.0186285840593621));
#481=CARTESIAN_POINT('',(-0.103083009427232,0.,-0.0186285840593621));
#482=CARTESIAN_POINT('',(-0.102151568436229,0.,-0.0206600250503657));
#483=CARTESIAN_POINT('',(-0.101051568436229,0.,-0.0206600250503657));
#484=CARTESIAN_POINT('',(-0.106958009427232,0.,-0.0178850250503657));
#485=CARTESIAN_POINT('',(-0.105858009427232,0.,-0.0178850250503657));
#486=CARTESIAN_POINT('',(-0.109733009427232,0.,-0.0186285840593621));
#487=CARTESIAN_POINT('',(-0.108633009427232,0.,-0.0186285840593621));
#488=CARTESIAN_POINT('',(-0.111764450418236,0.,-0.0206600250503657));
#489=CARTESIAN_POINT('',(-0.110664450418236,0.,-0.0206600250503657));
#490=CARTESIAN_POINT('',(-0.112508009427232,0.,-0.0234350250503657));
#491=CARTESIAN_POINT('',(-0.111408009427232,0.,-0.0234350250503657));
#492=CARTESIAN_POINT('',(-0.109733009427232,0.,-0.0282414660413693));
#493=CARTESIAN_POINT('',(-0.108633009427232,0.,-0.0282414660413693));
#494=CARTESIAN_POINT('',(-0.111764450418236,0.,-0.0262100250503657));
#495=CARTESIAN_POINT('',(-0.110664450418236,0.,-0.0262100250503657));
#496=CARTESIAN_POINT('',(-0.104183009427232,0.,-0.0282414660413693));
#497=CARTESIAN_POINT('',(-0.103083009427232,0.,-0.0282414660413693));
#498=CARTESIAN_POINT('',(-0.102151568436229,0.,-0.0262100250503657));
#499=CARTESIAN_POINT('',(-0.101051568436229,0.,-0.0262100250503657));
#500=CARTESIAN_POINT('',(-0.101408009427232,0.,-0.0234350250503657));
#501=CARTESIAN_POINT('',(-0.100308009427232,0.,-0.0234350250503657));
#502=CARTESIAN_POINT('',(-0.106958009427232,0.,-0.0289850250503657));
#503=CARTESIAN_POINT('',(-0.105858009427232,0.,-0.0289850250503657));
#504=CARTESIAN_POINT('',(-0.106958009427232,-0.0071,-0.0289850250503657));
#505=CARTESIAN_POINT('',(-0.101408009427232,-0.0071,-0.0234350250503657));
#506=CARTESIAN_POINT('',(-0.102151568436229,-0.0071,-0.0262100250503657));
#507=CARTESIAN_POINT('',(-0.104183009427232,-0.0071,-0.0282414660413693));
#508=CARTESIAN_POINT('',(-0.111764450418236,-0.0071,-0.0262100250503657));
#509=CARTESIAN_POINT('',(-0.109733009427232,-0.0071,-0.0282414660413693));
#510=CARTESIAN_POINT('',(-0.112508009427232,-0.0071,-0.0234350250503657));
#511=CARTESIAN_POINT('',(-0.111764450418236,-0.0071,-0.0206600250503657));
#512=CARTESIAN_POINT('',(-0.109733009427232,-0.0071,-0.0186285840593621));
#513=CARTESIAN_POINT('',(-0.106958009427232,-0.0071,-0.0178850250503657));
#514=CARTESIAN_POINT('',(-0.102151568436229,-0.0071,-0.0206600250503657));
#515=CARTESIAN_POINT('',(-0.104183009427232,-0.0071,-0.0186285840593621));
#516=MECHANICAL_DESIGN_GEOMETRIC_PRESENTATION_REPRESENTATION('',(#297),
#517);
#517=(
GEOMETRIC_REPRESENTATION_CONTEXT(3)
GLOBAL_UNCERTAINTY_ASSIGNED_CONTEXT((#518))
GLOBAL_UNIT_ASSIGNED_CONTEXT((#521,#520,#519))
REPRESENTATION_CONTEXT('Part 3','TOP_LEVEL_ASSEMBLY_PART')
);
#518=UNCERTAINTY_MEASURE_WITH_UNIT(LENGTH_MEASURE(1.E-8),#521,
'DISTANCE_ACCURACY_VALUE','Maximum Tolerance applied to model');
#519=(
NAMED_UNIT(*)
SI_UNIT($,.STERADIAN.)
SOLID_ANGLE_UNIT()
);
#520=(
NAMED_UNIT(*)
PLANE_ANGLE_UNIT()
SI_UNIT($,.RADIAN.)
);
#521=(
LENGTH_UNIT()
NAMED_UNIT(*)
SI_UNIT($,.METRE.)
);
#522=PRODUCT_DEFINITION_SHAPE('','',#523);
#523=PRODUCT_DEFINITION('','',#525,#524);
#524=PRODUCT_DEFINITION_CONTEXT('',#531,'design');
#525=PRODUCT_DEFINITION_FORMATION_WITH_SPECIFIED_SOURCE('','',#527,
 .NOT_KNOWN.);
#526=PRODUCT_RELATED_PRODUCT_CATEGORY('','',(#527));
#527=PRODUCT('Part 3','Part 3','Part 3',(#529));
#528=PRODUCT_CATEGORY('','');
#529=PRODUCT_CONTEXT('',#531,'mechanical');
#530=APPLICATION_PROTOCOL_DEFINITION('international standard',
'ap242_managed_model_based_3d_engineering',2020,#531);
#531=APPLICATION_CONTEXT('managed model based 3d engineering');
ENDSEC;
END-ISO-10303-21;
