ISO-10303-21;
HEADER;
/* Generated by software containing ST-Developer
 * from STEP Tools, Inc. (www.steptools.com) 
 */
/* OPTION: using custom renumber hook */

FILE_DESCRIPTION(
/* description */ ('STEP AP242 Edition 2',
'CAx-IF Rec.Pracs.---Representation and Presentation of Product Manufa
cturing Information (PMI)---4.0---2014-10-13',
'CAx-IF Rec.Pracs.---3D Tessellated Geometry---0.4---2014-09-14','2;1',
'CAx-IF Rec.Pracs.---User Defined Attributes---1.5---2016-08-15'),
/* implementation_level */ '2;1');

FILE_NAME(
/* name */ 'Part Studio 1 - Part 2',
/* time_stamp */ '2026-09-22T16:52:04Z',
/* author */ (''),
/* organization */ (''),
/* preprocessor_version */ 'ST-DEVELOPER v20',
/* originating_system */ 'ONSHAPE BY PTC INC, 1.221',
/* authorisation */ '  ');

FILE_SCHEMA (('AP242_MANAGED_MODEL_BASED_3D_ENGINEERING_MIM_LF { 1 0 10303 442 3 1 4 }'));
ENDSEC;

DATA;
#10=SHAPE_REPRESENTATION_RELATIONSHIP('','',#115,#11);
#11=ADVANCED_BREP_SHAPE_REPRESENTATION('',(#113),#193);
#12=PLANE('',#120);
#13=PLANE('',#124);
#14=PLANE('',#125);
#15=PLANE('',#127);
#16=PLANE('',#130);
#17=LINE('',#170,#21);
#18=LINE('',#174,#22);
#19=LINE('',#176,#23);
#20=LINE('',#177,#24);
#21=VECTOR('',#137,1.);
#22=VECTOR('',#140,1.);
#23=VECTOR('',#143,1.);
#24=VECTOR('',#144,1.);
#25=ORIENTED_EDGE('',*,*,#45,.F.);
#26=ORIENTED_EDGE('',*,*,#46,.F.);
#27=ORIENTED_EDGE('',*,*,#47,.T.);
#28=ORIENTED_EDGE('',*,*,#48,.T.);
#29=ORIENTED_EDGE('',*,*,#49,.F.);
#30=ORIENTED_EDGE('',*,*,#48,.F.);
#31=ORIENTED_EDGE('',*,*,#50,.T.);
#32=ORIENTED_EDGE('',*,*,#46,.T.);
#33=ORIENTED_EDGE('',*,*,#51,.F.);
#34=ORIENTED_EDGE('',*,*,#52,.T.);
#35=ORIENTED_EDGE('',*,*,#45,.T.);
#36=ORIENTED_EDGE('',*,*,#49,.T.);
#37=ORIENTED_EDGE('',*,*,#52,.F.);
#38=ORIENTED_EDGE('',*,*,#51,.T.);
#39=ORIENTED_EDGE('',*,*,#53,.F.);
#40=ORIENTED_EDGE('',*,*,#54,.T.);
#41=ORIENTED_EDGE('',*,*,#54,.F.);
#42=ORIENTED_EDGE('',*,*,#53,.T.);
#43=ORIENTED_EDGE('',*,*,#47,.F.);
#44=ORIENTED_EDGE('',*,*,#50,.F.);
#45=EDGE_CURVE('',#55,#56,#63,.T.);
#46=EDGE_CURVE('',#57,#55,#17,.T.);
#47=EDGE_CURVE('',#57,#58,#64,.T.);
#48=EDGE_CURVE('',#58,#56,#18,.T.);
#49=EDGE_CURVE('',#56,#55,#19,.T.);
#50=EDGE_CURVE('',#58,#57,#20,.T.);
#51=EDGE_CURVE('',#59,#59,#65,.T.);
#52=EDGE_CURVE('',#60,#60,#66,.T.);
#53=EDGE_CURVE('',#61,#61,#67,.T.);
#54=EDGE_CURVE('',#62,#62,#68,.T.);
#55=VERTEX_POINT('',#168);
#56=VERTEX_POINT('',#169);
#57=VERTEX_POINT('',#171);
#58=VERTEX_POINT('',#173);
#59=VERTEX_POINT('',#180);
#60=VERTEX_POINT('',#182);
#61=VERTEX_POINT('',#186);
#62=VERTEX_POINT('',#189);
#63=CIRCLE('',#118,0.00155);
#64=CIRCLE('',#119,0.00155);
#65=CIRCLE('',#122,0.0025);
#66=CIRCLE('',#123,0.0025);
#67=CIRCLE('',#126,0.004);
#68=CIRCLE('',#128,0.004);
#69=EDGE_LOOP('',(#25,#26,#27,#28));
#70=EDGE_LOOP('',(#29,#30,#31,#32));
#71=EDGE_LOOP('',(#33));
#72=EDGE_LOOP('',(#34));
#73=EDGE_LOOP('',(#35,#36));
#74=EDGE_LOOP('',(#37));
#75=EDGE_LOOP('',(#38));
#76=EDGE_LOOP('',(#39));
#77=EDGE_LOOP('',(#40));
#78=EDGE_LOOP('',(#41));
#79=EDGE_LOOP('',(#42));
#80=EDGE_LOOP('',(#43,#44));
#81=FACE_BOUND('',#69,.T.);
#82=FACE_BOUND('',#70,.T.);
#83=FACE_BOUND('',#71,.T.);
#84=FACE_BOUND('',#72,.T.);
#85=FACE_BOUND('',#73,.T.);
#86=FACE_BOUND('',#74,.T.);
#87=FACE_BOUND('',#75,.T.);
#88=FACE_BOUND('',#76,.T.);
#89=FACE_BOUND('',#77,.T.);
#90=FACE_BOUND('',#78,.T.);
#91=FACE_BOUND('',#79,.T.);
#92=FACE_BOUND('',#80,.T.);
#93=CYLINDRICAL_SURFACE('',#117,0.00155);
#94=CYLINDRICAL_SURFACE('',#121,0.0025);
#95=CYLINDRICAL_SURFACE('',#129,0.004);
#96=ADVANCED_FACE('',(#81),#93,.F.);
#97=ADVANCED_FACE('',(#82),#12,.T.);
#98=ADVANCED_FACE('',(#83,#84),#94,.T.);
#99=ADVANCED_FACE('',(#85,#86),#13,.F.);
#100=ADVANCED_FACE('',(#87,#88),#14,.F.);
#101=ADVANCED_FACE('',(#89),#15,.T.);
#102=ADVANCED_FACE('',(#90,#91),#95,.T.);
#103=ADVANCED_FACE('',(#92),#16,.F.);
#104=CLOSED_SHELL('',(#96,#97,#98,#99,#100,#101,#102,#103));
#105=STYLED_ITEM('',(#106),#113);
#106=PRESENTATION_STYLE_ASSIGNMENT((#107));
#107=SURFACE_STYLE_USAGE(.BOTH.,#108);
#108=SURFACE_SIDE_STYLE('',(#109));
#109=SURFACE_STYLE_FILL_AREA(#110);
#110=FILL_AREA_STYLE('',(#111));
#111=FILL_AREA_STYLE_COLOUR('',#112);
#112=COLOUR_RGB('',0.647058823529412,0.647058823529412,0.647058823529412);
#113=MANIFOLD_SOLID_BREP('Part 2',#104);
#114=SHAPE_DEFINITION_REPRESENTATION(#198,#115);
#115=SHAPE_REPRESENTATION('Part 2',(#116),#193);
#116=AXIS2_PLACEMENT_3D('',#165,#131,#132);
#117=AXIS2_PLACEMENT_3D('',#166,#133,#134);
#118=AXIS2_PLACEMENT_3D('',#167,#135,#136);
#119=AXIS2_PLACEMENT_3D('',#172,#138,#139);
#120=AXIS2_PLACEMENT_3D('',#175,#141,#142);
#121=AXIS2_PLACEMENT_3D('',#178,#145,#146);
#122=AXIS2_PLACEMENT_3D('',#179,#147,#148);
#123=AXIS2_PLACEMENT_3D('',#181,#149,#150);
#124=AXIS2_PLACEMENT_3D('',#183,#151,#152);
#125=AXIS2_PLACEMENT_3D('',#184,#153,#154);
#126=AXIS2_PLACEMENT_3D('',#185,#155,#156);
#127=AXIS2_PLACEMENT_3D('',#187,#157,#158);
#128=AXIS2_PLACEMENT_3D('',#188,#159,#160);
#129=AXIS2_PLACEMENT_3D('',#190,#161,#162);
#130=AXIS2_PLACEMENT_3D('',#191,#163,#164);
#131=DIRECTION('',(0.,0.,1.));
#132=DIRECTION('',(1.,0.,0.));
#133=DIRECTION('',(0.,-1.,0.));
#134=DIRECTION('',(-1.,0.,0.));
#135=DIRECTION('',(0.,1.,0.));
#136=DIRECTION('',(-0.612903225806456,0.,0.790157981542957));
#137=DIRECTION('',(0.,-1.,0.));
#138=DIRECTION('',(0.,1.,0.));
#139=DIRECTION('',(-0.612903225806456,0.,0.790157981542957));
#140=DIRECTION('',(0.,-1.,0.));
#141=DIRECTION('',(1.,0.,0.));
#142=DIRECTION('',(0.,-1.,0.));
#143=DIRECTION('',(0.,0.,1.));
#144=DIRECTION('',(0.,0.,1.));
#145=DIRECTION('',(0.,-1.,0.));
#146=DIRECTION('',(-1.,0.,0.));
#147=DIRECTION('',(0.,1.,0.));
#148=DIRECTION('',(1.,0.,6.12323399573676E-17));
#149=DIRECTION('',(0.,1.,0.));
#150=DIRECTION('',(1.,0.,6.12323399573676E-17));
#151=DIRECTION('',(0.,1.,0.));
#152=DIRECTION('',(1.,0.,0.));
#153=DIRECTION('',(0.,1.,0.));
#154=DIRECTION('',(1.,0.,0.));
#155=DIRECTION('',(0.,1.,0.));
#156=DIRECTION('',(1.,0.,6.12323399573676E-17));
#157=DIRECTION('',(0.,1.,0.));
#158=DIRECTION('',(1.,0.,0.));
#159=DIRECTION('',(0.,1.,0.));
#160=DIRECTION('',(1.,0.,6.12323399573676E-17));
#161=DIRECTION('',(0.,-1.,0.));
#162=DIRECTION('',(-1.,0.,0.));
#163=DIRECTION('',(0.,1.,0.));
#164=DIRECTION('',(1.,0.,0.));
#165=CARTESIAN_POINT('',(0.,0.,0.));
#166=CARTESIAN_POINT('',(-0.108029134571552,0.005,-2.16840434497101E-19));
#167=CARTESIAN_POINT('',(-0.108029134571552,0.,-2.16840434497101E-19));
#168=CARTESIAN_POINT('',(-0.108979134571552,0.,0.00122474487139158));
#169=CARTESIAN_POINT('',(-0.108979134571552,0.,-0.00122474487139158));
#170=CARTESIAN_POINT('',(-0.108979134571552,0.005,0.00122474487139158));
#171=CARTESIAN_POINT('',(-0.108979134571552,0.005,0.00122474487139158));
#172=CARTESIAN_POINT('',(-0.108029134571552,0.005,-2.16840434497101E-19));
#173=CARTESIAN_POINT('',(-0.108979134571552,0.005,-0.00122474487139158));
#174=CARTESIAN_POINT('',(-0.108979134571552,0.005,-0.00122474487139158));
#175=CARTESIAN_POINT('',(-0.108979134571552,0.005,0.000612372435695792));
#176=CARTESIAN_POINT('',(-0.108979134571552,0.,0.000612372435695792));
#177=CARTESIAN_POINT('',(-0.108979134571552,0.005,0.000612372435695792));
#178=CARTESIAN_POINT('',(-0.108029134571552,0.005,-1.53080849893419E-19));
#179=CARTESIAN_POINT('',(-0.108029134571552,0.005,-1.53080849893419E-19));
#180=CARTESIAN_POINT('',(-0.105529134571552,0.005,0.));
#181=CARTESIAN_POINT('',(-0.108029134571552,0.,-1.53080849893419E-19));
#182=CARTESIAN_POINT('',(-0.105529134571552,0.,0.));
#183=CARTESIAN_POINT('',(-0.108029134571552,0.,0.));
#184=CARTESIAN_POINT('',(-0.108029134571552,0.005,0.));
#185=CARTESIAN_POINT('',(-0.108029134571552,0.005,-3.9801020972289E-19));
#186=CARTESIAN_POINT('',(-0.104029134571552,0.005,-1.5308084989342E-19));
#187=CARTESIAN_POINT('',(-0.108029134571552,0.08,0.));
#188=CARTESIAN_POINT('',(-0.108029134571552,0.08,-3.9801020972289E-19));
#189=CARTESIAN_POINT('',(-0.104029134571552,0.08,-1.5308084989342E-19));
#190=CARTESIAN_POINT('',(-0.108029134571552,0.08,-3.9801020972289E-19));
#191=CARTESIAN_POINT('',(-0.108029134571552,0.005,0.));
#192=MECHANICAL_DESIGN_GEOMETRIC_PRESENTATION_REPRESENTATION('',(#105),
#193);
#193=(
GEOMETRIC_REPRESENTATION_CONTEXT(3)
GLOBAL_UNCERTAINTY_ASSIGNED_CONTEXT((#194))
GLOBAL_UNIT_ASSIGNED_CONTEXT((#197,#196,#195))
REPRESENTATION_CONTEXT('Part 2','TOP_LEVEL_ASSEMBLY_PART')
);
#194=UNCERTAINTY_MEASURE_WITH_UNIT(LENGTH_MEASURE(1.E-8),#197,
'DISTANCE_ACCURACY_VALUE','Maximum Tolerance applied to model');
#195=(
NAMED_UNIT(*)
SI_UNIT($,.STERADIAN.)
SOLID_ANGLE_UNIT()
);
#196=(
NAMED_UNIT(*)
PLANE_ANGLE_UNIT()
SI_UNIT($,.RADIAN.)
);
#197=(
LENGTH_UNIT()
NAMED_UNIT(*)
SI_UNIT($,.METRE.)
);
#198=PRODUCT_DEFINITION_SHAPE('','',#199);
#199=PRODUCT_DEFINITION('','',#201,#200);
#200=PRODUCT_DEFINITION_CONTEXT('',#207,'design');
#201=PRODUCT_DEFINITION_FORMATION_WITH_SPECIFIED_SOURCE('','',#203,
 .NOT_KNOWN.);
#202=PRODUCT_RELATED_PRODUCT_CATEGORY('','',(#203));
#203=PRODUCT('Part 2','Part 2','Part 2',(#205));
#204=PRODUCT_CATEGORY('','');
#205=PRODUCT_CONTEXT('',#207,'mechanical');
#206=APPLICATION_PROTOCOL_DEFINITION('international standard',
'ap242_managed_model_based_3d_engineering',2020,#207);
#207=APPLICATION_CONTEXT('managed model based 3d engineering');
ENDSEC;
END-ISO-10303-21;
