ISO-10303-21;
HEADER;
/* Generated by software containing ST-Developer
 * from STEP Tools, Inc. (www.steptools.com) 
 */
/* OPTION: using custom renumber hook */

FILE_DESCRIPTION(
/* description */ ('STEP AP242 Edition 2',
'CAx-IF Rec.Pracs.---Representation and Presentation of Product Manufa
cturing Information (PMI)---4.0---2014-10-13',
'CAx-IF Rec.Pracs.---3D Tessellated Geometry---0.4---2014-09-14','2;1',
'CAx-IF Rec.Pracs.---User Defined Attributes---1.5---2016-08-15'),
/* implementation_level */ '2;1');

FILE_NAME(
/* name */ 'Part Studio 1 - Part 4',
/* time_stamp */ '2026-09-22T16:52:04Z',
/* author */ (''),
/* organization */ (''),
/* preprocessor_version */ 'ST-DEVELOPER v20',
/* originating_system */ 'ONSHAPE BY PTC INC, 1.221',
/* authorisation */ '  ');

FILE_SCHEMA (('AP242_MANAGED_MODEL_BASED_3D_ENGINEERING_MIM_LF { 1 0 10303 442 3 1 4 }'));
ENDSEC;

DATA;
#10=SHAPE_REPRESENTATION_RELATIONSHIP('','',#211,#11);
#11=ADVANCED_BREP_SHAPE_REPRESENTATION('',(#209),#351);
#12=CYLINDRICAL_SURFACE('',#229,0.0011);
#13=CYLINDRICAL_SURFACE('',#230,0.00075);
#14=CYLINDRICAL_SURFACE('',#231,0.00075);
#15=CYLINDRICAL_SURFACE('',#232,0.00075);
#16=CYLINDRICAL_SURFACE('',#233,0.00075);
#17=CIRCLE('',#215,0.0011);
#18=CIRCLE('',#216,0.00075);
#19=CIRCLE('',#217,0.00075);
#20=CIRCLE('',#218,0.00075);
#21=CIRCLE('',#219,0.00075);
#22=CIRCLE('',#222,0.0011);
#23=CIRCLE('',#223,0.00075);
#24=CIRCLE('',#224,0.00075);
#25=CIRCLE('',#225,0.00075);
#26=CIRCLE('',#226,0.00075);
#27=ORIENTED_EDGE('',*,*,#79,.T.);
#28=ORIENTED_EDGE('',*,*,#80,.T.);
#29=ORIENTED_EDGE('',*,*,#81,.F.);
#30=ORIENTED_EDGE('',*,*,#82,.T.);
#31=ORIENTED_EDGE('',*,*,#83,.T.);
#32=ORIENTED_EDGE('',*,*,#84,.T.);
#33=ORIENTED_EDGE('',*,*,#85,.T.);
#34=ORIENTED_EDGE('',*,*,#86,.F.);
#35=ORIENTED_EDGE('',*,*,#87,.T.);
#36=ORIENTED_EDGE('',*,*,#88,.F.);
#37=ORIENTED_EDGE('',*,*,#89,.T.);
#38=ORIENTED_EDGE('',*,*,#81,.T.);
#39=ORIENTED_EDGE('',*,*,#90,.T.);
#40=ORIENTED_EDGE('',*,*,#86,.T.);
#41=ORIENTED_EDGE('',*,*,#91,.T.);
#42=ORIENTED_EDGE('',*,*,#92,.F.);
#43=ORIENTED_EDGE('',*,*,#93,.T.);
#44=ORIENTED_EDGE('',*,*,#94,.F.);
#45=ORIENTED_EDGE('',*,*,#92,.T.);
#46=ORIENTED_EDGE('',*,*,#95,.T.);
#47=ORIENTED_EDGE('',*,*,#96,.F.);
#48=ORIENTED_EDGE('',*,*,#97,.T.);
#49=ORIENTED_EDGE('',*,*,#79,.F.);
#50=ORIENTED_EDGE('',*,*,#98,.T.);
#51=ORIENTED_EDGE('',*,*,#99,.T.);
#52=ORIENTED_EDGE('',*,*,#100,.T.);
#53=ORIENTED_EDGE('',*,*,#88,.T.);
#54=ORIENTED_EDGE('',*,*,#101,.T.);
#55=ORIENTED_EDGE('',*,*,#99,.F.);
#56=ORIENTED_EDGE('',*,*,#102,.T.);
#57=ORIENTED_EDGE('',*,*,#96,.T.);
#58=ORIENTED_EDGE('',*,*,#103,.T.);
#59=ORIENTED_EDGE('',*,*,#84,.F.);
#60=ORIENTED_EDGE('',*,*,#104,.T.);
#61=ORIENTED_EDGE('',*,*,#83,.F.);
#62=ORIENTED_EDGE('',*,*,#94,.T.);
#63=ORIENTED_EDGE('',*,*,#85,.F.);
#64=ORIENTED_EDGE('',*,*,#103,.F.);
#65=ORIENTED_EDGE('',*,*,#95,.F.);
#66=ORIENTED_EDGE('',*,*,#91,.F.);
#67=ORIENTED_EDGE('',*,*,#87,.F.);
#68=ORIENTED_EDGE('',*,*,#93,.F.);
#69=ORIENTED_EDGE('',*,*,#100,.F.);
#70=ORIENTED_EDGE('',*,*,#101,.F.);
#71=ORIENTED_EDGE('',*,*,#90,.F.);
#72=ORIENTED_EDGE('',*,*,#80,.F.);
#73=ORIENTED_EDGE('',*,*,#97,.F.);
#74=ORIENTED_EDGE('',*,*,#104,.F.);
#75=ORIENTED_EDGE('',*,*,#89,.F.);
#76=ORIENTED_EDGE('',*,*,#102,.F.);
#77=ORIENTED_EDGE('',*,*,#98,.F.);
#78=ORIENTED_EDGE('',*,*,#82,.F.);
#79=EDGE_CURVE('',#105,#106,#123,.T.);
#80=EDGE_CURVE('',#106,#107,#124,.F.);
#81=EDGE_CURVE('',#108,#107,#125,.T.);
#82=EDGE_CURVE('',#108,#105,#126,.T.);
#83=EDGE_CURVE('',#109,#109,#17,.T.);
#84=EDGE_CURVE('',#110,#111,#127,.T.);
#85=EDGE_CURVE('',#111,#112,#18,.F.);
#86=EDGE_CURVE('',#113,#112,#128,.T.);
#87=EDGE_CURVE('',#113,#114,#19,.F.);
#88=EDGE_CURVE('',#115,#114,#129,.T.);
#89=EDGE_CURVE('',#115,#108,#20,.F.);
#90=EDGE_CURVE('',#107,#110,#21,.F.);
#91=EDGE_CURVE('',#112,#116,#130,.T.);
#92=EDGE_CURVE('',#117,#116,#131,.T.);
#93=EDGE_CURVE('',#117,#113,#132,.F.);
#94=EDGE_CURVE('',#118,#118,#22,.T.);
#95=EDGE_CURVE('',#116,#119,#23,.T.);
#96=EDGE_CURVE('',#120,#119,#133,.T.);
#97=EDGE_CURVE('',#120,#106,#24,.T.);
#98=EDGE_CURVE('',#105,#121,#25,.T.);
#99=EDGE_CURVE('',#121,#122,#134,.T.);
#100=EDGE_CURVE('',#122,#117,#26,.T.);
#101=EDGE_CURVE('',#114,#122,#135,.T.);
#102=EDGE_CURVE('',#121,#115,#136,.F.);
#103=EDGE_CURVE('',#119,#111,#137,.F.);
#104=EDGE_CURVE('',#110,#120,#138,.T.);
#105=VERTEX_POINT('',#297);
#106=VERTEX_POINT('',#298);
#107=VERTEX_POINT('',#300);
#108=VERTEX_POINT('',#302);
#109=VERTEX_POINT('',#306);
#110=VERTEX_POINT('',#308);
#111=VERTEX_POINT('',#309);
#112=VERTEX_POINT('',#311);
#113=VERTEX_POINT('',#313);
#114=VERTEX_POINT('',#315);
#115=VERTEX_POINT('',#317);
#116=VERTEX_POINT('',#322);
#117=VERTEX_POINT('',#324);
#118=VERTEX_POINT('',#328);
#119=VERTEX_POINT('',#330);
#120=VERTEX_POINT('',#332);
#121=VERTEX_POINT('',#335);
#122=VERTEX_POINT('',#337);
#123=LINE('',#296,#139);
#124=LINE('',#299,#140);
#125=LINE('',#301,#141);
#126=LINE('',#303,#142);
#127=LINE('',#307,#143);
#128=LINE('',#312,#144);
#129=LINE('',#316,#145);
#130=LINE('',#321,#146);
#131=LINE('',#323,#147);
#132=LINE('',#325,#148);
#133=LINE('',#331,#149);
#134=LINE('',#336,#150);
#135=LINE('',#340,#151);
#136=LINE('',#341,#152);
#137=LINE('',#343,#153);
#138=LINE('',#344,#154);
#139=VECTOR('',#238,1.);
#140=VECTOR('',#239,1.);
#141=VECTOR('',#240,1.);
#142=VECTOR('',#241,1.);
#143=VECTOR('',#246,1.);
#144=VECTOR('',#249,1.);
#145=VECTOR('',#252,1.);
#146=VECTOR('',#259,1.);
#147=VECTOR('',#260,1.);
#148=VECTOR('',#261,1.);
#149=VECTOR('',#268,1.);
#150=VECTOR('',#273,1.);
#151=VECTOR('',#278,1.);
#152=VECTOR('',#279,1.);
#153=VECTOR('',#282,1.);
#154=VECTOR('',#283,1.);
#155=EDGE_LOOP('',(#27,#28,#29,#30));
#156=EDGE_LOOP('',(#31));
#157=EDGE_LOOP('',(#32,#33,#34,#35,#36,#37,#38,#39));
#158=EDGE_LOOP('',(#40,#41,#42,#43));
#159=EDGE_LOOP('',(#44));
#160=EDGE_LOOP('',(#45,#46,#47,#48,#49,#50,#51,#52));
#161=EDGE_LOOP('',(#53,#54,#55,#56));
#162=EDGE_LOOP('',(#57,#58,#59,#60));
#163=EDGE_LOOP('',(#61));
#164=EDGE_LOOP('',(#62));
#165=EDGE_LOOP('',(#63,#64,#65,#66));
#166=EDGE_LOOP('',(#67,#68,#69,#70));
#167=EDGE_LOOP('',(#71,#72,#73,#74));
#168=EDGE_LOOP('',(#75,#76,#77,#78));
#169=FACE_BOUND('',#155,.T.);
#170=FACE_BOUND('',#156,.T.);
#171=FACE_BOUND('',#157,.T.);
#172=FACE_BOUND('',#158,.T.);
#173=FACE_BOUND('',#159,.T.);
#174=FACE_BOUND('',#160,.T.);
#175=FACE_BOUND('',#161,.T.);
#176=FACE_BOUND('',#162,.T.);
#177=FACE_BOUND('',#163,.T.);
#178=FACE_BOUND('',#164,.T.);
#179=FACE_BOUND('',#165,.T.);
#180=FACE_BOUND('',#166,.T.);
#181=FACE_BOUND('',#167,.T.);
#182=FACE_BOUND('',#168,.T.);
#183=PLANE('',#213);
#184=PLANE('',#214);
#185=PLANE('',#220);
#186=PLANE('',#221);
#187=PLANE('',#227);
#188=PLANE('',#228);
#189=ADVANCED_FACE('',(#169),#183,.T.);
#190=ADVANCED_FACE('',(#170,#171),#184,.F.);
#191=ADVANCED_FACE('',(#172),#185,.F.);
#192=ADVANCED_FACE('',(#173,#174),#186,.T.);
#193=ADVANCED_FACE('',(#175),#187,.T.);
#194=ADVANCED_FACE('',(#176),#188,.F.);
#195=ADVANCED_FACE('',(#177,#178),#12,.F.);
#196=ADVANCED_FACE('',(#179),#13,.T.);
#197=ADVANCED_FACE('',(#180),#14,.T.);
#198=ADVANCED_FACE('',(#181),#15,.T.);
#199=ADVANCED_FACE('',(#182),#16,.T.);
#200=CLOSED_SHELL('',(#189,#190,#191,#192,#193,#194,#195,#196,#197,#198,
#199));
#201=STYLED_ITEM('',(#202),#209);
#202=PRESENTATION_STYLE_ASSIGNMENT((#203));
#203=SURFACE_STYLE_USAGE(.BOTH.,#204);
#204=SURFACE_SIDE_STYLE('',(#205));
#205=SURFACE_STYLE_FILL_AREA(#206);
#206=FILL_AREA_STYLE('',(#207));
#207=FILL_AREA_STYLE_COLOUR('',#208);
#208=COLOUR_RGB('',0.917647058823529,0.917647058823529,0.917647058823529);
#209=MANIFOLD_SOLID_BREP('Part 4',#200);
#210=SHAPE_DEFINITION_REPRESENTATION(#356,#211);
#211=SHAPE_REPRESENTATION('Part 4',(#212),#351);
#212=AXIS2_PLACEMENT_3D('',#294,#234,#235);
#213=AXIS2_PLACEMENT_3D('',#295,#236,#237);
#214=AXIS2_PLACEMENT_3D('',#304,#242,#243);
#215=AXIS2_PLACEMENT_3D('',#305,#244,#245);
#216=AXIS2_PLACEMENT_3D('',#310,#247,#248);
#217=AXIS2_PLACEMENT_3D('',#314,#250,#251);
#218=AXIS2_PLACEMENT_3D('',#318,#253,#254);
#219=AXIS2_PLACEMENT_3D('',#319,#255,#256);
#220=AXIS2_PLACEMENT_3D('',#320,#257,#258);
#221=AXIS2_PLACEMENT_3D('',#326,#262,#263);
#222=AXIS2_PLACEMENT_3D('',#327,#264,#265);
#223=AXIS2_PLACEMENT_3D('',#329,#266,#267);
#224=AXIS2_PLACEMENT_3D('',#333,#269,#270);
#225=AXIS2_PLACEMENT_3D('',#334,#271,#272);
#226=AXIS2_PLACEMENT_3D('',#338,#274,#275);
#227=AXIS2_PLACEMENT_3D('',#339,#276,#277);
#228=AXIS2_PLACEMENT_3D('',#342,#280,#281);
#229=AXIS2_PLACEMENT_3D('',#345,#284,#285);
#230=AXIS2_PLACEMENT_3D('',#346,#286,#287);
#231=AXIS2_PLACEMENT_3D('',#347,#288,#289);
#232=AXIS2_PLACEMENT_3D('',#348,#290,#291);
#233=AXIS2_PLACEMENT_3D('',#349,#292,#293);
#234=DIRECTION('',(0.,0.,1.));
#235=DIRECTION('',(1.,0.,0.));
#236=DIRECTION('',(0.,0.,-1.));
#237=DIRECTION('',(0.,1.,0.));
#238=DIRECTION('',(0.,-1.,0.));
#239=DIRECTION('',(1.,0.,0.));
#240=DIRECTION('',(0.,-1.,0.));
#241=DIRECTION('',(1.,0.,0.));
#242=DIRECTION('',(1.,0.,0.));
#243=DIRECTION('',(0.,-1.,0.));
#244=DIRECTION('',(1.,0.,0.));
#245=DIRECTION('',(0.,0.,-1.));
#246=DIRECTION('',(0.,0.,1.));
#247=DIRECTION('',(1.,0.,0.));
#248=DIRECTION('',(0.,-1.,0.));
#249=DIRECTION('',(0.,-1.,0.));
#250=DIRECTION('',(1.,0.,0.));
#251=DIRECTION('',(0.,-1.,0.));
#252=DIRECTION('',(0.,0.,1.));
#253=DIRECTION('',(1.,0.,0.));
#254=DIRECTION('',(0.,-1.,0.));
#255=DIRECTION('',(1.,0.,0.));
#256=DIRECTION('',(0.,-1.,0.));
#257=DIRECTION('',(0.,0.,-1.));
#258=DIRECTION('',(0.,1.,0.));
#259=DIRECTION('',(1.,0.,0.));
#260=DIRECTION('',(0.,-1.,0.));
#261=DIRECTION('',(1.,0.,0.));
#262=DIRECTION('',(1.,0.,0.));
#263=DIRECTION('',(0.,-1.,0.));
#264=DIRECTION('',(1.,0.,0.));
#265=DIRECTION('',(0.,0.,-1.));
#266=DIRECTION('',(1.,0.,0.));
#267=DIRECTION('',(0.,-1.,0.));
#268=DIRECTION('',(0.,0.,1.));
#269=DIRECTION('',(1.,0.,0.));
#270=DIRECTION('',(0.,-1.,0.));
#271=DIRECTION('',(1.,0.,0.));
#272=DIRECTION('',(0.,-1.,0.));
#273=DIRECTION('',(0.,0.,1.));
#274=DIRECTION('',(1.,0.,0.));
#275=DIRECTION('',(0.,-1.,0.));
#276=DIRECTION('',(0.,1.,0.));
#277=DIRECTION('',(1.,0.,0.));
#278=DIRECTION('',(1.,0.,0.));
#279=DIRECTION('',(1.,0.,0.));
#280=DIRECTION('',(0.,1.,0.));
#281=DIRECTION('',(1.,0.,0.));
#282=DIRECTION('',(1.,0.,0.));
#283=DIRECTION('',(1.,0.,0.));
#284=DIRECTION('',(1.,0.,0.));
#285=DIRECTION('',(0.,-1.,0.));
#286=DIRECTION('',(1.,0.,0.));
#287=DIRECTION('',(0.,-1.,0.));
#288=DIRECTION('',(-1.,0.,0.));
#289=DIRECTION('',(0.,1.,0.));
#290=DIRECTION('',(-1.,0.,0.));
#291=DIRECTION('',(0.,1.,0.));
#292=DIRECTION('',(1.,0.,0.));
#293=DIRECTION('',(0.,-1.,0.));
#294=CARTESIAN_POINT('',(0.,0.,0.));
#295=CARTESIAN_POINT('',(-0.054282983392477,0.003,-0.127769066095352));
#296=CARTESIAN_POINT('',(-0.029282983392477,0.003,-0.127769066095352));
#297=CARTESIAN_POINT('',(-0.029282983392477,0.00225,-0.127769066095352));
#298=CARTESIAN_POINT('',(-0.029282983392477,0.00075,-0.127769066095352));
#299=CARTESIAN_POINT('',(-0.079282983392477,0.00075,-0.127769066095352));
#300=CARTESIAN_POINT('',(-0.079282983392477,0.00075,-0.127769066095352));
#301=CARTESIAN_POINT('',(-0.079282983392477,0.003,-0.127769066095352));
#302=CARTESIAN_POINT('',(-0.079282983392477,0.00225,-0.127769066095352));
#303=CARTESIAN_POINT('',(-0.054282983392477,0.00225,-0.127769066095352));
#304=CARTESIAN_POINT('',(-0.079282983392477,0.003,-0.105269066095352));
#305=CARTESIAN_POINT('',(-0.079282983392477,0.0015,-0.126269066095352));
#306=CARTESIAN_POINT('',(-0.079282983392477,0.0015,-0.127369066095352));
#307=CARTESIAN_POINT('',(-0.079282983392477,0.,-0.105269066095352));
#308=CARTESIAN_POINT('',(-0.079282983392477,0.,-0.127019066095352));
#309=CARTESIAN_POINT('',(-0.079282983392477,0.,-0.0835190660953522));
#310=CARTESIAN_POINT('',(-0.079282983392477,0.00075,-0.0835190660953522));
#311=CARTESIAN_POINT('',(-0.079282983392477,0.00075,-0.0827690660953522));
#312=CARTESIAN_POINT('',(-0.079282983392477,0.003,-0.0827690660953522));
#313=CARTESIAN_POINT('',(-0.079282983392477,0.00225,-0.0827690660953522));
#314=CARTESIAN_POINT('',(-0.079282983392477,0.00225,-0.0835190660953522));
#315=CARTESIAN_POINT('',(-0.079282983392477,0.003,-0.0835190660953522));
#316=CARTESIAN_POINT('',(-0.079282983392477,0.003,-0.105269066095352));
#317=CARTESIAN_POINT('',(-0.079282983392477,0.003,-0.127019066095352));
#318=CARTESIAN_POINT('',(-0.079282983392477,0.00225,-0.127019066095352));
#319=CARTESIAN_POINT('',(-0.079282983392477,0.00075,-0.127019066095352));
#320=CARTESIAN_POINT('',(-0.054282983392477,0.003,-0.0827690660953522));
#321=CARTESIAN_POINT('',(-0.054282983392477,0.00075,-0.0827690660953522));
#322=CARTESIAN_POINT('',(-0.029282983392477,0.00075,-0.0827690660953522));
#323=CARTESIAN_POINT('',(-0.029282983392477,0.003,-0.0827690660953522));
#324=CARTESIAN_POINT('',(-0.029282983392477,0.00225,-0.0827690660953522));
#325=CARTESIAN_POINT('',(-0.079282983392477,0.00225,-0.0827690660953522));
#326=CARTESIAN_POINT('',(-0.029282983392477,0.003,-0.105269066095352));
#327=CARTESIAN_POINT('',(-0.029282983392477,0.0015,-0.126269066095352));
#328=CARTESIAN_POINT('',(-0.029282983392477,0.0015,-0.127369066095352));
#329=CARTESIAN_POINT('',(-0.029282983392477,0.00075,-0.0835190660953522));
#330=CARTESIAN_POINT('',(-0.029282983392477,0.,-0.0835190660953522));
#331=CARTESIAN_POINT('',(-0.029282983392477,0.,-0.105269066095352));
#332=CARTESIAN_POINT('',(-0.029282983392477,0.,-0.127019066095352));
#333=CARTESIAN_POINT('',(-0.029282983392477,0.00075,-0.127019066095352));
#334=CARTESIAN_POINT('',(-0.029282983392477,0.00225,-0.127019066095352));
#335=CARTESIAN_POINT('',(-0.029282983392477,0.003,-0.127019066095352));
#336=CARTESIAN_POINT('',(-0.029282983392477,0.003,-0.105269066095352));
#337=CARTESIAN_POINT('',(-0.029282983392477,0.003,-0.0835190660953522));
#338=CARTESIAN_POINT('',(-0.029282983392477,0.00225,-0.0835190660953522));
#339=CARTESIAN_POINT('',(-0.054282983392477,0.003,-0.105269066095352));
#340=CARTESIAN_POINT('',(-0.029282983392477,0.003,-0.0835190660953522));
#341=CARTESIAN_POINT('',(-0.054282983392477,0.003,-0.127019066095352));
#342=CARTESIAN_POINT('',(-0.054282983392477,0.,-0.105269066095352));
#343=CARTESIAN_POINT('',(-0.054282983392477,0.,-0.0835190660953522));
#344=CARTESIAN_POINT('',(-0.029282983392477,0.,-0.127019066095352));
#345=CARTESIAN_POINT('',(-0.079282983392477,0.0015,-0.126269066095352));
#346=CARTESIAN_POINT('',(-0.054282983392477,0.00075,-0.0835190660953522));
#347=CARTESIAN_POINT('',(-0.054282983392477,0.00225,-0.0835190660953522));
#348=CARTESIAN_POINT('',(-0.054282983392477,0.00075,-0.127019066095352));
#349=CARTESIAN_POINT('',(-0.054282983392477,0.00225,-0.127019066095352));
#350=MECHANICAL_DESIGN_GEOMETRIC_PRESENTATION_REPRESENTATION('',(#201),
#351);
#351=(
GEOMETRIC_REPRESENTATION_CONTEXT(3)
GLOBAL_UNCERTAINTY_ASSIGNED_CONTEXT((#352))
GLOBAL_UNIT_ASSIGNED_CONTEXT((#355,#354,#353))
REPRESENTATION_CONTEXT('Part 4','TOP_LEVEL_ASSEMBLY_PART')
);
#352=UNCERTAINTY_MEASURE_WITH_UNIT(LENGTH_MEASURE(1.E-8),#355,
'DISTANCE_ACCURACY_VALUE','Maximum Tolerance applied to model');
#353=(
NAMED_UNIT(*)
SI_UNIT($,.STERADIAN.)
SOLID_ANGLE_UNIT()
);
#354=(
NAMED_UNIT(*)
PLANE_ANGLE_UNIT()
SI_UNIT($,.RADIAN.)
);
#355=(
LENGTH_UNIT()
NAMED_UNIT(*)
SI_UNIT($,.METRE.)
);
#356=PRODUCT_DEFINITION_SHAPE('','',#357);
#357=PRODUCT_DEFINITION('','',#359,#358);
#358=PRODUCT_DEFINITION_CONTEXT('',#365,'design');
#359=PRODUCT_DEFINITION_FORMATION_WITH_SPECIFIED_SOURCE('','',#361,
 .NOT_KNOWN.);
#360=PRODUCT_RELATED_PRODUCT_CATEGORY('','',(#361));
#361=PRODUCT('Part 4','Part 4','Part 4',(#363));
#362=PRODUCT_CATEGORY('','');
#363=PRODUCT_CONTEXT('',#365,'mechanical');
#364=APPLICATION_PROTOCOL_DEFINITION('international standard',
'ap242_managed_model_based_3d_engineering',2020,#365);
#365=APPLICATION_CONTEXT('managed model based 3d engineering');
ENDSEC;
END-ISO-10303-21;
